<?xml version="1.0" encoding="iso-8859-1"?>
<!-- Generator: Adobe Illustrator 21.1.0, SVG Export Plug-In . SVG Version: 6.00 Build 0)  -->
<svg version="1.1" id="Layer_1" xmlns="http://www.w3.org/2000/svg" xmlns:xlink="http://www.w3.org/1999/xlink" x="0px" y="0px"
	 viewBox="0 0 100 100" style="enable-background:new 0 0 100 100;" xml:space="preserve">
<g>
	<path d="M80.553,38.592h-4.566c-0.954-13.506-12.24-24.205-25.984-24.205c-13.745,0-25.03,10.699-25.985,24.205h-4.57
		c-0.829,0-1.5,0.671-1.5,1.5v44.021c0,0.828,0.671,1.5,1.5,1.5h61.105c0.828,0,1.5-0.672,1.5-1.5V40.092
		C82.053,39.263,81.381,38.592,80.553,38.592z M50.002,17.387c12.09,0,22.029,9.355,22.977,21.205H27.025
		C27.973,26.742,37.912,17.387,50.002,17.387z M79.053,82.613H20.947V41.592h58.104v41.021H79.053z"/>
	<path d="M49.995,45.129c-0.007,0-0.014,0-0.021,0c-4.391,0.015-7.955,3.599-7.943,7.99c0.006,2.601,1.276,5.008,3.37,6.485V72.82
		c0,2.536,2.062,4.599,4.597,4.599c2.534,0,4.597-2.062,4.597-4.599V59.606c2.107-1.489,3.38-3.918,3.37-6.53
		c-0.005-2.128-0.84-4.127-2.349-5.628C54.111,45.952,52.117,45.129,49.995,45.129z M52.393,57.451
		c-0.38,0.209-0.649,0.571-0.742,0.994l-0.021,0.099c-0.022,0.104-0.034,0.212-0.034,0.319V72.82c0,0.882-0.716,1.599-1.597,1.599
		s-1.597-0.717-1.597-1.599V59.038c0.105-0.617-0.185-1.259-0.766-1.572c-1.602-0.866-2.6-2.534-2.604-4.354
		c-0.007-2.737,2.215-4.973,4.953-4.982c1.296,0.001,2.576,0.51,3.516,1.446c0.941,0.936,1.462,2.181,1.465,3.51
		C54.972,54.9,53.985,56.572,52.393,57.451z"/>
</g>
</svg>
