<?xml version="1.0" encoding="iso-8859-1"?>
<!-- Generator: Adobe Illustrator 21.1.0, SVG Export Plug-In . SVG Version: 6.00 Build 0)  -->
<svg version="1.1" id="Layer_1" xmlns="http://www.w3.org/2000/svg" xmlns:xlink="http://www.w3.org/1999/xlink" x="0px" y="0px"
	 viewBox="0 0 99.313 99.313" style="enable-background:new 0 0 99.313 99.313;" xml:space="preserve">
<path d="M89.847,65.371c0-0.162-0.032-0.316-0.08-0.462V45.252c0-0.829-0.672-1.5-1.5-1.5s-1.5,0.671-1.5,1.5v18.62H67.266
	l-8.702-14.91l17.207-9.352c5.242-2.842,7.733-8.429,5.552-12.458L74.487,14.59c-0.884-1.632-2.395-2.803-4.368-3.386
	c-2.79-0.825-6.107-0.36-9.086,1.269l-46.127,24.63c-0.454,0.243-0.869,0.737-0.906,1.25s0.062,0.906,0.389,1.483l2.222,4.245
	l-6.648,3.206c-0.359,0.173-0.634,0.481-0.765,0.857c-0.131,0.376-0.107,0.788,0.066,1.146l4.822,9.98
	c0.259,0.536,0.794,0.848,1.352,0.848c0.218,0,0.44-0.048,0.649-0.148l6.838-3.29c0.077-0.037,0.146-0.083,0.213-0.13l0.918,1.753
	c0.883,1.629,2.393,2.797,4.366,3.377c0.904,0.267,1.863,0.397,2.849,0.397c2.058,0,4.229-0.572,6.248-1.678l18.408-10.005
	l9.183,15.732c0.27,0.461,0.763,0.744,1.296,0.744h20.362v19.783c0,0.828,0.672,1.5,1.5,1.5s1.5-0.672,1.5-1.5v-20.82
	C89.814,65.687,89.847,65.534,89.847,65.371z M21.625,53.977l-5.488,2.641l-3.518-7.28l5.385-2.597l3.761,7.186
	C21.718,53.943,21.67,53.955,21.625,53.977z M36.081,57.766c-2.263,1.238-4.809,1.625-6.812,1.036
	c-0.831-0.244-1.951-0.777-2.564-1.907l-9.24-17.732L62.46,15.112c2.265-1.236,4.812-1.621,6.811-1.03
	c0.831,0.245,1.953,0.781,2.581,1.939l6.835,12.562c1.369,2.528-0.62,6.37-4.346,8.39L36.081,57.766z"/>
</svg>
