<?xml version="1.0" encoding="UTF-8" standalone="no"?> <svg xmlns="http://www.w3.org/2000/svg" xmlns:xlink="http://www.w3.org/1999/xlink" width="416px" height="285px" viewBox="0 0 416 285"> <!-- Generator: Sketch 49.1 (51147) - http://www.bohemiancoding.com/sketch --> <title>Artboard Copy 13</title> <desc>Created with Sketch.</desc> <defs> <polygon id="path-1" points="0 0 388 0 388 135 0 135"></polygon> </defs> <g id="Artboard-Copy-13" stroke="none" stroke-width="1" fill="none" fill-rule="evenodd"> <g id="Group" transform="translate(4.000000, 75.000000)"> <mask id="mask-2" fill="white"> <use xlink:href="#path-1"></use> </mask> <g id="Clip-2" transform="translate(194.000000, 67.500000) scale(-1, 1) translate(-194.000000, -67.500000) "></g> <path d="M379.486411,45.8581579 C380.660899,49.2077686 382.990644,58.6167409 378.824302,72.6122942 C374.026072,64.2555051 374.019203,46.2608283 374.019203,46.2608283 L379.486411,45.8581579 Z M347.900235,46.6372975 L325.698974,48.0411277 L303.493593,49.3691125 L292.391589,50.0310364 L286.841961,50.3716514 C284.999869,50.465424 283.227834,50.6915813 281.481899,51.157686 C277.990029,52.0402512 274.753661,53.8233087 272.061267,56.2434679 C269.35651,58.6567321 267.169627,61.6409057 265.387977,64.8388255 C261.78896,71.2705193 259.875438,78.4785947 258.004499,85.67288 C257.544319,87.4931707 256.857484,89.2996713 256.027787,90.9875772 C255.60607,91.8384252 255.143143,92.6768622 254.53186,93.4532437 C254.215916,93.837987 253.883487,94.2144562 253.371108,94.5054269 C253.277699,94.5495552 252.989686,94.6079332 252.50707,94.6805609 L240.696252,95.1342546 L230.781099,95.4500475 C230.411582,96.6015192 230.002228,97.7378219 229.537927,98.8548185 C229.730241,97.7281689 229.899203,96.5987612 230.054428,95.4734906 L230.10388,95.1177065 C230.562686,91.7101775 230.886872,88.3067855 231.180837,84.8964984 C231.211058,84.4979651 231.237158,84.0994317 231.267378,83.7022774 L217.099342,83.7022774 C217.096595,83.8718954 217.085606,84.7475655 217.082858,84.9171835 C217.048516,86.9305354 216.960602,88.9700884 216.722957,90.9944723 C216.602074,92.0108012 216.446849,93.0271302 216.18173,94.0489752 C216.044363,94.5605872 215.883644,95.0721992 215.621273,95.5907063 C215.488027,95.8499598 215.331428,96.1133504 215.074552,96.3726039 C214.809434,96.5877292 214.427553,96.9876415 213.658298,96.6911548 C198.795185,97.0565919 183.621622,97.3723848 168.445311,97.577857 L122.919128,98.2384019 L122.438343,97.9667373 C121.077036,95.5217559 120.25146,92.8602702 119.642924,90.1891315 C119.04263,87.5110978 118.678608,84.7958308 118.436842,82.0791849 C117.965673,76.6389979 117.982157,71.1836418 118.210186,65.7503498 C118.473931,60.3170579 118.967078,54.9016931 119.614077,49.5083923 C120.269318,44.1150916 121.057805,38.739718 122.042726,33.4015776 C121.171819,38.7604032 120.498721,44.1481878 119.958868,49.5456256 C119.427258,54.9458213 119.049499,60.3611862 118.90389,65.776551 C118.739049,71.1905368 118.791249,76.6196918 119.321485,81.9950654 C119.590725,84.6799941 119.984968,87.3525119 120.604494,89.9657322 C121.203414,92.4686319 122.012506,94.9301614 123.236446,97.1462274 L168.423333,96.2526302 C183.596896,95.9340793 198.771832,95.7313651 213.949516,95.4969337 C214.292934,95.364549 214.406948,95.197689 214.501732,95.0115229 C214.696793,94.6322957 214.845149,94.18136 214.967406,93.7221503 C215.214667,92.8009729 215.368518,91.8246351 215.489401,90.8469184 C215.728419,88.8790738 215.820455,86.8946812 215.863039,84.8909824 C215.865786,84.7475655 215.865786,84.6082857 215.869907,84.4662479 L215.886391,83.3395983 C215.94958,79.8438127 215.972933,76.3411321 215.985296,72.8412095 C216.030627,64.8029713 216.022385,56.761975 215.966064,48.7237367 C215.913865,40.6813615 215.797103,32.6445022 215.66523,24.6048849 C215.588305,20.5864553 215.493522,16.5666467 215.336923,12.5509751 C215.261371,10.5417602 215.170709,8.53530345 215.041584,6.52746764 C214.872623,4.5306639 214.835533,2.49800595 214.303923,0.556362534 C214.876744,2.48835289 214.959164,4.52238985 215.170709,6.51919359 C215.341044,8.52289237 215.475664,10.5293492 215.596547,12.537185 C215.836939,16.5528566 216.018264,20.5699072 216.18173,24.5883368 C216.516906,32.6265751 216.695483,40.6689504 216.850708,48.7113257 C217.000438,56.7523219 217.114453,64.7974552 217.155663,72.8412095 C217.15841,76.325963 217.146047,80.2133869 217.099342,83.7022774 L231.267378,83.7022774 C231.57096,79.715565 231.907509,74.8959316 232.120428,70.8981871 C232.693248,61.5540282 233.076502,52.1947001 233.922683,42.7843488 C234.542209,47.4757344 234.803206,52.1891841 234.907605,56.9026338 C235.025741,61.6188416 234.914473,66.3350493 234.667213,71.049878 C234.419952,74.9759141 234.062798,78.9033292 233.503714,82.8086801 L233.386952,83.5905777 C233.307279,84.1077058 233.242716,84.6262128 233.154802,85.1419619 C232.599839,88.4819195 231.903388,91.8260142 230.890993,95.0680622 L240.664657,94.4557826 L251.770782,93.835229 L252.812025,93.7759316 C253.243357,93.5456373 253.551059,93.2201914 253.809309,92.8823344 C254.339546,92.1886933 254.770878,91.3833526 255.162375,90.5642217 C255.938498,88.8956219 256.558024,87.199442 256.978367,85.4025944 C258.685839,78.191761 260.651561,70.8540589 264.287667,64.2237879 C266.102285,60.9265795 268.34961,57.8100212 271.182118,55.2547191 C273.996769,52.6952801 277.432319,50.7715638 281.13436,49.8131531 C282.973705,49.3249843 284.900964,49.0988269 286.762288,49.0133284 L292.314663,48.7044306 L303.423536,48.1059411 C310.827619,47.7239559 318.231702,47.2950843 325.64128,46.9737754 L347.863146,45.9560675 L370.096001,45.1010824 L347.900235,46.6372975 Z M336.604543,84.0484084 C336.013865,80.7760222 335.162189,77.5532802 334.195126,74.3719085 C333.712967,72.7915652 333.20883,71.1615777 332.663483,69.6543218 C332.092036,68.2063633 331.081015,66.970772 329.829601,66.0302885 C327.329521,64.1686275 324.042328,63.3026105 320.935085,63.0847272 L300.452287,64.7919392 L290.188222,65.6703674 L285.064431,66.1392301 C284.628978,66.1833584 284.207261,66.2095595 283.898185,66.2716149 C283.553394,66.3350493 283.212723,66.4357169 282.874801,66.5667226 C282.203076,66.8356292 281.547835,67.2217515 280.933804,67.6933723 C278.462571,69.6184676 276.597127,72.5033525 275.042132,75.4406398 C273.494006,78.4151603 272.252208,81.5786049 271.252176,84.8082419 C270.753533,86.4230604 270.320827,88.059943 269.962299,89.7064787 C269.59965,91.3226762 269.3675,93.0519524 268.963641,94.7895026 C268.573518,96.5173997 268.092734,98.2342648 267.412767,99.9221708 C267.072097,100.766124 266.680601,101.601803 266.192948,102.418175 C265.945687,102.826362 265.6737,103.229032 265.352261,103.623429 C265.187421,103.819248 265.017086,104.013688 264.815156,104.20537 C264.716252,104.301901 264.609106,104.397052 264.488223,104.492204 C264.342614,104.601145 264.294535,104.659064 263.977217,104.824545 L225.491095,105.559556 L187.483009,105.963605 C181.149015,106.014629 174.813647,106.101506 168.481027,106.226996 C162.148406,106.334558 155.813039,106.440742 149.483166,106.63794 C143.150545,106.819969 136.815178,106.960628 130.485304,107.20885 C127.32861,107.298485 124.147189,107.516368 120.920438,107.292969 C119.313243,107.182648 117.697807,106.988208 116.09336,106.578643 C115.291137,106.370413 114.490287,106.107022 113.708668,105.723658 C113.317172,105.530597 112.932545,105.307197 112.56028,105.023122 C112.373461,104.881084 112.192136,104.721119 112.020427,104.533574 C111.837729,104.315691 111.697615,104.20537 111.505301,103.751676 C109.623373,94.9274034 107.790896,86.1569118 105.848526,77.4843298 C104.847121,73.3307574 102.860793,69.3206018 99.4211228,66.9362968 C97.7301345,65.7489708 95.7424335,64.9698313 93.6970383,64.6940296 C93.1832856,64.6264582 92.6791486,64.586467 92.1805062,64.6043941 L90.5197388,64.6526594 L87.1913355,64.7698751 C78.3187986,65.1601344 69.4393933,65.6317551 60.6066928,66.5322474 C56.2549051,66.8963056 52.0143847,68.3552962 48.5609773,71.0609101 C45.1281751,73.7582499 42.4962227,77.5436272 41.0895842,81.7385698 C42.0332958,77.3285019 44.5622229,73.3528215 48.0170039,70.3920911 C49.7505759,68.9193105 51.7245402,67.7181944 53.8413662,66.8576934 C55.9540713,66.0013293 58.2192537,65.4855803 60.4528417,65.2249478 C69.3088946,64.078992 78.1992892,63.3260536 87.1089152,62.8944241 L90.4510553,62.7385961 L92.1255594,62.6724037 C92.7395901,62.6448236 93.3508734,62.6889518 93.940178,62.7606603 C96.307012,63.051631 98.5927995,63.9204061 100.566764,65.271834 C104.565518,68.0022701 106.888395,72.5254167 107.877438,76.998919 C109.756619,85.7459674 111.541016,94.4406135 113.087769,103.229032 C113.115243,103.270402 113.178432,103.373828 113.232005,103.423472 C113.326788,103.529656 113.440803,103.637219 113.565807,103.740644 C113.817188,103.946116 114.113901,104.133662 114.428472,104.299142 C115.061734,104.631483 115.7678,104.890737 116.490351,105.098967 C117.949189,105.515428 119.484952,105.74848 121.033079,105.897413 C124.127958,106.20769 127.290147,106.084958 130.461952,106.084958 C136.798693,106.069789 143.12994,105.934646 149.463934,105.842253 C155.800676,105.766407 162.130549,105.592652 168.463169,105.421655 C174.79579,105.271343 181.12841,105.078282 187.458283,104.849367 L225.447137,103.572405 L263.058232,102.516085 C263.243677,102.34233 263.357692,102.211324 263.466212,102.076181 C263.688746,101.80038 263.896171,101.487345 264.092606,101.155004 C264.482728,100.488943 264.820651,99.7566898 265.11599,98.9996143 C265.706668,97.4827054 266.151737,95.8665079 266.532244,94.2337623 C266.916872,92.6134278 267.150396,90.9213848 267.544639,89.1728026 C267.927893,87.4504214 268.385325,85.7528624 268.908694,84.0746096 C269.962299,80.7236199 271.259044,77.4443386 272.907448,74.3112322 C274.581953,71.2098429 276.517454,68.1250018 279.50244,65.7903411 C280.255211,65.2194317 281.09315,64.7188518 282.019004,64.3547936 C282.481931,64.1755226 282.969584,64.0348638 283.470973,63.9410912 C284.006705,63.8459396 284.442158,63.8238755 284.862502,63.7852633 L290.011018,63.4115521 L300.299809,62.715153 L320.876018,61.4119903 C322.756572,61.5650602 324.410471,61.9318764 326.062997,62.4889957 C327.696291,63.055768 329.289749,63.8335286 330.673035,64.9463881 C332.056321,66.0440786 333.199214,67.5223753 333.80775,69.2116602 C334.35035,70.8623329 334.785804,72.4426762 335.232247,74.0740428 C336.083922,77.3229859 336.798231,80.6146782 337.255663,83.9463618 C337.702106,87.2725294 337.919146,90.6676473 337.439735,94.004847 C337.537266,90.6593733 337.184232,87.3194157 336.604543,84.0484084 Z M282.163239,104.879705 C282.163239,94.513701 290.531639,86.1114046 300.856146,86.1114046 C311.182026,86.1114046 319.551799,94.513701 319.551799,104.879705 C319.551799,115.24433 311.182026,123.645247 300.856146,123.645247 C290.531639,123.645247 282.163239,115.24433 282.163239,104.879705 Z M55.9787973,104.879705 C55.9787973,94.513701 64.3471972,86.1114046 74.6717037,86.1114046 C84.9975839,86.1114046 93.3673574,94.513701 93.3673574,104.879705 C93.3673574,115.24433 84.9975839,123.645247 74.6717037,123.645247 C64.3471972,123.645247 55.9787973,115.24433 55.9787973,104.879705 Z M38.6389563,91.6481221 C38.2419655,93.6173457 37.8175014,95.6058754 37.6045825,97.5585509 L37.5867248,97.7392009 C37.5304043,98.0039705 37.5688671,97.8771017 37.5001835,98.0549938 C37.3188591,98.4066408 37.1375346,98.4907603 36.9850572,98.5886699 C36.6663656,98.773457 36.3875105,98.8396494 36.1114028,98.9017048 C35.5619346,99.0202995 35.0371926,99.0492586 34.5179452,99.0754598 C33.4780767,99.11683 32.460187,99.0795968 31.4422972,99.0258155 C29.4133861,98.9003258 27.40508,98.6617573 25.4036423,98.4080199 C21.4035142,97.8522796 17.4322331,97.1669126 13.4911728,96.3339917 C9.5473652,95.5121028 5.62004162,94.6198846 1.73942282,93.5249521 L7.72038361,94.3689051 L13.677992,95.2831875 C17.653394,95.8637499 21.6150594,96.5091257 25.5877141,97.0317698 C27.5685468,97.3089504 29.5548741,97.5488978 31.5357068,97.7157578 C32.5233758,97.8012563 33.5151658,97.8674487 34.4877244,97.8619326 C34.9698827,97.8577956 35.4534147,97.8302155 35.8929892,97.7654021 C36.1086555,97.7336849 36.3256954,97.6799036 36.4465784,97.6178482 C36.5193829,97.6013001 36.5372406,97.5213176 36.4905358,97.6605975 C36.4877885,97.7336849 36.5468563,97.4744314 36.5221302,97.6192272 L36.5509773,97.4234081 C37.3133644,93.3732613 38.5221943,89.5465138 39.8216865,85.7059762 L38.6389563,91.6481221 Z M72.7018604,47.1778686 C77.870982,46.2691023 83.046972,45.3920531 88.2655457,44.7949426 C93.4813721,44.2102432 98.7342876,43.7758556 103.983082,43.9440946 C101.371735,44.1578409 98.7672557,44.4033043 96.173766,44.7604674 C93.577529,45.0721233 90.989534,45.4389394 88.4084074,45.8540209 C83.2434068,46.6676356 78.0852746,47.5295157 72.9559894,48.5417077 C67.8019782,49.447716 62.6809351,50.5123103 57.5434079,51.5231232 L42.1308264,54.6010693 C47.1419759,53.0400321 52.2190615,51.7230794 57.3167523,50.4847301 C62.4130693,49.2463808 67.5560912,48.1969556 72.7018604,47.1778686 Z M155.685287,8.03058648 C154.069851,8.03058648 112.293788,40.2345628 106.524372,39.7725951 C104.592992,39.6181462 103.110801,39.2003067 101.983018,38.7162749 C111.562995,31.5344007 139.350973,11.2023051 153.128887,6.42955807 C155.479237,7.15629534 156.675704,8.03058648 155.685287,8.03058648 Z M209.458988,6.11928124 C209.458988,6.11928124 209.284532,28.015172 208.765284,35.1391279 C208.246037,42.2644628 207.034459,41.5680637 207.034459,41.5680637 L130.005894,43.6531239 C120.313275,43.6531239 129.486646,34.9653728 129.486646,34.9653728 C129.486646,34.9653728 144.546194,22.1061222 158.567248,12.374462 C172.588301,2.6428018 201.322738,3.85908695 205.303635,3.51157691 C209.284532,3.16544587 209.458988,6.11928124 209.458988,6.11928124 Z M378.866886,81.7096107 C378.866886,81.7096107 379.452069,78.8261047 380.105937,74.4711971 C384.419262,59.5020641 382.257104,49.6545672 380.926018,45.7519743 C381.03179,42.9484508 380.449354,40.43314 379.557842,38.3811759 L233.002324,39.7725951 C233.002324,39.7725951 232.539397,0.615659882 220.306863,0.15093415 C208.075702,-0.309654558 163.299542,0.152313158 154.528657,3.39711924 C153.472304,3.78737853 151.884341,4.5982353 149.925488,5.70557881 C135.632447,11.9745497 108.643946,31.932934 100.285161,38.2501702 C91.4909237,39.2003067 21.8568254,46.8731079 15.5887675,52.516009 C15.5887675,52.516009 10.7287217,58.7380936 10.5886073,70.5603301 C14.4225213,53.8412358 24.1632179,53.4275334 30.9944807,53.9060492 C38.4370267,54.4286933 38.9576478,59.2924549 35.3215423,63.4653334 C31.6868105,67.6340749 27.8776226,82.9258958 27.8776226,82.9258958 L13.6834867,82.9258958 C13.0323669,82.6804324 12.1147551,81.0132116 11.323521,79.3170316 C11.4334146,79.9582704 11.5254505,80.5843401 11.6641912,81.246264 C11.6641912,81.246264 2.89605327,83.7946709 1.04846663,88.1964648 C-0.797746348,92.5996377 0.356136762,98.1611774 0.356136762,98.1611774 C0.356136762,98.1611774 10.9718614,105.111378 13.2810013,105.111378 C15.5887675,105.111378 10.9718614,109.744846 13.9733311,110.439866 C16.9748009,111.136265 33.822868,114.148018 34.9753774,114.148018 C36.1292605,114.148018 36.3586635,103.719959 37.2831436,102.561592 C38.031794,101.625246 42.8547506,104.02472 44.6721165,104.973477 C44.7229423,121.564324 58.1327125,135 74.6703301,135 C89.380966,135 101.60938,124.370606 104.172649,110.348851 C106.970815,109.795869 113.738889,109.427674 115.293884,110.208192 C117.140097,111.136265 265.543201,108.586479 265.543201,108.586479 C265.543201,108.586479 268.165538,110.53088 271.767302,112.279462 C275.054495,125.335911 286.828224,135 300.854772,135 C317.426731,135 330.85848,121.513301 330.85848,104.879705 C330.85848,103.831659 330.804907,102.800161 330.703255,101.781074 C334.365461,99.3553984 338.707633,97.4661573 338.707633,97.4661573 L369.174268,93.7566255 C369.174268,93.7566255 373.559024,95.3797181 377.482226,95.6127704 C381.404055,95.8430648 384.405525,93.9896779 386.251738,91.4412709 C388.099324,88.8914849 389.021057,83.7946709 386.251738,82.6363041 C383.482418,81.4779373 378.866886,81.7096107 378.866886,81.7096107 Z" id="Fill-1" fill="#231F20" opacity="0.300000012" mask="url(#mask-2)" transform="translate(194.000000, 67.500000) scale(-1, 1) translate(-194.000000, -67.500000) "></path> </g> </g> </svg> 