<?xml version="1.0" encoding="UTF-8"?> <svg xmlns="http://www.w3.org/2000/svg" viewBox="0 0 100 100"> <defs> <style>.cls-1{fill:none;stroke:#000;stroke-miterlimit:10;stroke-width:3px;}</style> </defs> <title>6Artboard 34</title> <g id="Layer_7" data-name="Layer 7"> <path class="cls-1" d="M85,41.48a36.12,36.12,0,1,1-70.18-.1"></path> <path class="cls-1" d="M22,27.16A36.12,36.12,0,0,1,77.79,27"></path> <rect class="cls-1" x="13.09" y="27.16" width="73.81" height="13.25" rx="1.96"></rect> <line class="cls-1" x1="13.96" y1="46.87" x2="86.04" y2="46.87"></line> <line class="cls-1" x1="17.31" y1="65.51" x2="82.55" y2="65.51"></line> <path class="cls-1" d="M39.74,50.37h1.72a0,0,0,0,1,0,0v1.72A9.92,9.92,0,0,1,31.53,62H29.82a0,0,0,0,1,0,0V60.29A9.92,9.92,0,0,1,39.74,50.37Z" transform="translate(50.17 -8.74) rotate(45)"></path> <path class="cls-1" d="M68.21,50.37h1.72a0,0,0,0,1,0,0v1.72A9.92,9.92,0,0,1,60,62H58.29a0,0,0,0,1,0,0V60.29A9.92,9.92,0,0,1,68.21,50.37Z" transform="translate(58.51 -28.88) rotate(45)"></path> </g> </svg> 