<?xml version="1.0" encoding="UTF-8" standalone="no"?> <svg xmlns="http://www.w3.org/2000/svg" xmlns:xlink="http://www.w3.org/1999/xlink" width="416px" height="285px" viewBox="0 0 416 285"> <!-- Generator: Sketch 49.1 (51147) - http://www.bohemiancoding.com/sketch --> <title>Artboard Copy 12</title> <desc>Created with Sketch.</desc> <defs></defs> <g id="Artboard-Copy-12" stroke="none" stroke-width="1" fill="none" fill-rule="evenodd" opacity="0.300000012"> <path d="M282.292064,139.917993 C281.510999,139.893027 280.726368,139.876978 279.945303,139.855579 C279.863273,140.260377 279.793726,140.670525 279.695647,141.075324 C279.000179,143.951711 277.917744,146.715754 276.74793,149.424515 C274.358371,154.827772 271.690624,160.081236 269.327814,165.468443 C268.097369,168.134407 267.118363,170.910932 265.772007,173.585811 C264.434567,176.246425 262.817157,178.776861 260.916209,181.082608 C257.100047,185.667351 252.242466,189.490646 246.377346,191.370195 C246.350003,191.378517 230.963501,191.402888 200.217839,191.443308 C184.881862,191.439742 169.549452,191.2525 154.209909,191.029593 C146.541921,190.892283 138.873932,190.778155 131.202377,190.444686 C129.283597,190.355524 127.3666,190.257445 125.438903,190.102302 C124.497346,190.016706 123.486241,189.952509 122.485836,189.647572 C121.50683,189.353335 120.570622,188.895039 119.750326,188.294083 C118.106166,187.081471 116.904254,185.414129 116.012627,183.668325 C115.115651,181.910037 114.489729,180.05367 113.995768,178.179471 C112.101953,170.632744 112.019924,162.872027 112.02884,155.218304 C112.02349,153.299524 112.064505,151.386093 111.936111,149.481579 C111.862997,148.078159 111.925411,146.680088 112.053805,145.287368 C103.392545,145.874058 94.7348511,146.483931 86.0789405,147.141951 C73.0094784,148.069243 59.9507158,149.139194 46.8883868,150.21093 C59.9007847,148.64345 72.9452813,147.359508 85.9862113,146.070216 C94.7277181,145.257052 103.472791,144.508086 112.219648,143.782302 C112.731441,139.903727 113.599886,136.151762 114.69837,132.481827 C113.685482,136.176728 112.909767,139.942958 112.499619,143.744854 C116.720579,143.409602 120.943322,143.052952 125.164282,142.72305 C148.729972,140.898782 172.331327,139.543509 195.948731,138.552021 C195.948731,138.552021 197.491245,138.552021 197.491245,138.48604 C199.556252,138.400444 201.621259,138.298799 203.686267,138.218552 C216.793177,137.795921 229.901871,137.524867 243.019481,137.474936 C255.373858,137.453537 267.737152,137.558749 280.087963,138.127607 C280.398249,136.208826 280.515944,134.259731 280.318003,132.287453 C280.549826,134.229415 280.487412,136.192777 280.230623,138.132956 C280.938575,138.166838 281.651876,138.182887 282.359827,138.218552 C295.450689,138.741046 308.554032,139.506061 321.619928,140.592062 C328.150201,141.168053 334.673341,141.82964 341.183998,142.63567 C347.689305,143.438134 354.183913,144.392175 360.598275,145.731398 C347.666123,143.589711 334.602011,142.516192 321.539682,141.672714 C308.47022,140.806053 295.393624,140.231845 282.292064,139.917993 Z M323.774098,161.707562 C329.885306,160.844468 336.017914,160.487817 342.155871,160.238162 C348.297395,160.038438 354.437135,159.956408 360.598275,160.34694 C354.485283,161.17972 348.350892,161.543503 342.212935,161.794942 C336.074978,161.998233 329.931671,162.076696 323.774098,161.707562 Z M357.675523,169.211492 C357.675523,165.495192 358.069622,162.490411 358.554667,162.490411 C359.037928,162.490411 359.428461,165.495192 359.428461,169.211492 C359.428461,172.922441 359.037928,175.932573 358.554667,175.932573 C358.069622,175.932573 357.675523,172.922441 357.675523,169.211492 Z M330.220558,191.914087 C329.501907,190.450036 329.104241,188.882557 328.879551,187.26158 C328.720842,183.11195 327.759668,179.038999 325.942534,175.376198 C324.153931,171.69913 321.50045,168.507107 318.394023,165.912473 C315.271547,163.332106 311.581996,161.448991 307.667756,160.446802 C303.753515,159.442831 299.6342,159.334053 295.655763,159.99029 C291.679108,160.678625 287.85403,162.255021 284.535396,164.5786 C281.229245,166.912878 278.408139,169.942625 276.305683,173.430668 C274.203228,176.925845 272.919285,180.904282 272.478822,184.991498 C272.425324,185.501509 272.382526,186.015086 272.348644,186.532229 C272.330812,187.027973 272.305846,187.61823 272.189935,188.137157 C271.983078,189.194626 271.62286,190.227129 271.078968,191.156204 C270.536859,192.087062 269.800376,192.912709 268.88735,193.479783 C267.983241,194.053991 266.938255,194.346444 265.900401,194.444523 C267.986807,194.119971 269.778977,192.757566 270.649204,190.922598 C271.102151,190.018489 271.380338,189.028783 271.505166,188.028378 C271.640693,187.061855 271.492683,185.981204 271.585412,184.921951 C271.794053,180.679592 273.017364,176.481814 275.059189,172.71915 C279.089341,165.117142 286.82331,159.651472 295.318728,158.094692 C303.821279,156.455882 312.962234,158.995234 319.496074,164.592866 C326.076278,170.153049 329.903139,178.751896 329.578587,187.222348 C329.689148,188.750596 329.978035,190.319859 330.571859,191.751811 C330.875012,192.461546 331.265544,193.148098 331.816569,193.699123 C332.353329,194.257282 333.104078,194.601449 333.904759,194.638898 C333.111211,194.670996 332.290915,194.389242 331.673909,193.852483 C331.04977,193.328207 330.578992,192.636304 330.220558,191.914087 Z M285.580383,187.234831 C285.580383,178.948054 292.296114,172.230539 300.582891,172.230539 C308.871452,172.230539 315.587183,178.948054 315.587183,187.234831 C315.587183,195.519825 308.871452,202.237339 300.582891,202.237339 C292.296114,202.237339 285.580383,195.519825 285.580383,187.234831 Z M111.254908,191.912304 C110.539823,190.450036 110.135025,188.882557 109.915685,187.26158 C109.776591,183.532797 108.979477,179.871779 107.508293,176.51213 C106.038893,173.147131 103.893639,170.106685 101.275823,167.574465 C96.107956,162.431563 88.8732981,159.492762 81.6190244,159.580141 C74.366534,159.514161 67.1354426,162.43513 61.9675751,167.581598 C59.3818581,170.137 57.2169888,173.156047 55.7547212,176.522829 C54.2692714,179.878912 53.5096056,183.53993 53.3651621,187.234831 L53.3473295,187.356092 C52.9888957,188.260201 52.5163336,189.043049 51.9492591,189.788449 C51.3804014,190.521366 50.7134647,191.184736 49.9341831,191.698313 C49.1673842,192.21724 48.29894,192.586373 47.3948307,192.752216 C46.4925046,192.919842 45.5687795,192.903792 44.6825027,192.755782 C46.4800218,192.914492 48.3042897,192.438363 49.6863109,191.348796 C51.054066,190.291327 52.0437715,188.747029 52.5858805,187.158151 C52.3451413,179.570409 55.3677553,171.875672 60.7603127,166.377902 C66.1671362,160.855167 73.8476073,157.588248 81.6190244,157.604297 C89.386875,157.61143 97.0619964,160.860517 102.467037,166.385035 C107.836412,171.91847 110.908957,179.611424 110.60937,187.218781 C110.716365,188.750596 111.008819,190.319859 111.604426,191.751811 C111.909362,192.461546 112.301677,193.149881 112.847353,193.699123 C113.387679,194.257282 114.140211,194.601449 114.939109,194.638898 C114.143778,194.670996 113.327048,194.389242 112.710042,193.852483 C112.082337,193.326423 111.613342,192.636304 111.254908,191.912304 Z M66.3739935,187.234831 C66.3739935,178.948054 73.091508,172.230539 81.3782852,172.230539 C89.6650625,172.230539 96.3807937,178.948054 96.3807937,187.234831 C96.3807937,195.519825 89.6650625,202.237339 81.3782852,202.237339 C73.091508,202.237339 66.3739935,195.519825 66.3739935,187.234831 Z M31.7699669,176.043134 C30.4681921,176.315972 29.2288312,176.390869 27.9502387,176.426534 C25.423369,176.442583 22.9214649,176.14478 20.4748416,175.649035 C18.0407011,175.110493 15.644009,174.402541 13.3739277,173.400353 C15.7652702,174.045891 18.1815781,174.532719 20.6139354,174.832305 C23.0409429,175.158641 25.4893494,175.288818 27.9003076,175.112276 C30.2506352,174.9607 32.863101,174.662896 34.2290729,173.090067 C35.5130152,171.654548 35.2437439,169.270339 34.4787283,167.33016 C30.7838279,167.216031 27.0889274,167.062672 23.3975935,166.836198 C19.5350673,166.631124 15.6743243,166.370769 11.8153645,165.996286 C15.6850238,165.817961 19.5564663,165.750197 23.4243423,165.737714 C27.2922183,165.6967 31.158311,165.730581 35.0226205,165.812611 L35.5005324,165.823311 L35.6913405,166.237025 C36.2691145,167.488869 36.6239818,168.740713 36.688179,170.122734 C36.7452431,171.478006 36.3743264,173.000904 35.3757047,174.099388 C34.398482,175.205005 33.0521259,175.76138 31.7699669,176.043134 Z M52.7356737,140.470801 C44.5523252,143.782302 37.3408496,156.058217 33.2482837,159.956408 C29.1592843,163.852816 18.4419331,159.762033 18.4419331,159.762033 C18.4419331,159.762033 14.5437418,159.17356 21.9478087,149.435215 C29.3518756,139.691519 60.9208055,137.1593 52.7356737,140.470801 Z M142.950449,90.0029547 C141.780635,90.7822363 103.005579,104.422339 81.5744431,124.49107 C81.5744431,124.49107 74.1953417,127.328226 73.7620112,118.536788 C73.6603658,118.529655 73.5301883,118.526088 73.4107103,118.518955 C84.0638644,111.30748 118.999576,88.7172292 143.680203,84.9385159 C143.688716,87.1871981 143.553188,89.603506 142.950449,90.0029547 Z M114.298921,128.226985 C96.5840845,127.699142 83.9105047,127.22123 83.9105047,127.22123 C83.9105047,127.22123 116.636766,103.318506 141.621925,95.2528519 L114.298921,128.226985 Z M146.855773,93.7816681 C147.576207,93.612259 148.293075,93.4517663 148.990327,93.316239 C159.021126,91.3885424 177.094396,90.3453393 196.842141,89.8513782 L193.899773,129.582258 C171.682223,129.712435 141.391886,129.0134 118.218511,128.342897 L146.855773,93.7816681 Z M259.856956,128.464158 C240.79933,128.87074 220.668186,129.259489 204.804366,129.466346 L205.794072,89.6641366 C224.919461,89.3413678 244.702871,89.4661955 259.691114,89.751516 L259.856956,128.464158 Z M278.894967,128.041527 C273.780597,128.161005 268.420138,128.2787 262.952684,128.398178 L262.785058,89.8121466 C268.158,89.9262748 272.808724,90.0618021 276.421595,90.1991126 C276.421595,90.1991126 277.090315,90.2347776 278.23338,90.3114575 L278.894967,128.041527 Z M321.43447,127.025073 C321.43447,127.025073 304.413319,127.458403 281.987128,127.97198 L281.329107,90.5379307 C294.573328,91.5864835 330.01905,95.2653347 329.227286,104.616714 C328.255413,116.113347 321.43447,127.025073 321.43447,127.025073 Z M244.731403,83.5029971 C260.912642,83.8881798 277.086748,84.6032643 293.225189,85.8194429 C301.292626,86.4346653 309.354713,87.1426167 317.406101,87.9468639 C325.450356,88.8063919 333.487477,89.6998017 341.504983,90.7822363 C325.395075,89.2914367 309.279816,87.9789624 293.144942,87.0160058 C277.010068,86.0494826 260.859145,85.3183488 244.699305,85.0597771 C228.543032,84.6763777 212.377842,84.7637571 196.226919,85.1899546 C188.146999,85.3914622 180.068862,85.7267138 172.003208,86.1974926 C163.930422,86.6308231 155.866551,87.2157301 147.822296,88.0574256 C163.844826,85.7819946 180.018931,84.7120427 196.184121,83.995175 C212.35466,83.3139723 228.546598,83.2479919 244.731403,83.5029971 Z M362.741745,156.644907 C362.741745,156.644907 364.496466,142.810429 358.84712,134.042174 C358.84712,134.042174 358.797189,133.403769 358.686627,132.301719 C354.444268,132.959739 343.839262,132.676202 343.839262,132.676202 C343.839262,132.676202 342.673014,86.1083299 348.907267,97.2144303 C352.11534,102.927973 355.013126,111.938751 357.069217,119.348168 C355.697895,110.321341 353.450996,99.2758709 350.078864,92.7331152 C350.078864,92.7331152 347.350487,85.7177975 347.154329,84.5462002 C346.959955,83.3799527 292.401326,78.3511789 233.361382,78.7006965 C201.287791,78.8915046 155.732807,80.7460878 144.487613,83.0429178 C116.993416,86.6985867 76.345945,114.305128 70.0350122,118.690148 C64.9634403,119.348168 55.4622677,122.067629 40.6541339,131.89692 C16.8815866,147.67871 10.2568013,154.694028 10.2568013,164.826472 C10.2568013,174.958916 10.8417083,175.153291 12.205897,175.932573 C13.5700856,176.711854 12.4020548,181.974234 12.4020548,181.974234 C12.4020548,181.974234 10.4529591,184.117704 12.4020548,186.844298 C12.4020548,186.844298 12.5964294,190.74249 25.4554676,192.88596 C35.1831133,194.505154 50.6974154,194.902819 57.6859844,194.995548 C60.9511208,204.9675 70.3149829,212.175409 81.3782852,212.175409 C91.4714979,212.175409 100.147024,206.167629 104.071964,197.543817 L110.996336,197.952182 L272.52697,197.952182 L278.012256,197.788123 C281.987128,206.279974 290.587757,212.175409 300.582891,212.175409 C311.111217,212.175409 320.09703,205.645136 323.758048,196.420368 L331.174598,196.197461 C331.174598,196.197461 362.54737,198.146557 363.911559,184.117704 C365.275747,170.087069 362.156838,170.671976 362.156838,170.671976 L362.741745,156.644907 Z M197.245156,140.670525 C197.079314,142.122093 196.911688,143.577228 196.752978,145.030579 C196.241185,150.034388 195.861352,155.050679 195.663411,160.074103 C195.442287,165.09931 195.337075,170.129867 195.543933,175.153291 C195.729391,180.094685 196.153805,185.03073 197.077531,189.911494 L200.223189,189.931109 L246.122341,190.095169 C251.522031,188.433177 256.392096,184.786424 260.106612,180.406755 C261.984377,178.190171 263.594655,175.741764 264.939228,173.156047 C266.283801,170.582813 267.310954,167.799155 268.582414,165.131408 C271.032604,159.758467 273.867976,154.576333 276.360964,149.249756 C277.762601,146.250324 279.019794,143.099316 279.752711,139.850229 C254.435867,139.101263 229.085141,139.486445 203.761163,140.424437 C201.589161,140.4922 199.417159,140.592062 197.245156,140.670525 Z M195.709775,140.72759 C172.222549,141.583551 148.749588,142.920991 125.281977,144.410007 C120.970071,144.681062 116.658165,144.978865 112.346259,145.269535 C112.130485,148.563204 112.603047,151.878271 112.574515,155.211171 C112.651195,159.043382 112.786722,162.86846 113.098792,166.675706 C113.42156,170.475818 113.920871,174.274147 114.921276,177.929816 C115.932381,181.515938 117.442796,185.234021 120.395863,187.391757 C121.130564,187.91425 121.947294,188.29765 122.806822,188.540172 C123.648517,188.795177 124.568676,188.845108 125.531632,188.916438 C127.425447,189.046616 129.340661,189.11438 131.250525,189.182143 C138.902464,189.412183 146.568669,189.540577 154.231308,189.62974 L197.059698,189.911494 C195.773973,185.114543 195.08742,180.160666 194.691538,175.203222 C194.324188,170.156616 194.213626,165.08861 194.331321,160.029521 C194.538178,153.579495 194.996474,147.140168 195.709775,140.72759 Z" id="Fill-1" fill="#231F20" transform="translate(187.256801, 145.429369) scale(-1, 1) translate(-187.256801, -145.429369) "></path> </g> </svg> 