<?xml version="1.0" encoding="UTF-8"?> <svg xmlns="http://www.w3.org/2000/svg" viewBox="0 0 100 100"> <defs> <style>.cls-1{fill:none;stroke:#000;stroke-linecap:round;stroke-linejoin:round;stroke-width:3px;}</style> </defs> <title>6Artboard 34 copy</title> <g id="Layer_7" data-name="Layer 7"> <path class="cls-1" d="M44.37,92.54C26.16,92.27,8.58,75.83,14,51.74S40.91,15.06,40.91,15.06,25.73,51.92,43.3,51.31C55.67,50.87,51.77,27,51.77,27S75.42,43.49,70.19,68.84C66.63,86.05,53.5,92.68,44.37,92.54Z"></path> <path class="cls-1" d="M33.1,82.94s-17.45-9.42-7.72-35.85c0,0,.46,19.13,18.13,17.92,7.91-.54,12.44-7.46,14-11.21,0,0,3.86,10.54-1.86,18.64"></path> <path class="cls-1" d="M87,23.41a9.65,9.65,0,0,1-19.3,0c0-5.32,9.65-19.29,9.65-19.29S87,18.09,87,23.41Z"></path> </g> </svg> 