<?xml version="1.0" encoding="UTF-8"?> <svg xmlns="http://www.w3.org/2000/svg" xmlns:xlink="http://www.w3.org/1999/xlink" viewBox="0 0 1578.73 587.22"> <defs> <style>.cls-1,.cls-18,.cls-23,.cls-25,.cls-27,.cls-28,.cls-29,.cls-34,.cls-8{fill:none;}.cls-2{fill:#eaeaea;}.cls-3{fill:url(#linear-gradient);}.cls-4{fill:url(#linear-gradient-2);}.cls-5{fill:#e0e0e0;}.cls-5,.cls-6,.cls-9{opacity:0.5;}.cls-6{fill:#ccc;}.cls-7{fill:#262626;}.cls-8{stroke:#262626;}.cls-21,.cls-22,.cls-23,.cls-24,.cls-25,.cls-27,.cls-28,.cls-29,.cls-34,.cls-8{stroke-linecap:round;stroke-linejoin:round;}.cls-21,.cls-23,.cls-24,.cls-25,.cls-27,.cls-28,.cls-29,.cls-8{stroke-width:2px;}.cls-12,.cls-9{fill:#fff;}.cls-10{clip-path:url(#clip-path);}.cls-11{fill:#efefef;}.cls-13{fill:#009975;}.cls-14{fill:#8e8e8e;}.cls-15{fill:#0f0f0f;}.cls-16{fill:#1c1c1c;}.cls-17{fill:#0c0c0c;}.cls-18{stroke:#bcbcbc;stroke-miterlimit:10;}.cls-19{fill:url(#linear-gradient-3);}.cls-20{fill:url(#linear-gradient-4);}.cls-21{fill:#b6c7d3;stroke:#9ba6aa;}.cls-22,.cls-23,.cls-24,.cls-34{stroke:#000;}.cls-25,.cls-27,.cls-28{stroke:#fff;}.cls-25{opacity:0.7;}.cls-26{fill:url(#linear-gradient-5);}.cls-27{opacity:0.2;}.cls-29{stroke:#ce2200;}.cls-30{fill:#e2e2e2;}.cls-31{fill:url(#radial-gradient);}.cls-32,.cls-33{opacity:0.6;}.cls-32{fill:url(#linear-gradient-6);}.cls-33{fill:url(#linear-gradient-7);}</style> <linearGradient id="linear-gradient" x1="432.6" y1="337.57" x2="506.42" y2="337.57" gradientUnits="userSpaceOnUse"> <stop offset="0" stop-opacity="0.2"></stop> <stop offset="1" stop-color="#eaeaea" stop-opacity="0"></stop> </linearGradient> <linearGradient id="linear-gradient-2" x1="1038.65" y1="337.29" x2="1107.88" y2="337.29" gradientUnits="userSpaceOnUse"> <stop offset="0" stop-color="#eaeaea" stop-opacity="0"></stop> <stop offset="1" stop-opacity="0.2"></stop> </linearGradient> <clipPath id="clip-path"> <rect class="cls-1" x="1155.25" y="78.92" width="370.7" height="579.62"></rect> </clipPath> <linearGradient id="linear-gradient-3" x1="297.16" y1="379.03" x2="347.14" y2="379.03" xlink:href="#linear-gradient-2"></linearGradient> <linearGradient id="linear-gradient-4" x1="28.96" y1="379.04" x2="78.93" y2="379.04" xlink:href="#linear-gradient"></linearGradient> <linearGradient id="linear-gradient-5" x1="329.64" y1="370.17" x2="465.79" y2="370.17" gradientUnits="userSpaceOnUse"> <stop offset="0" stop-opacity="0"></stop> <stop offset="1" stop-opacity="0.5"></stop> </linearGradient> <radialGradient id="radial-gradient" cx="1091.28" cy="273.3" r="110.67" gradientUnits="userSpaceOnUse"> <stop offset="0" stop-color="#fff"></stop> <stop offset="1" stop-color="#fff" stop-opacity="0"></stop> </radialGradient> <linearGradient id="linear-gradient-6" x1="1455.28" y1="336.29" x2="1474.85" y2="336.29" xlink:href="#linear-gradient"></linearGradient> <linearGradient id="linear-gradient-7" x1="1546" y1="336.24" x2="1566.11" y2="336.24" xlink:href="#linear-gradient-2"></linearGradient> </defs> <title>6Artboard 38 copy</title> <g id="Layer_1" data-name="Layer 1"> <path class="cls-2" d="M973.77,15.24,990.63,25.6a30.3,30.3,0,0,0,10,3.9l92.59,17.76a18,18,0,0,1,14.61,17.67V613.44a18,18,0,0,1-15.83,17.87L1001,642.39a30,30,0,0,0-10.72,3.43l-17.1,9.31a35.09,35.09,0,0,1-16.74,4.26H584a35,35,0,0,1-16.73-4.26l-17.11-9.31a30,30,0,0,0-10.71-3.43l-91.07-11.08a18,18,0,0,1-15.82-17.87V64.93a18,18,0,0,1,14.61-17.67L539.79,29.5a30.3,30.3,0,0,0,10.05-3.9L566.7,15.24A35,35,0,0,1,585,10.06H955.45A35,35,0,0,1,973.77,15.24Z"></path> <path class="cls-3" d="M506.42,638.37l-58-7.06a18,18,0,0,1-15.82-17.87V64.93a18,18,0,0,1,14.61-17.67l54.62-10.48Z"></path> <path class="cls-4" d="M1038.65,637.81l53.4-6.5a18,18,0,0,0,15.83-17.87V64.93a18,18,0,0,0-14.61-17.67l-54.62-10.48Z"></path> <path class="cls-5" d="M549.84,25.6V645.82l16.81,8.9a6,6,0,0,0,8.81-5.3V20.59a6,6,0,0,0-9.14-5.11Z"></path> <path class="cls-6" d="M990.28,25.6V645.82l-16.8,8.9a6,6,0,0,1-8.81-5.3V20.59a6,6,0,0,1,9.14-5.11Z"></path> <path class="cls-7" d="M684.9,323.33a4.13,4.13,0,0,0-4.08-2.64c-2.48,0-3.76,1.48-3.76,3.2,0,.8.28,2.2,2.88,3.24l2.68,1.08c4.92,2,6.28,4.8,6.28,7.84a8.21,8.21,0,0,1-8.6,8.55,7.83,7.83,0,0,1-6.28-2.67,8.64,8.64,0,0,1-2.24-5.2l4-.88a5.76,5.76,0,0,0,1.12,3.4,4.21,4.21,0,0,0,3.48,1.6,4.29,4.29,0,0,0,4.4-4.48c0-2.72-2.08-3.84-3.84-4.56l-2.56-1.08c-2.2-.92-5.44-2.76-5.44-6.76,0-3.6,2.8-7,7.8-7a7.87,7.87,0,0,1,5.36,1.8,9.09,9.09,0,0,1,2,2.68Z"></path> <path class="cls-7" d="M697.22,327.25v9.64a4.85,4.85,0,0,0,.72,3,3.4,3.4,0,0,0,5.12,0,4.85,4.85,0,0,0,.72-3v-9.64h3.92V337c0,2.16-.24,4-1.8,5.52a7.67,7.67,0,0,1-5.48,2.07,7.39,7.39,0,0,1-5.32-2.07c-1.56-1.56-1.8-3.36-1.8-5.52v-9.76Z"></path> <path class="cls-7" d="M716.58,353.24h-3.92v-26h3.92v1.84a6.33,6.33,0,0,1,5-2.28c4.44,0,8.2,3.4,8.2,8.76,0,5.68-4.16,9-8.16,9a6.67,6.67,0,0,1-5-2.47Zm-.24-17.47c0,3.52,2.28,5.32,4.76,5.32,2.84,0,4.68-2.44,4.68-5.36s-1.84-5.4-4.68-5.4C718.62,330.33,716.34,332.09,716.34,335.77Z"></path> <path class="cls-7" d="M748.94,340.25a8.92,8.92,0,0,1-2.84,3.08,9.26,9.26,0,0,1-5,1.27,7.46,7.46,0,0,1-5.68-2.15A9,9,0,0,1,733,336a9.87,9.87,0,0,1,2.68-6.92,7.67,7.67,0,0,1,5.64-2.28,7.25,7.25,0,0,1,5.4,2.2c2.16,2.24,2.36,5.36,2.36,7.12v.48H737a5.57,5.57,0,0,0,1.44,3.4,4,4,0,0,0,3,1.08,4.13,4.13,0,0,0,2.68-.84,6.08,6.08,0,0,0,1.56-1.84Zm-3.88-6.84a4.07,4.07,0,0,0-1.2-2.28,4.09,4.09,0,0,0-5.4.12,4.41,4.41,0,0,0-1.2,2.16Z"></path> <path class="cls-7" d="M753.14,327.25h3.92v1.52a6.78,6.78,0,0,1,1.64-1.4,4.53,4.53,0,0,1,2.4-.56,5.82,5.82,0,0,1,3.08.8l-1.6,3.56a3.55,3.55,0,0,0-2-.6,3.05,3.05,0,0,0-2.44.92,5.43,5.43,0,0,0-1.08,3.88v8.72h-3.92Z"></path> <path class="cls-7" d="M788,323.33a4.13,4.13,0,0,0-4.08-2.64c-2.48,0-3.76,1.48-3.76,3.2,0,.8.28,2.2,2.88,3.24l2.68,1.08c4.92,2,6.28,4.8,6.28,7.84a8.21,8.21,0,0,1-8.6,8.55,7.83,7.83,0,0,1-6.28-2.67,8.64,8.64,0,0,1-2.24-5.2l4-.88a5.76,5.76,0,0,0,1.12,3.4,4.21,4.21,0,0,0,3.48,1.6,4.29,4.29,0,0,0,4.4-4.48c0-2.72-2.08-3.84-3.84-4.56l-2.56-1.08c-2.2-.92-5.44-2.76-5.44-6.76,0-3.6,2.8-7,7.8-7a7.87,7.87,0,0,1,5.36,1.8,9.09,9.09,0,0,1,2,2.68Z"></path> <path class="cls-7" d="M808.7,327.25h3.91v16.84H808.7v-1.76a6.48,6.48,0,0,1-5,2.27c-5.2,0-8.16-4.31-8.16-9,0-5.48,3.76-8.84,8.2-8.84a6.14,6.14,0,0,1,5,2.4Zm-9.2,8.48c0,2.92,1.84,5.36,4.68,5.36,2.48,0,4.76-1.8,4.76-5.32,0-3.68-2.28-5.44-4.76-5.44C801.34,330.33,799.5,332.73,799.5,335.73Z"></path> <path class="cls-7" d="M821.9,330.85v13.24H818V330.85H816.3v-3.6H818v-5.84c0-2.6.68-4.24,1.64-5.28a5.28,5.28,0,0,1,4-1.64,6.27,6.27,0,0,1,2.52.48v3.88a3.38,3.38,0,0,0-1.88-.6,2.28,2.28,0,0,0-1.72.64,2.78,2.78,0,0,0-.64,2v6.36h4.24v3.6Z"></path> <path class="cls-7" d="M843.45,340.25a8.92,8.92,0,0,1-2.84,3.08,9.25,9.25,0,0,1-5,1.27,7.46,7.46,0,0,1-5.68-2.15A9,9,0,0,1,827.5,336a9.87,9.87,0,0,1,2.68-6.92,7.66,7.66,0,0,1,5.63-2.28,7.25,7.25,0,0,1,5.4,2.2c2.16,2.24,2.36,5.36,2.36,7.12v.48H831.5a5.57,5.57,0,0,0,1.44,3.4,4,4,0,0,0,3,1.08,4.1,4.1,0,0,0,2.67-.84,6.08,6.08,0,0,0,1.56-1.84Zm-3.88-6.84a4,4,0,0,0-1.2-2.28,4.07,4.07,0,0,0-5.39.12,4.41,4.41,0,0,0-1.2,2.16Z"></path> <path class="cls-7" d="M847.66,327.25h3.92v1.52a6.78,6.78,0,0,1,1.64-1.4,4.53,4.53,0,0,1,2.4-.56,5.78,5.78,0,0,1,3.07.8l-1.59,3.56a3.55,3.55,0,0,0-2-.6,3.05,3.05,0,0,0-2.44.92,5.43,5.43,0,0,0-1.08,3.88v8.72h-3.92Z"></path> <path class="cls-8" d="M741.7,316.81a29.25,29.25,0,0,1,57.07-1"></path> <ellipse class="cls-9" cx="952.14" cy="195.07" rx="2.86" ry="5.6"></ellipse> <g class="cls-10"> <path class="cls-11" d="M1427.79,79.45H1251.33a47,47,0,0,0-47,47V600.86a47,47,0,0,0,47,47h176.46a47,47,0,0,0,47-47V126.48A47,47,0,0,0,1427.79,79.45Z"></path> <path class="cls-12" d="M1467.86,126.67H1212.28V165h255.58Z"></path> <path d="M1304.83,146.55l-3.94-6.83H1303l2.77,4.81,2.77-4.81h2.09l-3.94,6.83v5.18h-1.84Z"></path> <path d="M1318.53,147.91a4.06,4.06,0,0,1-.66,2.27,4,4,0,0,1-1.8,1.51,4.11,4.11,0,0,1-2.35.25,4,4,0,0,1-2.08-1.1,4.05,4.05,0,0,1,2.84-6.93,4,4,0,0,1,1.56.28,3.81,3.81,0,0,1,1.32.86,3.88,3.88,0,0,1,.88,1.31A3.92,3.92,0,0,1,1318.53,147.91Zm-1.8,0a2.22,2.22,0,0,0-.45-1.21,2.33,2.33,0,0,0-1-.77,2.3,2.3,0,0,0-1.3-.06,2.21,2.21,0,0,0-1.11.65,2.17,2.17,0,0,0-.58,1.16,2.29,2.29,0,0,0,.16,1.29,2.26,2.26,0,0,0,2.07,1.35,2.14,2.14,0,0,0,.9-.16,2.27,2.27,0,0,0,.75-.51,2.17,2.17,0,0,0,.48-.78,2.09,2.09,0,0,0,.12-.9Z"></path> <path d="M1322.13,144.15v4.34a2.27,2.27,0,0,0,.32,1.42,1.52,1.52,0,0,0,.52.39,1.56,1.56,0,0,0,.64.13,1.51,1.51,0,0,0,.63-.13,1.43,1.43,0,0,0,.52-.39,2.2,2.2,0,0,0,.32-1.37v-4.39h1.77v4.39a3.2,3.2,0,0,1-.13,1.34A3.13,3.13,0,0,1,1326,151a3.43,3.43,0,0,1-2.47.94,3.35,3.35,0,0,1-1.29-.23,3.3,3.3,0,0,1-1.1-.71,3.14,3.14,0,0,1-.82-2.49v-4.39Z"></path> <path d="M1329.08,144.15h1.76v.69a3,3,0,0,1,.74-.63,2.16,2.16,0,0,1,1.08-.26,2.8,2.8,0,0,1,1.39.36l-.72,1.6a1.59,1.59,0,0,0-.9-.27,1.32,1.32,0,0,0-.59.08,1.45,1.45,0,0,0-.51.33,2.45,2.45,0,0,0-.49,1.75v3.92h-1.76Z"></path> <path d="M1339.25,138.61H1341v6.19a2.86,2.86,0,0,1,.91-.63A3,3,0,0,1,1343,144a2.67,2.67,0,0,1,1.25.22,2.71,2.71,0,0,1,1,.78,3.64,3.64,0,0,1,.48,2.11v4.64H1344v-4.45a1.84,1.84,0,0,0-.34-1.32,1.24,1.24,0,0,0-.46-.29,1.4,1.4,0,0,0-.54-.1,1.61,1.61,0,0,0-.72.16,1.57,1.57,0,0,0-.58.47,3.43,3.43,0,0,0-.36,1.91v3.65h-1.72Z"></path> <path d="M1355.5,147.91a4.06,4.06,0,0,1-.66,2.27,4,4,0,0,1-1.8,1.51,4.11,4.11,0,0,1-2.35.25,4,4,0,0,1-2.08-1.1,4.05,4.05,0,0,1,2.84-6.93,4,4,0,0,1,1.56.28,3.81,3.81,0,0,1,1.32.86,3.88,3.88,0,0,1,.88,1.31,3.92,3.92,0,0,1,.29,1.55Zm-1.8,0a2.22,2.22,0,0,0-.45-1.21,2.33,2.33,0,0,0-1-.77,2.3,2.3,0,0,0-1.3-.06,2.21,2.21,0,0,0-1.11.65,2.17,2.17,0,0,0-.58,1.16,2.29,2.29,0,0,0,.16,1.29,2.26,2.26,0,0,0,2.07,1.35,2.14,2.14,0,0,0,.9-.16,2.27,2.27,0,0,0,.75-.51,2.17,2.17,0,0,0,.48-.78,2.09,2.09,0,0,0,.12-.9Z"></path> <path d="M1357.34,144.16h1.76v.7a2.33,2.33,0,0,1,1.87-.9,2.15,2.15,0,0,1,1.16.28,2.26,2.26,0,0,1,.84.84,2.67,2.67,0,0,1,1-.86,2.62,2.62,0,0,1,1.25-.3,2.42,2.42,0,0,1,1.24.3,2.38,2.38,0,0,1,.92.89,3.71,3.71,0,0,1,.39,1.91v4.68H1366v-4.14a3.61,3.61,0,0,0-.16-1.35,1,1,0,0,0-.39-.5.94.94,0,0,0-.61-.16,1.23,1.23,0,0,0-.59.15,1.39,1.39,0,0,0-.46.41,3.17,3.17,0,0,0-.34,1.72v3.91h-1.76v-4.18a3.25,3.25,0,0,0-.17-1.35,1,1,0,0,0-.39-.5.94.94,0,0,0-.61-.16,1.23,1.23,0,0,0-.59.15,1.39,1.39,0,0,0-.46.41,3.17,3.17,0,0,0-.34,1.72v3.91h-1.76Z"></path> <path d="M1376.76,150a3.79,3.79,0,0,1-1.28,1.39,4,4,0,0,1-2.23.58,3.26,3.26,0,0,1-1.38-.22,3.47,3.47,0,0,1-1.18-.78,4,4,0,0,1-1.11-2.9,4.43,4.43,0,0,1,1.2-3.11,3.47,3.47,0,0,1,1.17-.76,3.57,3.57,0,0,1,1.37-.24,3.33,3.33,0,0,1,1.32.25,3.25,3.25,0,0,1,1.11.75,4.59,4.59,0,0,1,1.06,3.21v.21h-5.43a2.44,2.44,0,0,0,.65,1.54,1.77,1.77,0,0,0,.63.38,1.62,1.62,0,0,0,.72.1,1.8,1.8,0,0,0,1.2-.38,2.51,2.51,0,0,0,.7-.82Zm-1.75-3.09a1.8,1.8,0,0,0-.54-1,1.69,1.69,0,0,0-1.18-.43,1.89,1.89,0,0,0-.67.12,1.66,1.66,0,0,0-.58.36,2.18,2.18,0,0,0-.54,1Z"></path> <path class="cls-13" d="M1446.33,143.34h-2.22a5.53,5.53,0,0,0-.64-1.11l1.08-1.94a.27.27,0,0,0,0-.19.24.24,0,0,0-.11-.16l-1.9-1.46a.24.24,0,0,0-.18-.07.26.26,0,0,0-.18.07l-1.6,1.54a5.3,5.3,0,0,0-1.24-.34l-.61-2.13a.24.24,0,0,0-.3-.19l-2.37.3a.32.32,0,0,0-.17.09.29.29,0,0,0-.07.18l0,2.21a5.65,5.65,0,0,0-1.11.65l-1.94-1.08a.31.31,0,0,0-.19,0,.29.29,0,0,0-.16.11l-1.46,1.89a.27.27,0,0,0-.07.18.31.31,0,0,0,.07.18l1.53,1.61a6.37,6.37,0,0,0-.33,1.23l-2.14.61a.23.23,0,0,0-.15.11.31.31,0,0,0,0,.19l.3,2.38a.34.34,0,0,0,.1.16.38.38,0,0,0,.17.08h2.24a6.37,6.37,0,0,0,.63,1.1l-1.09,2a.31.31,0,0,0,0,.19.42.42,0,0,0,.1.17l1.89,1.46a.3.3,0,0,0,.18.06.28.28,0,0,0,.18-.06l1.62-1.56a8.32,8.32,0,0,0,1.21.33l.62,2.16a.29.29,0,0,0,.12.15.37.37,0,0,0,.18.05l2.38-.31a.32.32,0,0,0,.17-.1.28.28,0,0,0,.07-.17v-2.24A6.88,6.88,0,0,0,1442,151l2,1.09a.34.34,0,0,0,.2,0,.34.34,0,0,0,.16-.1l1.46-1.9a.34.34,0,0,0,.07-.18.29.29,0,0,0-.07-.18l-1.53-1.68a6.68,6.68,0,0,0,.33-1.22l2.15-.62a.28.28,0,0,0,.16-.12.28.28,0,0,0,0-.18l-.31-2.37a.28.28,0,0,0-.09-.18A.25.25,0,0,0,1446.33,143.34Z"></path> <path class="cls-12" d="M1438.37,148.67a2.83,2.83,0,1,0-2.83-2.83A2.82,2.82,0,0,0,1438.37,148.67Z"></path> <path class="cls-14" d="M1246.31,196.45v8h2.74v1.35h-4.17v-9.35Z"></path> <path class="cls-14" d="M1250.83,196.58a.9.9,0,0,1,.82.55,1,1,0,0,1,0,.51.92.92,0,0,1-.25.45.87.87,0,0,1-1,.19.86.86,0,0,1-.4-.33.84.84,0,0,1-.15-.49,1,1,0,0,1,.06-.34,1.07,1.07,0,0,1,.19-.28.77.77,0,0,1,.29-.19.83.83,0,0,1,.34-.07Zm.69,3.32v5.9h-1.38v-5.89Z"></path> <path class="cls-14" d="M1254,199.92l1.51,3.36,1.51-3.36h1.54l-3,6.32-3-6.32Z"></path> <path class="cls-14" d="M1260.25,196.58a.9.9,0,0,1,.82.55,1,1,0,0,1,0,.51.92.92,0,0,1-.25.45.87.87,0,0,1-.95.19.92.92,0,0,1-.4-.33.84.84,0,0,1-.15-.49,1,1,0,0,1,.06-.34,1.07,1.07,0,0,1,.19-.28.77.77,0,0,1,.29-.19.83.83,0,0,1,.34-.07Zm.69,3.32v5.9h-1.38v-5.89Z"></path> <path class="cls-14" d="M1262.62,199.91H1264v.55a2,2,0,0,1,1.6-.7,2,2,0,0,1,1,.18,2.06,2.06,0,0,1,.76.61,2.62,2.62,0,0,1,.37,1.64v3.62h-1.37v-3.28c0-1.5-.56-1.54-1.08-1.54s-1.25.08-1.25,2v2.83h-1.37Z"></path> <path class="cls-14" d="M1273.74,199.91h1.37v5.42c0,1.39-.16,2.38-1,3.07a3,3,0,0,1-2,.63,2.64,2.64,0,0,1-1-.16,2.71,2.71,0,0,1-.89-.57,3.3,3.3,0,0,1-.87-1.83h1.33a2,2,0,0,0,.43.92,1.43,1.43,0,0,0,.49.32,1.47,1.47,0,0,0,.58.09,1.41,1.41,0,0,0,.58-.09,1.36,1.36,0,0,0,.5-.31,1.8,1.8,0,0,0,.38-.69,1.9,1.9,0,0,0,.07-.79v-.77a2.16,2.16,0,0,1-.79.65,2.19,2.19,0,0,1-1,.19,2.4,2.4,0,0,1-1.09-.17,2.57,2.57,0,0,1-.91-.63,3.35,3.35,0,0,1-.88-2.34,3.2,3.2,0,0,1,.21-1.22,3.15,3.15,0,0,1,.66-1.06,2.74,2.74,0,0,1,.92-.61,2.66,2.66,0,0,1,1.08-.2,2.28,2.28,0,0,1,1,.2,2.22,2.22,0,0,1,.79.59Zm-2.62,1.47a2.14,2.14,0,0,0-.46.69,2.28,2.28,0,0,0-.15.81,2,2,0,0,0,.14.81,2.19,2.19,0,0,0,.45.67,1.58,1.58,0,0,0,1.05.4,1.5,1.5,0,0,0,.63-.11,1.38,1.38,0,0,0,.52-.37,1.91,1.91,0,0,0,.52-1.39,2.11,2.11,0,0,0-.12-.79,2.08,2.08,0,0,0-.44-.69,1.42,1.42,0,0,0-.51-.32,1.36,1.36,0,0,0-.6-.1,1.48,1.48,0,0,0-.55.09,1.66,1.66,0,0,0-.48.29Z"></path> <path class="cls-14" d="M1280.1,199.91h1.38v.53a2.43,2.43,0,0,1,.57-.49,1.75,1.75,0,0,1,.84-.19,2,2,0,0,1,1.08.28l-.56,1.24a1.43,1.43,0,0,0-.7-.21,1.16,1.16,0,0,0-.86.32,2,2,0,0,0-.37,1.36v3.06h-1.38Z"></path> <path class="cls-14" d="M1290.47,202.91a3.1,3.1,0,0,1-1,2.12,3.16,3.16,0,0,1-2.17.87,3.12,3.12,0,0,1-2.17-.87,3.16,3.16,0,0,1-1-2.12,3.2,3.2,0,0,1,1-2.12,3.16,3.16,0,0,1,2.17-.86,3.2,3.2,0,0,1,2.17.86A3.14,3.14,0,0,1,1290.47,202.91Zm-1.4,0a1.69,1.69,0,0,0-.35-.94,1.79,1.79,0,0,0-1.82-.65,1.76,1.76,0,0,0-1.2,2.41,1.74,1.74,0,0,0,.65.77,1.72,1.72,0,0,0,1,.29,1.55,1.55,0,0,0,.71-.13,1.65,1.65,0,0,0,.6-.41,1.63,1.63,0,0,0,.37-.62,1.59,1.59,0,0,0,.08-.72Z"></path> <path class="cls-14" d="M1297.89,202.91a3.1,3.1,0,0,1-1,2.12,3.16,3.16,0,0,1-2.17.87,3.12,3.12,0,0,1-2.17-.87,3.16,3.16,0,0,1-1-2.12,3.2,3.2,0,0,1,1-2.12,3.16,3.16,0,0,1,2.17-.86,3.2,3.2,0,0,1,2.17.86,3.14,3.14,0,0,1,1,2.12Zm-1.4,0a1.69,1.69,0,0,0-.35-.94,1.79,1.79,0,0,0-1.82-.65,1.76,1.76,0,0,0-1.2,2.41,1.74,1.74,0,0,0,.65.77,1.72,1.72,0,0,0,1,.29,1.55,1.55,0,0,0,.71-.13,1.65,1.65,0,0,0,.6-.41,1.63,1.63,0,0,0,.37-.62,1.59,1.59,0,0,0,.08-.72Z"></path> <path class="cls-14" d="M1299.31,199.91h1.37v.55a2,2,0,0,1,.65-.52,1.88,1.88,0,0,1,.81-.18,1.78,1.78,0,0,1,.88.23,1.71,1.71,0,0,1,.65.63,2.17,2.17,0,0,1,.77-.64,2.1,2.1,0,0,1,1-.22,1.84,1.84,0,0,1,1,.24,1.93,1.93,0,0,1,.71.68,3,3,0,0,1,.31,1.49v3.64H1306v-3.25a2.86,2.86,0,0,0-.12-1,.79.79,0,0,0-.31-.39.81.81,0,0,0-.48-.13,1.16,1.16,0,0,0-.45.12,1,1,0,0,0-.36.31,2.54,2.54,0,0,0-.26,1.35v3h-1.38v-3.25a2.86,2.86,0,0,0-.12-1,.79.79,0,0,0-.31-.39.81.81,0,0,0-.48-.13,1.16,1.16,0,0,0-.45.12,1,1,0,0,0-.36.31,2.45,2.45,0,0,0-.27,1.35v3h-1.37Z"></path> <path class="cls-14" d="M1246.31,334.58l3.61-3.73h1.88l-4.22,4.23,4.25,5.11h-1.91l-3.33-4.14-.28.28v3.86h-1.43v-9.34h1.43Z"></path> <path class="cls-14" d="M1253.52,331a.9.9,0,0,1,.82.55,1,1,0,0,1,.05.51.92.92,0,0,1-.25.45.87.87,0,0,1-1,.19.86.86,0,0,1-.4-.33.84.84,0,0,1-.15-.49,1,1,0,0,1,.06-.34,1.07,1.07,0,0,1,.19-.28.77.77,0,0,1,.29-.19A.83.83,0,0,1,1253.52,331Zm.68,3.32v5.89h-1.37v-5.89Z"></path> <path class="cls-14" d="M1257.35,335.55v4.63H1256v-4.63h-.57v-1.26h.57v-2.16h1.37v2.16h1.06v1.26Z"></path> <path class="cls-14" d="M1263.89,336.1a2.18,2.18,0,0,0-.75-.53,2.22,2.22,0,0,0-.91-.19,1.67,1.67,0,0,0-.7.12,1.71,1.71,0,0,0-1.11,1.75,2.07,2.07,0,0,0,.53,1.42,1.8,1.8,0,0,0,1.25.47,2.29,2.29,0,0,0,.93-.2,2.32,2.32,0,0,0,.76-.55v1.53a3.21,3.21,0,0,1-1.79.47,2.93,2.93,0,0,1-1.21-.19,3,3,0,0,1-1-.68,3.31,3.31,0,0,1-.64-1,3.62,3.62,0,0,1,0-2.43,3.17,3.17,0,0,1,.68-1.05,3.28,3.28,0,0,1,1.09-.68,3.07,3.07,0,0,1,1.27-.19,3.12,3.12,0,0,1,1.61.42Z"></path> <path class="cls-14" d="M1265.25,330h1.37v4.82a2.19,2.19,0,0,1,.72-.49,2.16,2.16,0,0,1,.86-.17,2,2,0,0,1,1,.18,2,2,0,0,1,.77.62,2.86,2.86,0,0,1,.38,1.64v3.61H1269V336.7a1.44,1.44,0,0,0-.27-1,1.15,1.15,0,0,0-.35-.22,1,1,0,0,0-.42-.08,1.24,1.24,0,0,0-.56.13,1.27,1.27,0,0,0-.44.36,2.63,2.63,0,0,0-.28,1.48v2.84h-1.38Z"></path> <path class="cls-14" d="M1277.14,338.85a3.13,3.13,0,0,1-1,1.08,3.27,3.27,0,0,1-1.73.45,2.66,2.66,0,0,1-2-.76,3.2,3.2,0,0,1-.87-2.25,3.45,3.45,0,0,1,.94-2.43,2.69,2.69,0,0,1,2-.8,2.6,2.6,0,0,1,1,.18,2.54,2.54,0,0,1,.86.59,3.5,3.5,0,0,1,.83,2.5v.17H1273a2,2,0,0,0,.5,1.19,1.48,1.48,0,0,0,1,.37,1.5,1.5,0,0,0,.94-.29,2.23,2.23,0,0,0,.55-.64Zm-1.36-2.4a1.39,1.39,0,0,0-.42-.79,1.3,1.3,0,0,0-.92-.34,1.28,1.28,0,0,0-1,.38,1.51,1.51,0,0,0-.42.75Z"></path> <path class="cls-14" d="M1278.59,334.3H1280v.54a2,2,0,0,1,.73-.53,2,2,0,0,1,.87-.17,1.89,1.89,0,0,1,1,.17,2,2,0,0,1,.77.62,2.65,2.65,0,0,1,.36,1.65v3.6h-1.41v-3.26c0-1.5-.56-1.55-1.08-1.55s-1.25.08-1.25,2v2.83h-1.37Z"></path> <path class="cls-14" d="M1246.25,465.76a3.39,3.39,0,0,1,2.58.73,2.47,2.47,0,0,1,.58.85,2.44,2.44,0,0,1,.16,1,1.93,1.93,0,0,1-.28,1.1,1.47,1.47,0,0,1-.7.65,2.54,2.54,0,0,1,1.21.67,2.4,2.4,0,0,1,.61,1.75,2.17,2.17,0,0,1-.13.91,2.13,2.13,0,0,1-.48.77,3.43,3.43,0,0,1-1.22.72,3.5,3.5,0,0,1-1.4.19h-2.3v-9.34Zm0,4h.43a1.61,1.61,0,0,0,1.17-.36,1.36,1.36,0,0,0,.29-.49,1.43,1.43,0,0,0,.07-.58,1.12,1.12,0,0,0-.07-.48,1.17,1.17,0,0,0-.27-.42,1.58,1.58,0,0,0-1.13-.35h-.49Zm0,4h.87a2.34,2.34,0,0,0,1.41-.37,1.17,1.17,0,0,0,.34-.45,1.3,1.3,0,0,0,.12-.55,1.43,1.43,0,0,0-.37-1,2.09,2.09,0,0,0-1.47-.42h-.9Z"></path> <path class="cls-14" d="M1256.31,469.21h1.37v5.89h-1.37v-.61a2.31,2.31,0,0,1-.79.6,2.35,2.35,0,0,1-1,.19,3.08,3.08,0,0,1-2-1,3.15,3.15,0,0,1-.81-2.1,3.14,3.14,0,0,1,2.82-3.12,2.37,2.37,0,0,1,1,.21,2.25,2.25,0,0,1,.77.63Zm-3.23,3a1.77,1.77,0,0,0,.08.69,1.56,1.56,0,0,0,.34.6,1.62,1.62,0,0,0,.55.42,1.58,1.58,0,0,0,.67.17,1.91,1.91,0,0,0,1.19-.63,1.85,1.85,0,0,0,.47-1.25,1.89,1.89,0,0,0-1.66-1.89,1.7,1.7,0,0,0-.66.17,1.72,1.72,0,0,0-.55.41,1.66,1.66,0,0,0-.34.59,1.58,1.58,0,0,0-.09.68Z"></path> <path class="cls-14" d="M1260.83,470.48v4.63h-1.38v-4.63h-.57v-1.26h.57v-2.16h1.38v2.16h1v1.26Z"></path> <path class="cls-14" d="M1262.68,464.92h1.37v4.82a2,2,0,0,1,.73-.5,2,2,0,0,1,.86-.16,1.91,1.91,0,0,1,1,.18,2,2,0,0,1,.76.62,2.83,2.83,0,0,1,.38,1.64v3.61h-1.37v-3.51a1.37,1.37,0,0,0-.27-1,.92.92,0,0,0-.35-.24.85.85,0,0,0-.42-.07,1.23,1.23,0,0,0-.56.12,1.3,1.3,0,0,0-.44.37,2.73,2.73,0,0,0-.28,1.49v2.84h-1.37Z"></path> <path class="cls-14" d="M1269.48,469.21h1.38v.53a2.43,2.43,0,0,1,.57-.49,1.65,1.65,0,0,1,.84-.2,2.15,2.15,0,0,1,1.08.28l-.56,1.25a1.23,1.23,0,0,0-.7-.21,1.16,1.16,0,0,0-.86.32,2,2,0,0,0-.37,1.36v3.05h-1.38Z"></path> <path class="cls-14" d="M1279.85,472.16a3.08,3.08,0,0,1-.51,1.77,3.15,3.15,0,0,1-1.41,1.19,3.1,3.1,0,0,1-1.83.2,3.23,3.23,0,0,1-1.63-.86,3.14,3.14,0,0,1-.87-1.62,3.1,3.1,0,0,1,.17-1.83,3.21,3.21,0,0,1,1.17-1.43,3.24,3.24,0,0,1,1.76-.53,3.05,3.05,0,0,1,3.15,3.11Zm-1.4,0a1.69,1.69,0,0,0-.35-.94,1.83,1.83,0,0,0-.82-.6,1.77,1.77,0,0,0-2.2,2.37,1.82,1.82,0,0,0,.66.77,1.71,1.71,0,0,0,1,.28,1.57,1.57,0,0,0,.71-.13,1.7,1.7,0,0,0,.59-.41,1.72,1.72,0,0,0,.37-.61,1.6,1.6,0,0,0,.08-.72Z"></path> <path class="cls-14" d="M1287.25,472.16a3.08,3.08,0,0,1-.51,1.77,3.13,3.13,0,0,1-3.23,1.39,3.15,3.15,0,0,1-2.51-2.47,3.1,3.1,0,0,1,.17-1.83,3.16,3.16,0,0,1,2.92-2,3.09,3.09,0,0,1,1.21.21,3.26,3.26,0,0,1,1,.67,3.13,3.13,0,0,1,.68,1A2.92,2.92,0,0,1,1287.25,472.16Zm-1.4,0a1.69,1.69,0,0,0-.35-.94,1.79,1.79,0,0,0-1.82-.65,1.76,1.76,0,0,0-1.2,2.41,1.74,1.74,0,0,0,.65.77,1.72,1.72,0,0,0,1,.29,1.76,1.76,0,0,0,.72-.12,1.65,1.65,0,0,0,.6-.41,1.67,1.67,0,0,0,.46-1.34Z"></path> <path class="cls-14" d="M1288.69,469.21h1.37v.54a1.92,1.92,0,0,1,.65-.52,1.88,1.88,0,0,1,.81-.18,1.84,1.84,0,0,1,.89.23,1.64,1.64,0,0,1,.64.64,2.11,2.11,0,0,1,.77-.65,2.07,2.07,0,0,1,1-.22,1.94,1.94,0,0,1,1,.24,1.88,1.88,0,0,1,.71.69,2.83,2.83,0,0,1,.31,1.48v3.64h-1.38v-3.25a2.68,2.68,0,0,0-.12-1.05.85.85,0,0,0-.31-.39.81.81,0,0,0-.48-.13,1.21,1.21,0,0,0-.46.12,1.07,1.07,0,0,0-.35.32,2.48,2.48,0,0,0-.26,1.34v3h-1.38v-3.25a3.12,3.12,0,0,0-.12-1.05.85.85,0,0,0-.31-.39.81.81,0,0,0-.48-.13,1.21,1.21,0,0,0-.46.12,1.07,1.07,0,0,0-.35.32,2.4,2.4,0,0,0-.27,1.34v3h-1.37Z"></path> <path class="cls-15" d="M1403.45,215.32a3.16,3.16,0,0,1,.91-2.08,3.2,3.2,0,0,1,2.34-.81,3,3,0,0,1,1.25.19,2.91,2.91,0,0,1,1,.69,2.55,2.55,0,0,1,.59.92,2.82,2.82,0,0,1,.18,1.08,2.53,2.53,0,0,1-.37,1.41,2.63,2.63,0,0,1-1,.9,2,2,0,0,1,1.06.84,2.89,2.89,0,0,1,.45,1.65,3.14,3.14,0,0,1-.22,1.28,3.32,3.32,0,0,1-.7,1.11,3.43,3.43,0,0,1-1.2.72,3.7,3.7,0,0,1-1.4.21,3.15,3.15,0,0,1-1.29-.2,3,3,0,0,1-1.1-.7,3.93,3.93,0,0,1-.91-2.18h1.57a2.13,2.13,0,0,0,.57,1.15,1.89,1.89,0,0,0,1.3.48,2.06,2.06,0,0,0,1.25-.44,2.24,2.24,0,0,0,.44-.7,2,2,0,0,0,.12-.81,1.71,1.71,0,0,0-.11-.68,1.6,1.6,0,0,0-.37-.58,1.73,1.73,0,0,0-.64-.38,1.71,1.71,0,0,0-.74-.1h-.23v-1.37h.23a1.91,1.91,0,0,0,1.36-.46,1.62,1.62,0,0,0,.41-1.14,1.41,1.41,0,0,0-.09-.58,1.34,1.34,0,0,0-.32-.49,1.54,1.54,0,0,0-1.14-.4,1.5,1.5,0,0,0-.63.08,1.52,1.52,0,0,0-.55.35,1.84,1.84,0,0,0-.45,1Z"></path> <path class="cls-15" d="M1418.43,223.28h-7.18l3.69-4.48c.37-.45.93-1.15,1.29-1.67a2.67,2.67,0,0,0,.55-1.53,1.79,1.79,0,0,0-.11-.69,1.7,1.7,0,0,0-1-.95,1.61,1.61,0,0,0-.69-.09,1.85,1.85,0,0,0-1.35.56,2.21,2.21,0,0,0-.41.63,2,2,0,0,0-.13.74h-1.57a3.81,3.81,0,0,1,.9-2.33,3.47,3.47,0,0,1,1.72-1,3.41,3.41,0,0,1,1.95.12,3.47,3.47,0,0,1,2.27,3,4,4,0,0,1-.77,2.25c-.39.57-.88,1.16-1.52,1.92l-1.67,2h4Z"></path> <path class="cls-15" d="M1425.48,215a2.52,2.52,0,0,1-.4,1.46,2.59,2.59,0,0,1-1.14,1,2.65,2.65,0,0,1-1.5.17,2.56,2.56,0,0,1-2.06-2,2.6,2.6,0,0,1,1.09-2.67,2.57,2.57,0,0,1,4,2.07Zm-1.25,0a1.3,1.3,0,0,0-.24-.73,1.32,1.32,0,0,0-.6-.47,1.29,1.29,0,0,0-1.44.31,1.28,1.28,0,0,0-.35.68,1.36,1.36,0,0,0,.08.77,1.34,1.34,0,0,0,.49.59,1.46,1.46,0,0,0,1.26.12,1.23,1.23,0,0,0,.44-.3,1.25,1.25,0,0,0,.29-.44,1.21,1.21,0,0,0,.09-.53Zm4.73-2.59.75.43-6.1,10.6-.75-.47Zm3.29,8.49a2.52,2.52,0,0,1-.4,1.46,2.59,2.59,0,0,1-1.14,1,2.65,2.65,0,0,1-1.5.17,2.59,2.59,0,0,1-1.93-3.51,2.72,2.72,0,0,1,1-1.17,2.65,2.65,0,0,1,1.44-.44,2.6,2.6,0,0,1,1.81.73,2.55,2.55,0,0,1,.77,1.78Zm-1.25,0a1.3,1.3,0,0,0-.24-.73,1.35,1.35,0,0,0-1.36-.54,1.46,1.46,0,0,0-.68.37,1.39,1.39,0,0,0-.35.68,1.35,1.35,0,0,0,.08.77,1.28,1.28,0,0,0,.49.59,1.26,1.26,0,0,0,.73.22,1.34,1.34,0,0,0,.52-.1,1.28,1.28,0,0,0,.43-.3,1.18,1.18,0,0,0,.28-.44,1.14,1.14,0,0,0,.09-.52Z"></path> <path class="cls-15" d="M1409.53,354.47h1.15V356h-1.15v2H1408v-2h-5.28l6.85-9.44Zm-1.57,0V351l-2.43,3.44Z"></path> <path class="cls-15" d="M1413.58,357a6.51,6.51,0,0,1-1.36-4.35,6.59,6.59,0,0,1,1.36-4.37,3.13,3.13,0,0,1,3.76-.85,3.15,3.15,0,0,1,1.07.85,7.67,7.67,0,0,1,0,8.72,3.06,3.06,0,0,1-1.07.85,3.13,3.13,0,0,1-1.34.31,3.15,3.15,0,0,1-2.42-1.16Zm1-7.55a7.33,7.33,0,0,0,0,6.38,1.77,1.77,0,0,0,1.44.89,1.74,1.74,0,0,0,1.44-.89,7.25,7.25,0,0,0,0-6.38,1.75,1.75,0,0,0-.6-.64,1.64,1.64,0,0,0-.84-.24,1.61,1.61,0,0,0-.85.24,1.66,1.66,0,0,0-.62.64Z"></path> <path class="cls-15" d="M1426.25,349.74a2.51,2.51,0,0,1-.4,1.45,2.56,2.56,0,0,1-2.64,1.15,2.64,2.64,0,0,1-1.34-.68,2.61,2.61,0,0,1-.72-1.32,2.56,2.56,0,0,1,.13-1.5,2.61,2.61,0,0,1,1-1.17,2.57,2.57,0,0,1,1.44-.44,2.54,2.54,0,0,1,2.58,2.51Zm-1.25,0a1.25,1.25,0,0,0-.24-.73,1.28,1.28,0,0,0-.6-.48,1.24,1.24,0,0,0-.76-.06,1.31,1.31,0,0,0-1,1,1.32,1.32,0,0,0,.08.76,1.28,1.28,0,0,0,.49.59,1.26,1.26,0,0,0,.73.23,1.46,1.46,0,0,0,.51-.12,1.37,1.37,0,0,0,.42-.29,1.22,1.22,0,0,0,.28-.44,1.15,1.15,0,0,0,.09-.51Zm4.72-2.59.75.43-6.09,10.6-.76-.47Zm3.28,8.45a2.49,2.49,0,0,1-.4,1.45,2.59,2.59,0,0,1-1.14,1,2.49,2.49,0,0,1-1.5.17,2.56,2.56,0,0,1-2.06-2,2.49,2.49,0,0,1,.14-1.5,2.53,2.53,0,0,1,1-1.17,2.55,2.55,0,0,1,4,2.08Zm-1.25,0a1.28,1.28,0,0,0-.06-.55,1.5,1.5,0,0,0-.28-.47,1.6,1.6,0,0,0-.45-.32,1.36,1.36,0,0,0-1.07,0,1.43,1.43,0,0,0-.44.32,1.34,1.34,0,0,0-.28.47,1.46,1.46,0,0,0-.07.55,1.44,1.44,0,0,0,.07.54,1.34,1.34,0,0,0,.28.47,1.28,1.28,0,0,0,.44.32,1.36,1.36,0,0,0,1.07,0,1.42,1.42,0,0,0,.45-.32,1.5,1.5,0,0,0,.28-.47A1.25,1.25,0,0,0,1431.75,355.6Z"></path> <path class="cls-15" d="M1410,483.79h-3.29l-.53,1.78h.5a3.56,3.56,0,0,1,2.46.94,3.82,3.82,0,0,1,.79,1.27,3.67,3.67,0,0,1,.21,1.47,3.82,3.82,0,0,1-.25,1.53,3.73,3.73,0,0,1-.84,1.3,4.55,4.55,0,0,1-5,.61,3.71,3.71,0,0,1-1.26-1.23l1.23-1a2.38,2.38,0,0,0,.82.93,2.44,2.44,0,0,0,1.39.37,2.23,2.23,0,0,0,1.63-.59,2.45,2.45,0,0,0,.69-1.81,2.28,2.28,0,0,0-.13-.93,2.19,2.19,0,0,0-.51-.8,2.49,2.49,0,0,0-1.74-.59,3.36,3.36,0,0,0-1.25.22,5,5,0,0,0-1,.48l1.59-5.39H1410Z"></path> <path class="cls-15" d="M1418.6,493h-7.17l3.7-4.48c.37-.45.93-1.15,1.28-1.66a2.61,2.61,0,0,0,.56-1.54,1.6,1.6,0,0,0-.12-.68,1.5,1.5,0,0,0-.38-.58,1.73,1.73,0,0,0-.59-.37,1.78,1.78,0,0,0-.69-.1,1.83,1.83,0,0,0-.73.15,2,2,0,0,0-.62.42,2.1,2.1,0,0,0-.4.63,1.9,1.9,0,0,0-.13.74h-1.57a3.88,3.88,0,0,1,.89-2.34,3.29,3.29,0,0,1,1.14-.77,3.33,3.33,0,0,1,1.36-.23,3.25,3.25,0,0,1,1.31.17,3.35,3.35,0,0,1,1.13.68,3.13,3.13,0,0,1,.75,1.08,3.19,3.19,0,0,1,.25,1.29,3.79,3.79,0,0,1-.77,2.24,18.56,18.56,0,0,1-1.52,1.92l-1.66,2h4Z"></path> <path class="cls-15" d="M1425.66,484.71a2.62,2.62,0,0,1-.4,1.45,2.58,2.58,0,0,1-4.57-2.36,2.72,2.72,0,0,1,1-1.17,2.65,2.65,0,0,1,1.44-.44,2.56,2.56,0,0,1,2.58,2.52Zm-1.25,0a1.3,1.3,0,0,0-.24-.73,1.35,1.35,0,0,0-1.36-.54,1.46,1.46,0,0,0-.68.37,1.38,1.38,0,0,0-.35.69,1.32,1.32,0,0,0,.08.76,1.28,1.28,0,0,0,.49.59,1.26,1.26,0,0,0,.73.22,1.3,1.3,0,0,0,.52-.1,1.28,1.28,0,0,0,.43-.3,1.21,1.21,0,0,0,.29-.44A1.14,1.14,0,0,0,1424.41,484.71Zm4.72-2.6.75.43-6.09,10.6-.76-.46Zm3.28,8.45a2.52,2.52,0,0,1-.4,1.46,2.59,2.59,0,0,1-1.14,1,2.65,2.65,0,0,1-1.5.17,2.56,2.56,0,0,1-2.06-2,2.49,2.49,0,0,1,.14-1.5,2.53,2.53,0,0,1,1-1.17,2.57,2.57,0,0,1,3.24.3,2.53,2.53,0,0,1,.77,1.77Zm-1.25,0a1.3,1.3,0,0,0-.24-.73,1.32,1.32,0,0,0-.6-.47,1.29,1.29,0,0,0-1.44.31,1.28,1.28,0,0,0-.35.68,1.33,1.33,0,0,0,.57,1.36,1.3,1.3,0,0,0,.74.21,1.34,1.34,0,0,0,.52-.1,1.28,1.28,0,0,0,.43-.3,1.18,1.18,0,0,0,.28-.44,1.14,1.14,0,0,0,.09-.52Z"></path> <path class="cls-15" d="M1335.6,217.17h2.72v-2.72h1.51v2.72h2.72v1.44h-2.72v2.72h-1.51v-2.72h-2.72Z"></path> <path class="cls-15" d="M1350.79,223.28h-7.17l3.69-4.48c.37-.45.93-1.15,1.28-1.67a2.61,2.61,0,0,0,.56-1.53,1.79,1.79,0,0,0-.11-.69,1.7,1.7,0,0,0-1-.95,1.61,1.61,0,0,0-.69-.09,1.85,1.85,0,0,0-1.35.56,2.21,2.21,0,0,0-.41.63,2,2,0,0,0-.13.74h-1.57a3.81,3.81,0,0,1,.9-2.33,3.47,3.47,0,0,1,1.72-1,3.41,3.41,0,0,1,2,.12,3.47,3.47,0,0,1,2.27,3,4,4,0,0,1-.77,2.25c-.39.57-.88,1.16-1.52,1.92l-1.67,2h4Z"></path> <path class="cls-15" d="M1354.25,222.29a6.48,6.48,0,0,1-1.36-4.35,6.62,6.62,0,0,1,1.36-4.37,3,3,0,0,1,1.08-.84,3.1,3.1,0,0,1,1.34-.31,3.13,3.13,0,0,1,1.34.31,3,3,0,0,1,1.07.84,6.51,6.51,0,0,1,1.36,4.37,6.43,6.43,0,0,1-1.36,4.35,3,3,0,0,1-1.07.86,3.13,3.13,0,0,1-1.34.31,3.1,3.1,0,0,1-1.34-.31,3,3,0,0,1-1.08-.86Zm1-7.55a7.25,7.25,0,0,0,0,6.38,1.75,1.75,0,0,0,.6.64,1.7,1.7,0,0,0,.84.24,1.7,1.7,0,0,0,1.44-.88,7.33,7.33,0,0,0,0-6.38,1.81,1.81,0,0,0-.6-.63,1.75,1.75,0,0,0-.84-.25,1.82,1.82,0,0,0-.84.25,1.73,1.73,0,0,0-.6.63Z"></path> <path class="cls-15" d="M1369,212.6a2.29,2.29,0,0,1,1.29.4,2.32,2.32,0,0,1,.84,1,2.37,2.37,0,0,1,.13,1.34,2.4,2.4,0,0,1-.64,1.18,2.3,2.3,0,0,1-1.19.63,2.36,2.36,0,0,1-1.34-.13,2.42,2.42,0,0,1-1-.86,2.35,2.35,0,0,1-.39-1.28,2.48,2.48,0,0,1,.17-.9,2.31,2.31,0,0,1,.51-.76,2.23,2.23,0,0,1,.76-.5A2.17,2.17,0,0,1,1369,212.6Zm0,3.72a1.37,1.37,0,0,0,.79-.22,1.33,1.33,0,0,0,.54-.61,1.44,1.44,0,0,0,.1-.82,1.5,1.5,0,0,0-.37-.73,1.38,1.38,0,0,0-.72-.39,1.33,1.33,0,0,0-.81.07,1.39,1.39,0,0,0-.64.51,1.47,1.47,0,0,0-.24.79,1.6,1.6,0,0,0,.09.53,1.34,1.34,0,0,0,.29.45,1.47,1.47,0,0,0,.44.31,1.4,1.4,0,0,0,.53.11Z"></path> <path class="cls-15" d="M1382.16,215.09a4.2,4.2,0,0,0-2.91-1.18,4,4,0,0,0-2.85,6.88,4,4,0,0,0,2.85,1.18,4.16,4.16,0,0,0,2.88-1.23v1.94a5.71,5.71,0,0,1-2.93.8,5.38,5.38,0,0,1-5.49-5.48,5.55,5.55,0,0,1,.42-2.27,5.69,5.69,0,0,1,1.3-1.91,5.46,5.46,0,0,1,1.79-1.08,5.35,5.35,0,0,1,2.06-.31,5.1,5.1,0,0,1,2.85.77Z"></path> <path class="cls-15" d="M1335.6,351.91h2.72v-2.72h1.51v2.72h2.72v1.44h-2.72v2.72h-1.51v-2.72h-2.72Z"></path> <path class="cls-15" d="M1350.79,358h-7.17l3.69-4.48c.37-.45.93-1.15,1.28-1.67a2.5,2.5,0,0,0,.56-1.53,1.77,1.77,0,0,0-.11-.68,1.74,1.74,0,0,0-.39-.58,1.6,1.6,0,0,0-.58-.37,1.78,1.78,0,0,0-.69-.1,1.83,1.83,0,0,0-.73.15,2,2,0,0,0-.62.42,2.21,2.21,0,0,0-.41.63,2,2,0,0,0-.13.73h-1.57a3.86,3.86,0,0,1,.9-2.33,3.53,3.53,0,0,1,1.72-.95,3.41,3.41,0,0,1,2,.12,3.47,3.47,0,0,1,2.27,3,3.94,3.94,0,0,1-.77,2.25c-.39.57-.88,1.16-1.52,1.92l-1.67,2h4Z"></path> <path class="cls-15" d="M1359.43,348.83h-3.3l-.53,1.77h.5a3.45,3.45,0,0,1,2.46,1,3.53,3.53,0,0,1,.79,1.26,5,5,0,0,1,0,3,3.72,3.72,0,0,1-.84,1.31,4,4,0,0,1-3.29,1.21,4,4,0,0,1-1.7-.58,4.05,4.05,0,0,1-1.28-1.26l1.23-1a2.53,2.53,0,0,0,.82.93,2.61,2.61,0,0,0,1.39.37,2.39,2.39,0,0,0,.88-.14,2.23,2.23,0,0,0,.75-.46,2.55,2.55,0,0,0,.53-.84,2.31,2.31,0,0,0,.16-1,2.24,2.24,0,0,0-.13-.93,2.07,2.07,0,0,0-.51-.79,2.45,2.45,0,0,0-1.74-.6,3.15,3.15,0,0,0-1.25.23,3.84,3.84,0,0,0-1,.48l1.59-5.4h4.42Z"></path> <path class="cls-15" d="M1368.61,347.31a2.32,2.32,0,0,1,2.15,1.45,2.31,2.31,0,0,1-.52,2.54,2.34,2.34,0,0,1-1.19.63,2.31,2.31,0,0,1-1.35-.14,2.33,2.33,0,0,1-1.43-2.16A2.39,2.39,0,0,1,1367,348a2.18,2.18,0,0,1,.77-.5A2.47,2.47,0,0,1,1368.61,347.31Zm0,3.72a1.36,1.36,0,0,0,.79-.21,1.33,1.33,0,0,0,.54-.61,1.44,1.44,0,0,0,.1-.82,1.46,1.46,0,0,0-.37-.73,1.31,1.31,0,0,0-.72-.39,1.33,1.33,0,0,0-.81.07,1.39,1.39,0,0,0-.64.51,1.46,1.46,0,0,0-.24.78,1.61,1.61,0,0,0,.09.54,1.34,1.34,0,0,0,.29.45,1.47,1.47,0,0,0,.44.31A1.39,1.39,0,0,0,1368.61,351Z"></path> <path class="cls-15" d="M1381.79,349.82a4.11,4.11,0,0,0-2.89-1.18,4,4,0,0,0-4,4,4,4,0,0,0,4,4,4.23,4.23,0,0,0,2.88-1.23v1.94a5.85,5.85,0,0,1-2.92.8,5.49,5.49,0,0,1-5.07-3.29,5.26,5.26,0,0,1-.42-2.18,5.56,5.56,0,0,1,.42-2.28,5.39,5.39,0,0,1,1.29-1.9,5.32,5.32,0,0,1,1.79-1.09,5.21,5.21,0,0,1,2.07-.3,5,5,0,0,1,2.84.77Z"></path> <path class="cls-15" d="M1335.6,486.91h2.72v-2.72h1.51v2.72h2.72v1.44h-2.72v2.72h-1.51v-2.76h-2.72Z"></path> <path class="cls-15" d="M1350.79,493h-7.17l3.69-4.48c.37-.45.93-1.15,1.28-1.66a2.55,2.55,0,0,0,.56-1.54,1.6,1.6,0,0,0-.12-.68,1.47,1.47,0,0,0-.38-.57,1.72,1.72,0,0,0-.58-.38,1.78,1.78,0,0,0-.69-.1,1.83,1.83,0,0,0-.73.15,1.79,1.79,0,0,0-.62.42,1.85,1.85,0,0,0-.41.63,2.1,2.1,0,0,0-.13.74h-1.57a3.87,3.87,0,0,1,.9-2.34,3.49,3.49,0,0,1,1.72-.95,3.45,3.45,0,0,1,2,.12,3.5,3.5,0,0,1,1.57,1.17,3.47,3.47,0,0,1,.69,1.84,3.93,3.93,0,0,1-.77,2.24,21.72,21.72,0,0,1-1.52,1.92l-1.67,2h4Z"></path> <path class="cls-15" d="M1359.87,493h-7.17l3.7-4.48c.37-.45.93-1.15,1.28-1.66a2.55,2.55,0,0,0,.56-1.54,1.62,1.62,0,0,0-.12-.69,1.54,1.54,0,0,0-.38-.57,1.69,1.69,0,0,0-.58-.37,1.61,1.61,0,0,0-.69-.1,2,2,0,0,0-.73.14,1.82,1.82,0,0,0-.62.43,1.76,1.76,0,0,0-.41.63,2,2,0,0,0-.13.74H1353a3.84,3.84,0,0,1,.9-2.34,3.49,3.49,0,0,1,3.67-.84,3.43,3.43,0,0,1,1.58,1.18,3.39,3.39,0,0,1,.68,1.84,3.81,3.81,0,0,1-.77,2.24,18.56,18.56,0,0,1-1.52,1.92l-1.66,2h4Z"></path> <path class="cls-15" d="M1369,482.29a2.38,2.38,0,0,1,1.29.41,2.32,2.32,0,0,1,.84,1,2.37,2.37,0,0,1,.13,1.34,2.32,2.32,0,0,1-1.83,1.81,2.36,2.36,0,0,1-1.34-.13,2.42,2.42,0,0,1-1-.86,2.36,2.36,0,0,1-.39-1.29,2.47,2.47,0,0,1,.17-.89,2.31,2.31,0,0,1,1.27-1.26A2.36,2.36,0,0,1,1369,482.29Zm0,3.71a1.38,1.38,0,0,0,.79-.21,1.4,1.4,0,0,0,.52-.61,1.34,1.34,0,0,0,.1-.81,1.42,1.42,0,0,0-.37-.72,1.39,1.39,0,0,0-2.15.19,1.43,1.43,0,0,0-.24.77,1.61,1.61,0,0,0,.09.54,1.34,1.34,0,0,0,.73.75,1.22,1.22,0,0,0,.53.1Z"></path> <path class="cls-15" d="M1382.16,484.79a4.16,4.16,0,0,0-2.89-1.19,3.82,3.82,0,0,0-2.84,1.18,3.73,3.73,0,0,0-.83,1.34,3.89,3.89,0,0,0-.22,1.55,3.94,3.94,0,0,0,1.09,2.84,3.87,3.87,0,0,0,1.29.87,3.77,3.77,0,0,0,1.52.29,4.27,4.27,0,0,0,2.88-1.23v1.93a5.81,5.81,0,0,1-2.93.8,5.3,5.3,0,0,1-3.77-1.47,5.17,5.17,0,0,1-1.29-1.81,5.32,5.32,0,0,1-.43-2.19,5.55,5.55,0,0,1,.42-2.27,5.69,5.69,0,0,1,1.3-1.91,5.46,5.46,0,0,1,1.79-1.08,5.35,5.35,0,0,1,2.06-.31,5.09,5.09,0,0,1,2.85.76Z"></path> <path class="cls-14" d="M1337.46,199.53v5.14h-.92v-5.14h-1.38v-.86h3.67v.86Z"></path> <path class="cls-14" d="M1342.52,203.81a2.12,2.12,0,0,1-.64.69,2.08,2.08,0,0,1-1.12.29,1.5,1.5,0,0,1-.69-.11,1.62,1.62,0,0,1-.59-.38,2,2,0,0,1-.42-.66,1.94,1.94,0,0,1-.14-.79,2.25,2.25,0,0,1,.61-1.56,1.93,1.93,0,0,1,.59-.38,1.75,1.75,0,0,1,.68-.13,1.84,1.84,0,0,1,.66.12,1.64,1.64,0,0,1,.55.38,2.24,2.24,0,0,1,.53,1.6V203h-2.72a1.23,1.23,0,0,0,.33.76,1,1,0,0,0,.31.2.9.9,0,0,0,.36.05.94.94,0,0,0,.61-.19,1.1,1.1,0,0,0,.35-.42Zm-.88-1.54a.88.88,0,0,0-.27-.52.89.89,0,0,0-.59-.21.92.92,0,0,0-.33.06.79.79,0,0,0-.29.18,1.08,1.08,0,0,0-.27.49Z"></path> <path class="cls-14" d="M1343.46,200.91h.88v.35a1.23,1.23,0,0,1,.42-.33,1.17,1.17,0,0,1,.52-.12,1.19,1.19,0,0,1,.58.15,1.1,1.1,0,0,1,.42.41,1.46,1.46,0,0,1,.5-.42,1.49,1.49,0,0,1,.63-.14,1.26,1.26,0,0,1,1.08.6,1.83,1.83,0,0,1,.19,1v2.34h-.88v-2.09a1.71,1.71,0,0,0-.08-.67.47.47,0,0,0-.19-.25.56.56,0,0,0-.31-.09.84.84,0,0,0-.3.08.74.74,0,0,0-.23.2,1.55,1.55,0,0,0-.17.87v2h-.88v-2.09a1.71,1.71,0,0,0-.08-.67.47.47,0,0,0-.19-.25.56.56,0,0,0-.31-.09.84.84,0,0,0-.3.08.74.74,0,0,0-.23.2,1.55,1.55,0,0,0-.17.87v2h-.88Z"></path> <path class="cls-14" d="M1350.66,206.73h-.88v-5.82h.88v.41a1.48,1.48,0,0,1,.51-.38,1.59,1.59,0,0,1,.61-.13,1.94,1.94,0,0,1,.75.16,1.76,1.76,0,0,1,.61.44,1.87,1.87,0,0,1,.49,1.4,1.89,1.89,0,0,1-.5,1.39,2.07,2.07,0,0,1-.61.44,2,2,0,0,1-.73.17,1.32,1.32,0,0,1-.62-.15,1.57,1.57,0,0,1-.51-.41Zm0-3.93a1.14,1.14,0,0,0,0,.45,1.09,1.09,0,0,0,.58.66,1.12,1.12,0,0,0,.44.09,1.23,1.23,0,0,0,.75-2,1.29,1.29,0,0,0-.75-.42,1.22,1.22,0,0,0-.46.09.94.94,0,0,0-.38.27,1.14,1.14,0,0,0-.24.41,1.2,1.2,0,0,0,0,.46Z"></path> <path class="cls-14" d="M1357.94,203.81a1.84,1.84,0,0,1-.64.69,1.89,1.89,0,0,1-1.11.29,1.5,1.5,0,0,1-.69-.11,1.62,1.62,0,0,1-.59-.38,2,2,0,0,1-.42-.66,1.94,1.94,0,0,1-.14-.79,2.33,2.33,0,0,1,.6-1.56,1.93,1.93,0,0,1,.59-.38,1.75,1.75,0,0,1,.68-.13,1.89,1.89,0,0,1,.67.12,1.64,1.64,0,0,1,.55.38,2.24,2.24,0,0,1,.53,1.6V203h-2.72a1.33,1.33,0,0,0,.32.76.83.83,0,0,0,.32.2.87.87,0,0,0,.36.05.92.92,0,0,0,.6-.19,1.1,1.1,0,0,0,.35-.42Zm-.87-1.54a1,1,0,0,0-.27-.52.93.93,0,0,0-.6-.21.92.92,0,0,0-.33.06.79.79,0,0,0-.29.18,1.18,1.18,0,0,0-.27.49Z"></path> <path class="cls-14" d="M1358.89,200.91h.88v.34a1.85,1.85,0,0,1,.37-.31,1.13,1.13,0,0,1,.54-.13,1.39,1.39,0,0,1,.69.18l-.36.8a.87.87,0,0,0-.45-.13.92.92,0,0,0-.29,0,.76.76,0,0,0-.26.16,1.33,1.33,0,0,0-.24.88v2h-.88Z"></path> <path class="cls-14" d="M1364.46,200.92h.88v3.79h-.88v-.4a1.48,1.48,0,0,1-.51.38,1.52,1.52,0,0,1-.63.14,2,2,0,0,1-.73-.17,1.76,1.76,0,0,1-.61-.44,2,2,0,0,1-.39-.65,1.87,1.87,0,0,1-.1-.74,1.8,1.8,0,0,1,.1-.76,1.86,1.86,0,0,1,.38-.65,2.26,2.26,0,0,1,.62-.44,1.88,1.88,0,0,1,.74-.15,1.35,1.35,0,0,1,.63.13,1.24,1.24,0,0,1,.5.41Zm-2.07,1.91a1.12,1.12,0,0,0,.27.83,1.06,1.06,0,0,0,.35.27,1.3,1.3,0,0,0,.43.11,1.19,1.19,0,0,0,.79-.4,1.17,1.17,0,0,0,.32-.82,1.19,1.19,0,0,0-.32-.82,1.14,1.14,0,0,0-.79-.39,1,1,0,0,0-.42.1,1.22,1.22,0,0,0-.36.27,1.08,1.08,0,0,0-.27.82Z"></path> <path class="cls-14" d="M1367.36,201.69v3h-.88v-3h-.37v-.78h.37v-1.39h.88v1.39h.68v.81Z"></path> <path class="cls-14" d="M1369.52,200.92v2.17a1,1,0,0,0,.16.68,1,1,0,0,0,.25.2.71.71,0,0,0,.32.07.78.78,0,0,0,.33-.07.82.82,0,0,0,.25-.2,1,1,0,0,0,.16-.68v-2.17h.88v2.2a1.65,1.65,0,0,1-.06.66,1.7,1.7,0,0,1-.34.58,1.82,1.82,0,0,1-1.87.35,1.71,1.71,0,0,1-.56-.35,1.88,1.88,0,0,1-.34-.58,1.64,1.64,0,0,1-.07-.66v-2.2Z"></path> <path class="cls-14" d="M1373,200.91h.88v.34a2.05,2.05,0,0,1,.38-.34,1.13,1.13,0,0,1,.54-.13,1.39,1.39,0,0,1,.69.18l-.36.8a.87.87,0,0,0-.45-.13.78.78,0,0,0-.3,0,.82.82,0,0,0-.25.16,1.33,1.33,0,0,0-.24.88v2H1373Z"></path> <path class="cls-14" d="M1379.09,203.81a1.84,1.84,0,0,1-.64.69,1.89,1.89,0,0,1-1.11.29,1.5,1.5,0,0,1-.69-.11,1.62,1.62,0,0,1-.59-.38,2,2,0,0,1-.42-.66,1.94,1.94,0,0,1-.14-.79,2.33,2.33,0,0,1,.6-1.56,1.93,1.93,0,0,1,.59-.38,1.75,1.75,0,0,1,.68-.13,1.89,1.89,0,0,1,.67.12,1.64,1.64,0,0,1,.55.38,2.24,2.24,0,0,1,.53,1.6V203h-2.72a1.24,1.24,0,0,0,.32.76.83.83,0,0,0,.32.2.87.87,0,0,0,.36.05.92.92,0,0,0,.6-.19,1.1,1.1,0,0,0,.35-.42Zm-.87-1.54a1,1,0,0,0-.27-.52.93.93,0,0,0-.6-.21.92.92,0,0,0-.33.06.79.79,0,0,0-.29.18,1.18,1.18,0,0,0-.27.49Z"></path> <path class="cls-14" d="M1404,201h2.57v-2.37h.92v6h-.92v-2.76H1404v2.76h-.92v-6h.92Z"></path> <path class="cls-14" d="M1409.65,200.92v2.17a1.18,1.18,0,0,0,.16.68.86.86,0,0,0,.26.2.73.73,0,0,0,.89-.2,1,1,0,0,0,.17-.68v-2.17h.88v2.2a1.48,1.48,0,0,1-.07.66,1.7,1.7,0,0,1-.34.58,1.74,1.74,0,0,1-1.23.47,1.77,1.77,0,0,1-1.2-.47,1.68,1.68,0,0,1-.33-.58,1.66,1.66,0,0,1-.07-.66v-2.2Z"></path> <path class="cls-14" d="M1413.12,200.91h.89v.35a1.19,1.19,0,0,1,.93-.45,1.3,1.3,0,0,1,.58.14,1.13,1.13,0,0,1,.42.42,1.33,1.33,0,0,1,.5-.41,1.39,1.39,0,0,1,.63-.15,1.26,1.26,0,0,1,1.08.6,1.84,1.84,0,0,1,.2,1v2.34h-.88v-2.09a1.56,1.56,0,0,0-.09-.67.47.47,0,0,0-.19-.25.49.49,0,0,0-.31-.09.68.68,0,0,0-.52.28,1.64,1.64,0,0,0-.17.87v2h-.94v-2.09a1.55,1.55,0,0,0,0-.8.47.47,0,0,0-.19-.25.49.49,0,0,0-.31-.09.68.68,0,0,0-.52.28,1.55,1.55,0,0,0-.17.87v2h-.89Z"></path> <path class="cls-14" d="M1419.88,198.76a.5.5,0,0,1,.32.09.59.59,0,0,1,.22.25.62.62,0,0,1,0,.33.54.54,0,0,1-.15.3.57.57,0,0,1-.3.15.53.53,0,0,1-.33,0,.66.66,0,0,1-.26-.21.62.62,0,0,1-.09-.32.54.54,0,0,1,0-.22.57.57,0,0,1,.12-.18.44.44,0,0,1,.19-.12.39.39,0,0,1,.21,0Zm.44,2.13v3.79h-.88v-3.76Z"></path> <path class="cls-14" d="M1424.25,198.11h.88v6.56h-.88v-.4a1.45,1.45,0,0,1-.5.39,1.37,1.37,0,0,1-.63.13,1.84,1.84,0,0,1-.73-.16,2.07,2.07,0,0,1-.61-.44,1.74,1.74,0,0,1-.39-.65,2.73,2.73,0,0,1,0-1.5,2,2,0,0,1,.39-.65,1.9,1.9,0,0,1,.62-.44,2.09,2.09,0,0,1,.74-.16,1.52,1.52,0,0,1,.63.14,1.35,1.35,0,0,1,.49.4Zm-2.07,4.68a1.35,1.35,0,0,0,0,.45,1.26,1.26,0,0,0,.22.39,1.22,1.22,0,0,0,.36.27,1,1,0,0,0,.43.1,1.14,1.14,0,0,0,.79-.39,1.23,1.23,0,0,0-.79-2,1.4,1.4,0,0,0-.45.1,1.22,1.22,0,0,0-.37.27,1.23,1.23,0,0,0-.23.4,1.16,1.16,0,0,0,0,.45Z"></path> <path class="cls-14" d="M1426.65,198.76a.49.49,0,0,1,.24,0,.53.53,0,0,1,.21.11.75.75,0,0,1,.15.2.59.59,0,0,1,0,.23.69.69,0,0,1,0,.24.7.7,0,0,1-.15.19.72.72,0,0,1-.21.12,1.45,1.45,0,0,1-.48,0,.72.72,0,0,1-.21-.12.56.56,0,0,1-.19-.43.46.46,0,0,1,0-.23.56.56,0,0,1,.14-.2.53.53,0,0,1,.21-.11A.49.49,0,0,1,1426.65,198.76Zm.44,2.13v3.79h-.84v-3.76Z"></path> <path class="cls-14" d="M1429.12,201.69v3h-.87v-3h-.37v-.78h.37v-1.39h.88v1.39h.67v.81Z"></path> <path class="cls-14" d="M1431.68,204.08l-1.62-3.2h1.06l1.08,2.21,1.1-2.21h1l-3,5.85h-1Z"></path> <path class="cls-14" d="M1337.46,333.91v5.14h-.92v-5.14h-1.38V333h3.67v.87Z"></path> <path class="cls-14" d="M1342.52,338.2a1.86,1.86,0,0,1-1.76,1,1.82,1.82,0,0,1-.69-.11,1.93,1.93,0,0,1-.59-.38,2,2,0,0,1-.42-.67,1.92,1.92,0,0,1-.14-.78,2.21,2.21,0,0,1,.61-1.56,1.79,1.79,0,0,1,.59-.39,1.58,1.58,0,0,1,.68-.12,1.53,1.53,0,0,1,1.21.49,2.23,2.23,0,0,1,.53,1.61v.1h-2.72a1.33,1.33,0,0,0,.33.77,1.23,1.23,0,0,0,.31.19,1.12,1.12,0,0,0,.36,0,.94.94,0,0,0,.61-.19,1.5,1.5,0,0,0,.35-.41Zm-.88-1.54a.83.83,0,0,0-.27-.51.77.77,0,0,0-.27-.17.85.85,0,0,0-.32,0,.74.74,0,0,0-.33.05.81.81,0,0,0-.29.19.92.92,0,0,0-.27.48Z"></path> <path class="cls-14" d="M1343.46,335.27h.88v.35a1.23,1.23,0,0,1,.42-.33,1.17,1.17,0,0,1,.52-.12,1.19,1.19,0,0,1,.58.15,1,1,0,0,1,.42.41,1.37,1.37,0,0,1,1.13-.56,1.32,1.32,0,0,1,.62.15,1.3,1.3,0,0,1,.46.44,2,2,0,0,1,.19,1v2.34h-.88V337a1.74,1.74,0,0,0-.08-.68.45.45,0,0,0-.19-.24.56.56,0,0,0-.31-.09.84.84,0,0,0-.3.08.74.74,0,0,0-.23.2,1.62,1.62,0,0,0-.17.86v2h-.88v-2.09a1.74,1.74,0,0,0-.08-.68.45.45,0,0,0-.19-.24.56.56,0,0,0-.31-.09.84.84,0,0,0-.3.08.74.74,0,0,0-.23.2,1.62,1.62,0,0,0-.17.86v2h-.88Z"></path> <path class="cls-14" d="M1350.66,341.12h-.88v-5.85h.88v.41a1.55,1.55,0,0,1,.5-.38,1.5,1.5,0,0,1,.62-.13,1.94,1.94,0,0,1,.75.16,1.9,1.9,0,0,1,.62.44,2,2,0,0,1,.39.65,1.91,1.91,0,0,1,.09.75,2,2,0,0,1-.11.74,2,2,0,0,1-.39.65,2.07,2.07,0,0,1-.61.44,2,2,0,0,1-.73.17,1.36,1.36,0,0,1-.62-.16,1.42,1.42,0,0,1-.51-.4Zm0-3.93a1.14,1.14,0,0,0,0,.45,1,1,0,0,0,.22.39,1.14,1.14,0,0,0,.36.26,1.12,1.12,0,0,0,.44.09,1.16,1.16,0,0,0,.76-.4,1.2,1.2,0,0,0,0-1.61,1,1,0,0,0-1.22-.32.94.94,0,0,0-.38.27,1.14,1.14,0,0,0-.24.41,1.2,1.2,0,0,0,0,.46Z"></path> <path class="cls-14" d="M1357.94,338.19a1.8,1.8,0,0,1-.64.7,2.05,2.05,0,0,1-1.11.29,1.63,1.63,0,0,1-.69-.1,1.79,1.79,0,0,1-.59-.39,2,2,0,0,1-.42-.66,1.94,1.94,0,0,1-.14-.79,2.28,2.28,0,0,1,.6-1.56,1.93,1.93,0,0,1,.59-.38,1.75,1.75,0,0,1,.68-.13,1.84,1.84,0,0,1,.66.12,1.76,1.76,0,0,1,.56.37,2.26,2.26,0,0,1,.53,1.61v.1h-2.72a1.33,1.33,0,0,0,.32.77,1.08,1.08,0,0,0,.64.22,1.05,1.05,0,0,0,.64-.22,1,1,0,0,0,.35-.41Zm-.87-1.54a1,1,0,0,0-.27-.51,1,1,0,0,0-.61-.22,1,1,0,0,0-.61.22,1.15,1.15,0,0,0-.27.48Z"></path> <path class="cls-14" d="M1358.89,335.27h.88v.34a1.89,1.89,0,0,1,.37-.32,1.29,1.29,0,0,1,.54-.12,1.37,1.37,0,0,1,.69.18l-.36.8a.8.8,0,0,0-.45-.14.79.79,0,0,0-.3.05.67.67,0,0,0-.25.16,1.27,1.27,0,0,0-.24.88v2h-.88Z"></path> <path class="cls-14" d="M1364.46,335.28h.88v3.79h-.88v-.4a1.48,1.48,0,0,1-.51.38,1.52,1.52,0,0,1-.63.14,2,2,0,0,1-.73-.17,2.07,2.07,0,0,1-.61-.44,1.86,1.86,0,0,1-.38-.65,1.88,1.88,0,0,1-.11-.74,1.8,1.8,0,0,1,.1-.76,1.86,1.86,0,0,1,.38-.65,2.26,2.26,0,0,1,.62-.44,1.88,1.88,0,0,1,.74-.15,1.35,1.35,0,0,1,.63.13,1.24,1.24,0,0,1,.5.41Zm-2.07,1.91a1.35,1.35,0,0,0,0,.44,1.11,1.11,0,0,0,.22.38,1.1,1.1,0,0,0,.78.38,1,1,0,0,0,.44-.1,1,1,0,0,0,.36-.26,1,1,0,0,0,.23-.39,1.08,1.08,0,0,0,0-.44,1,1,0,0,0,0-.46,1,1,0,0,0-.22-.4,1,1,0,0,0-.36-.27,1,1,0,0,0-.45-.1,1,1,0,0,0-.43.1,1.09,1.09,0,0,0-.36.28,1,1,0,0,0-.21.39A1.14,1.14,0,0,0,1362.39,337.19Z"></path> <path class="cls-14" d="M1367.36,336.09v3h-.88v-3h-.37v-.81h.37v-1.36h.88v1.39h.68v.81Z"></path> <path class="cls-14" d="M1369.52,335.27v2.17a1,1,0,0,0,.16.68.63.63,0,0,0,.26.2.56.56,0,0,0,.31.06.59.59,0,0,0,.32-.06.63.63,0,0,0,.26-.2,1.08,1.08,0,0,0,.16-.68v-2.17h.88v2.19a1.51,1.51,0,0,1-.06.67,1.53,1.53,0,0,1-.34.58,1.66,1.66,0,0,1-1.23.47,1.54,1.54,0,0,1-.64-.11,1.58,1.58,0,0,1-.56-.36,1.53,1.53,0,0,1-.34-.58,1.67,1.67,0,0,1-.07-.67v-2.19Z"></path> <path class="cls-14" d="M1373,335.27h.88v.34a1.89,1.89,0,0,1,.37-.32,1.29,1.29,0,0,1,.54-.12,1.25,1.25,0,0,1,.69.18l-.36.8a.8.8,0,0,0-.45-.14.79.79,0,0,0-.3.05.67.67,0,0,0-.25.16,1.27,1.27,0,0,0-.24.88v2H1373Z"></path> <path class="cls-14" d="M1379.09,338.19a1.8,1.8,0,0,1-.64.7,2.05,2.05,0,0,1-1.11.29,1.63,1.63,0,0,1-.69-.1,1.79,1.79,0,0,1-.59-.39,2,2,0,0,1-.42-.66,1.94,1.94,0,0,1-.14-.79,2.28,2.28,0,0,1,.6-1.56,1.93,1.93,0,0,1,.59-.38,1.75,1.75,0,0,1,.68-.13,1.84,1.84,0,0,1,.66.12,1.76,1.76,0,0,1,.56.37,2.26,2.26,0,0,1,.53,1.61v.1h-2.72a1.27,1.27,0,0,0,.32.77,1.08,1.08,0,0,0,.64.22,1.05,1.05,0,0,0,.64-.22,1,1,0,0,0,.35-.41Zm-.87-1.54a1,1,0,0,0-.27-.51,1,1,0,0,0-.61-.22,1,1,0,0,0-.61.22,1.15,1.15,0,0,0-.27.48Z"></path> <path class="cls-14" d="M1404,335.44h2.57v-2.38h.92v6h-.92v-2.77H1404v2.77h-.92v-6h.92Z"></path> <path class="cls-14" d="M1409.65,335.27v2.17a1.15,1.15,0,0,0,.16.68.63.63,0,0,0,.26.2.88.88,0,0,0,.64,0,.6.6,0,0,0,.25-.2,1,1,0,0,0,.17-.68v-2.17h.88v2.19a1.51,1.51,0,0,1-.07.67,1.42,1.42,0,0,1-.34.58,1.66,1.66,0,0,1-1.23.47,1.68,1.68,0,0,1-1.2-.47,1.51,1.51,0,0,1-.33-.58,1.67,1.67,0,0,1-.07-.67v-2.19Z"></path> <path class="cls-14" d="M1413.12,335.27h.89v.35a1.19,1.19,0,0,1,.93-.45,1.18,1.18,0,0,1,.58.14,1.13,1.13,0,0,1,.42.42,1.33,1.33,0,0,1,.5-.41,1.39,1.39,0,0,1,.63-.15,1.32,1.32,0,0,1,.62.15,1.3,1.3,0,0,1,.46.44,1.84,1.84,0,0,1,.2,1v2.34h-.88V337a1.58,1.58,0,0,0-.09-.68.47.47,0,0,0-.19-.25.55.55,0,0,0-.31-.08.68.68,0,0,0-.52.28,1.62,1.62,0,0,0-.17.86v2h-.94v-2.09a1.74,1.74,0,0,0-.08-.68.47.47,0,0,0-.19-.25.55.55,0,0,0-.31-.08.68.68,0,0,0-.52.28,1.53,1.53,0,0,0-.17.86v2h-.89Z"></path> <path class="cls-14" d="M1419.88,333.13a.78.78,0,0,1,.22,0,.64.64,0,0,1,.19.13.59.59,0,0,1,.07.72.66.66,0,0,1-.26.21.53.53,0,0,1-.33,0,.54.54,0,0,1-.29-.15.64.64,0,0,1-.16-.29.53.53,0,0,1,0-.33.49.49,0,0,1,.21-.26A.57.57,0,0,1,1419.88,333.13Zm.44,2.14v3.79h-.88v-3.79Z"></path> <path class="cls-14" d="M1424.25,332.49h.88v6.57h-.88v-.4a1.45,1.45,0,0,1-.5.39,1.37,1.37,0,0,1-.63.13,1.84,1.84,0,0,1-.73-.16,2.07,2.07,0,0,1-.61-.44,1.74,1.74,0,0,1-.39-.65,2.73,2.73,0,0,1,0-1.5,2,2,0,0,1,.39-.65,1.89,1.89,0,0,1,1.36-.6,1.52,1.52,0,0,1,.63.14,1.35,1.35,0,0,1,.49.4Zm-2.07,4.69a1.09,1.09,0,0,0,.06.44.94.94,0,0,0,.22.39,1.31,1.31,0,0,0,.35.27,1.08,1.08,0,0,0,.43.1,1.12,1.12,0,0,0,.44-.09,1,1,0,0,0,.36-.26,1.09,1.09,0,0,0,.22-.39,1.34,1.34,0,0,0-.21-1.3,1.09,1.09,0,0,0-.36-.28,1.34,1.34,0,0,0-.45-.1,1.18,1.18,0,0,0-.45.1,1.22,1.22,0,0,0-.37.27,1.23,1.23,0,0,0-.23.4,1.14,1.14,0,0,0,0,.45Z"></path> <path class="cls-14" d="M1426.65,333.13a.78.78,0,0,1,.22,0,.64.64,0,0,1,.19.13.54.54,0,0,1,.16.4.45.45,0,0,1,0,.23.36.36,0,0,1-.12.18.5.5,0,0,1-.19.13.53.53,0,0,1-.22,0,.43.43,0,0,1-.22,0,.44.44,0,0,1-.18-.12.5.5,0,0,1-.13-.19.54.54,0,0,1,0-.22.57.57,0,0,1,0-.22.46.46,0,0,1,.13-.18.59.59,0,0,1,.18-.13.85.85,0,0,1,.22,0Zm.44,2.14v3.79h-.84v-3.79Z"></path> <path class="cls-14" d="M1429.12,336.09v3h-.87v-3h-.37v-.81h.37v-1.36h.88v1.39h.67v.81Z"></path> <path class="cls-14" d="M1431.68,338.46l-1.62-3.19h1.06l1.08,2.21,1.1-2.21h1l-3,5.85h-1Z"></path> <path class="cls-14" d="M1337.46,468.83V474h-.92v-5.14h-1.38V468h3.67v.86Z"></path> <path class="cls-14" d="M1342.52,473.12a2,2,0,0,1-.64.69,2.08,2.08,0,0,1-1.12.29,1.82,1.82,0,0,1-.69-.11,1.73,1.73,0,0,1-.59-.37,2,2,0,0,1-.42-.67,1.92,1.92,0,0,1-.14-.78,2.21,2.21,0,0,1,.61-1.56,1.85,1.85,0,0,1,.58-.39,1.68,1.68,0,0,1,1.9.37,2.21,2.21,0,0,1,.53,1.6v.11h-2.72a1.33,1.33,0,0,0,.33.77,1,1,0,0,0,.67.24.94.94,0,0,0,.61-.19,1.69,1.69,0,0,0,.35-.41Zm-.88-1.54a.78.78,0,0,0-.27-.51.65.65,0,0,0-.27-.17.7.7,0,0,0-.32,0,.63.63,0,0,0-.33.06.7.7,0,0,0-.29.19.85.85,0,0,0-.27.48Z"></path> <path class="cls-14" d="M1343.46,470.19h.88v.36a1.15,1.15,0,0,1,.42-.34,1,1,0,0,1,.52-.11,1.17,1.17,0,0,1,.58.13,1.13,1.13,0,0,1,.42.42,1.36,1.36,0,0,1,.5-.42,1.26,1.26,0,0,1,.63-.13,1.12,1.12,0,0,1,.62.15,1.14,1.14,0,0,1,.46.44,1.91,1.91,0,0,1,.19,1V474h-.88v-2.11a1.56,1.56,0,0,0-.08-.68.44.44,0,0,0-.19-.25.48.48,0,0,0-.31-.08.61.61,0,0,0-.53.28,1.59,1.59,0,0,0-.17.86V474h-.88v-2.08a1.56,1.56,0,0,0-.08-.68.44.44,0,0,0-.19-.25.48.48,0,0,0-.31-.08.61.61,0,0,0-.53.28,1.59,1.59,0,0,0-.17.86V474h-.88Z"></path> <path class="cls-14" d="M1350.66,476.05h-.88v-5.86h.88v.42a1.45,1.45,0,0,1,.5-.39,1.35,1.35,0,0,1,.62-.12,1.77,1.77,0,0,1,.75.15,1.9,1.9,0,0,1,.62.44,2,2,0,0,1,.39.65,1.94,1.94,0,0,1,.09.76,2.08,2.08,0,0,1-.11.74,2.12,2.12,0,0,1-.39.64,2.07,2.07,0,0,1-.61.44,1.87,1.87,0,0,1-.73.18,1.46,1.46,0,0,1-.62-.16,1.54,1.54,0,0,1-.51-.4Zm0-3.94a1.09,1.09,0,0,0,0,.44,1.09,1.09,0,0,0,.58.66,1.13,1.13,0,0,0,.44.1,1.22,1.22,0,0,0,.76-.41,1.2,1.2,0,0,0,0-1.61,1.16,1.16,0,0,0-.76-.4,1,1,0,0,0-.46.08,1.12,1.12,0,0,0-.38.26,1.14,1.14,0,0,0-.24.41,1.23,1.23,0,0,0,0,.47Z"></path> <path class="cls-14" d="M1357.94,473.12a1.92,1.92,0,0,1-.64.69,2.05,2.05,0,0,1-1.11.29,1.64,1.64,0,0,1-.69-.11,1.73,1.73,0,0,1-.59-.37,2,2,0,0,1-.42-.67,1.92,1.92,0,0,1-.14-.78,2.24,2.24,0,0,1,.6-1.56,1.85,1.85,0,0,1,.58-.39,1.71,1.71,0,0,1,1.91.37,2.3,2.3,0,0,1,.53,1.6v.11h-2.72a1.39,1.39,0,0,0,.32.77.92.92,0,0,0,.32.18,1.13,1.13,0,0,0,.36.06.92.92,0,0,0,.6-.19,1.24,1.24,0,0,0,.35-.41Zm-.87-1.54a.88.88,0,0,0-.27-.51.85.85,0,0,0-.61-.24.89.89,0,0,0-.61.24,1,1,0,0,0-.27.48Z"></path> <path class="cls-14" d="M1358.89,470.18h.88v.35a1.89,1.89,0,0,1,.37-.32,1,1,0,0,1,.54-.12,1.27,1.27,0,0,1,.69.18l-.36.8a.8.8,0,0,0-.45-.14.79.79,0,0,0-.3.05.67.67,0,0,0-.25.16,1.28,1.28,0,0,0-.24.87v2h-.88Z"></path> <path class="cls-14" d="M1364.46,470.19h.88V474h-.88v-.39a1.48,1.48,0,0,1-.51.38,1.51,1.51,0,0,1-.63.13,2,2,0,0,1-.73-.17,1.76,1.76,0,0,1-.61-.44,2,2,0,0,1-.39-.65,1.87,1.87,0,0,1-.1-.74,1.94,1.94,0,0,1,.09-.76,2,2,0,0,1,.39-.65,1.8,1.8,0,0,1,.62-.44,1.72,1.72,0,0,1,.74-.15,1.35,1.35,0,0,1,.63.13,1.24,1.24,0,0,1,.5.41Zm-2.07,1.91a1.11,1.11,0,0,0,0,.44,1.09,1.09,0,0,0,.22.39,1.17,1.17,0,0,0,.35.27,1.3,1.3,0,0,0,.43.11,1.22,1.22,0,0,0,.76-.41,1.2,1.2,0,0,0,0-1.61,1.16,1.16,0,0,0-.76-.4,1.08,1.08,0,0,0-.43.1,1.17,1.17,0,0,0-.35.27,1.09,1.09,0,0,0-.22.39,1.16,1.16,0,0,0,0,.45Z"></path> <path class="cls-14" d="M1367.36,471v3h-.88v-3h-.37v-.81h.37v-1.38h.88v1.38h.68V471Z"></path> <path class="cls-14" d="M1369.52,470.19v2.17a1.12,1.12,0,0,0,.16.69.7.7,0,0,0,.26.19.67.67,0,0,0,.31.07.71.71,0,0,0,.32-.07.7.7,0,0,0,.26-.19,1.06,1.06,0,0,0,.16-.69v-2.17h.88v2.2a1.49,1.49,0,0,1-.06.66,1.4,1.4,0,0,1-.9.93,1.79,1.79,0,0,1-1.87-.35,1.7,1.7,0,0,1-.34-.58,1.64,1.64,0,0,1-.07-.66v-2.2Z"></path> <path class="cls-14" d="M1373,470.18h.88v.35a1.89,1.89,0,0,1,.37-.32,1,1,0,0,1,.54-.12,1.25,1.25,0,0,1,.69.18l-.36.8a.8.8,0,0,0-.45-.14.79.79,0,0,0-.3.05.67.67,0,0,0-.25.16,1.28,1.28,0,0,0-.24.87v2H1373Z"></path> <path class="cls-14" d="M1379.09,473.12a1.92,1.92,0,0,1-.64.69,2.05,2.05,0,0,1-1.11.29,1.64,1.64,0,0,1-.69-.11,1.73,1.73,0,0,1-.59-.37,2,2,0,0,1-.42-.67,1.92,1.92,0,0,1-.14-.78,2.24,2.24,0,0,1,.6-1.56,1.85,1.85,0,0,1,.58-.39,1.71,1.71,0,0,1,1.91.37,2.3,2.3,0,0,1,.53,1.6v.11h-2.72a1.32,1.32,0,0,0,.32.77.92.92,0,0,0,.32.18,1.13,1.13,0,0,0,.36.06.92.92,0,0,0,.6-.19,1.24,1.24,0,0,0,.35-.41Zm-.87-1.54a.88.88,0,0,0-.27-.51.85.85,0,0,0-.61-.24.89.89,0,0,0-.61.24,1,1,0,0,0-.27.48Z"></path> <path class="cls-14" d="M1404,470.35h2.57V468h.92v6h-.92v-2.76H1404V474h-.92v-6h.92Z"></path> <path class="cls-14" d="M1409.65,470.19v2.17a1.2,1.2,0,0,0,.16.69.7.7,0,0,0,.26.19.77.77,0,0,0,.64,0,.67.67,0,0,0,.25-.19,1,1,0,0,0,.17-.69v-2.17h.88v2.2a1.48,1.48,0,0,1-.07.66,1.56,1.56,0,0,1-.34.58,1.79,1.79,0,0,1-1.21.46,1.83,1.83,0,0,1-1.22-.46,1.68,1.68,0,0,1-.33-.58,1.66,1.66,0,0,1-.07-.66v-2.2Z"></path> <path class="cls-14" d="M1413.12,470.19h.89v.36a1.12,1.12,0,0,1,.41-.34,1.06,1.06,0,0,1,.52-.11,1.08,1.08,0,0,1,.58.13,1.06,1.06,0,0,1,.42.42,1.36,1.36,0,0,1,.5-.42,1.37,1.37,0,0,1,.63-.13,1.2,1.2,0,0,1,.62.14,1.24,1.24,0,0,1,.46.45,1.82,1.82,0,0,1,.2,1V474h-.88v-2.11a1.56,1.56,0,0,0-.09-.68.44.44,0,0,0-.19-.25.48.48,0,0,0-.31-.08.59.59,0,0,0-.29.07.66.66,0,0,0-.23.21,1.59,1.59,0,0,0-.17.86V474h-.94v-2.08a1.57,1.57,0,0,0-.08-.68.44.44,0,0,0-.19-.25.48.48,0,0,0-.31-.08.59.59,0,0,0-.29.07.66.66,0,0,0-.23.21,1.5,1.5,0,0,0-.17.86V474h-.89Z"></path> <path class="cls-14" d="M1419.88,468.06a.53.53,0,0,1,.22,0,.5.5,0,0,1,.19.13.35.35,0,0,1,.12.19.41.41,0,0,1,0,.22.49.49,0,0,1,0,.24.61.61,0,0,1-.11.21.56.56,0,0,1-.2.14.59.59,0,0,1-.23,0,.69.69,0,0,1-.24,0,.52.52,0,0,1-.19-.14.88.88,0,0,1-.12-.21.65.65,0,0,1,0-.24.54.54,0,0,1,0-.22.62.62,0,0,1,.12-.19.54.54,0,0,1,.4-.16Zm.44,2.13V474h-.88v-3.79Z"></path> <path class="cls-14" d="M1424.25,467.42h.88V474h-.88v-.39a1.55,1.55,0,0,1-.5.38,1.51,1.51,0,0,1-.63.13,2,2,0,0,1-.74-.17,1.76,1.76,0,0,1-.61-.44,2,2,0,0,1-.39-.65,1.87,1.87,0,0,1-.1-.74,1.77,1.77,0,0,1,.1-.76,1.74,1.74,0,0,1,.39-.65,1.83,1.83,0,0,1,1.36-.59,1.37,1.37,0,0,1,.63.13,1.29,1.29,0,0,1,.49.41Zm-2.07,4.68a1.3,1.3,0,0,0,0,.44,1.26,1.26,0,0,0,.22.39,1.22,1.22,0,0,0,.36.27,1.24,1.24,0,0,0,.43.11,1.22,1.22,0,0,0,.76-.41,1.2,1.2,0,0,0,0-1.61,1.16,1.16,0,0,0-.76-.4,1.12,1.12,0,0,0-.44.09,1.11,1.11,0,0,0-.37.27.92.92,0,0,0-.23.39,1.19,1.19,0,0,0-.06.46Z"></path> <path class="cls-14" d="M1426.65,468.06a.53.53,0,0,1,.22,0,.5.5,0,0,1,.19.13.35.35,0,0,1,.12.19.41.41,0,0,1,0,.22.54.54,0,0,1-.16.4.5.5,0,0,1-.19.13.78.78,0,0,1-.22,0,.85.85,0,0,1-.22,0,.7.7,0,0,1-.31-.31.57.57,0,0,1,0-.22.54.54,0,0,1,0-.22.5.5,0,0,1,.13-.19.54.54,0,0,1,.4-.16Zm.44,2.13V474h-.84v-3.79Z"></path> <path class="cls-14" d="M1429.12,471v3h-.87v-3h-.37v-.81h.37v-1.38h.88v1.38h.67V471Z"></path> <path class="cls-14" d="M1431.68,473.39l-1.62-3.2h1.06l1.08,2.22,1.1-2.22h1l-3,5.86h-1Z"></path> <path class="cls-13" d="M1244.28,151.74h-12.66v-9.09l6.33-4.22,6.33,4.22Z"></path> <path class="cls-16" d="M1439.25,78.92h-198.9a41.62,41.62,0,0,0-41.64,41.63V616.92a41.65,41.65,0,0,0,41.64,41.62h198.9a41.62,41.62,0,0,0,41.66-41.62V120.55a41.63,41.63,0,0,0-41.66-41.63Zm28.58,534.41A31.65,31.65,0,0,1,1436.25,645H1243.93a31.65,31.65,0,0,1-31.68-31.65v-489a31.63,31.63,0,0,1,31.68-31.62h25.41a6.43,6.43,0,0,1,2.49.49,6.51,6.51,0,0,1,3.52,3.52,6.48,6.48,0,0,1,.49,2.5h0A16.83,16.83,0,0,0,1292.66,116H1387a16.82,16.82,0,0,0,16.82-16.82h0a6.49,6.49,0,0,1,4-6,6.46,6.46,0,0,1,2.49-.49h26a31.65,31.65,0,0,1,31.65,31.65Z"></path> <path class="cls-17" d="M1350.5,92.7h-27.89a3.32,3.32,0,1,0,0,6.64h27.89a3.32,3.32,0,0,0,0-6.64Z"></path> <path class="cls-17" d="M1367,101.5a5.47,5.47,0,1,0-5.47-5.47A5.47,5.47,0,0,0,1367,101.5Z"></path> <path class="cls-18" d="M1437.82,184.86H1240.71a9.09,9.09,0,0,0-9.09,9.09V294a9.09,9.09,0,0,0,9.09,9.09h197.11a9.09,9.09,0,0,0,9.09-9.09V194A9.09,9.09,0,0,0,1437.82,184.86Z"></path> <path class="cls-18" d="M1437.82,320H1240.71a9.09,9.09,0,0,0-9.09,9.09V429.13a9.09,9.09,0,0,0,9.09,9.09h197.11a9.09,9.09,0,0,0,9.09-9.09V329.06A9.09,9.09,0,0,0,1437.82,320Z"></path> <path class="cls-18" d="M1437.82,455.06H1240.71a9.09,9.09,0,0,0-9.09,9.09V564.22a9.09,9.09,0,0,0,9.09,9.09h197.11a9.09,9.09,0,0,0,9.09-9.09V464.15A9.09,9.09,0,0,0,1437.82,455.06Z"></path> <path class="cls-18" d="M1254.11,552.09h-5.68a4.15,4.15,0,0,0-4.15,4.15v1.52a4.15,4.15,0,0,0,4.15,4.15h5.68a4.15,4.15,0,0,0,4.15-4.15v-1.52A4.15,4.15,0,0,0,1254.11,552.09Z"></path> <path class="cls-18" d="M1247.25,552.63v-3a4,4,0,0,1,8,0v3"></path> <path class="cls-18" d="M1254.11,416.1h-5.68a4.15,4.15,0,0,0-4.15,4.15v1.52a4.15,4.15,0,0,0,4.15,4.15h5.68a4.15,4.15,0,0,0,4.15-4.15v-1.52A4.15,4.15,0,0,0,1254.11,416.1Z"></path> <path class="cls-18" d="M1247.25,416.65v-3a4,4,0,0,1,8,0v3"></path> <path class="cls-18" d="M1251.27,419.09v3.85"></path> <path class="cls-18" d="M1254.11,281.65h-5.68a4.15,4.15,0,0,0-4.15,4.15v1.52a4.15,4.15,0,0,0,4.15,4.15h5.68a4.15,4.15,0,0,0,4.15-4.15V285.8A4.15,4.15,0,0,0,1254.11,281.65Z"></path> <path class="cls-18" d="M1247.25,282.2v-3a4,4,0,0,1,8,0v3"></path> <path class="cls-18" d="M1251.27,284.63v3.85"></path> <path class="cls-18" d="M1251.27,555.06v3.85"></path> </g> </g> <g id="Layer_7" data-name="Layer 7"> <path class="cls-2" d="M347.14,600.86V176.16a10,10,0,0,0-9.19-10c-28.71-2.33-116.76-9.24-149.9-9.24s-121.2,6.91-149.9,9.24a10,10,0,0,0-9.19,10v424.7Z"></path> <path class="cls-19" d="M297.91,595l-.75-432c17.07,1.27,31.82,2.44,40.79,3.17a10,10,0,0,1,9.19,10v416.7L297.91,595"></path> <path class="cls-20" d="M78.93,595.06l-50-2.2V176.16a10,10,0,0,1,9.19-10c9-.73,23.72-1.9,40.78-3.17Z"></path> <circle class="cls-21" cx="106.93" cy="294.87" r="15.8"></circle> <circle class="cls-21" cx="106.93" cy="346.87" r="15.8"></circle> <circle class="cls-21" cx="106.93" cy="398.87" r="15.8"></circle> <circle class="cls-21" cx="106.93" cy="450.87" r="15.8"></circle> <circle class="cls-21" cx="269.93" cy="294.87" r="15.8"></circle> <circle class="cls-21" cx="269.93" cy="346.87" r="15.8"></circle> <circle class="cls-21" cx="269.93" cy="398.87" r="15.8"></circle> <circle class="cls-21" cx="269.93" cy="450.87" r="15.8"></circle> <circle class="cls-21" cx="188.43" cy="286.87" r="15.8"></circle> <circle class="cls-21" cx="188.43" cy="338.87" r="15.8"></circle> <circle class="cls-21" cx="188.43" cy="390.87" r="15.8"></circle> <circle class="cls-21" cx="188.43" cy="442.87" r="15.8"></circle> <circle class="cls-21" cx="149.98" cy="517.68" r="15.8"></circle> <circle class="cls-21" cx="226.12" cy="517.68" r="15.8"></circle> <circle class="cls-22" cx="95.53" cy="514.79" r="4.4"></circle> <circle class="cls-22" cx="281.32" cy="514.79" r="4.4"></circle> <path class="cls-23" d="M177.15,229.91a11.12,11.12,0,0,1,21.7-.37"></path> <polygon class="cls-23" points="154.53 523.34 145.43 523.34 145.43 514.24 149.98 510.02 154.53 514.24 154.53 523.34"></polygon> <polygon class="cls-24" points="230.66 523.34 221.57 523.34 221.57 514.24 226.12 510.02 230.66 514.24 230.66 523.34"></polygon> <line class="cls-25" x1="78.93" y1="172.9" x2="163.52" y2="166.54"></line> <path d="M108.32,301.44h-2.47v-9.31a8.62,8.62,0,0,1-3.19,1.88v-2.24a7.7,7.7,0,0,0,2.1-1.2,4.58,4.58,0,0,0,1.55-2.07h2Z"></path> <path d="M192.33,290.38v2.29h-8.66a6.07,6.07,0,0,1,.85-2.47,16.5,16.5,0,0,1,2.77-3.09,17.18,17.18,0,0,0,2.05-2.1,2.74,2.74,0,0,0,.51-1.52,1.75,1.75,0,0,0-.44-1.27,1.7,1.7,0,0,0-1.23-.44,1.63,1.63,0,0,0-1.23.47,2.42,2.42,0,0,0-.53,1.54l-2.46-.24a4.06,4.06,0,0,1,1.38-2.93,4.66,4.66,0,0,1,2.9-.89,4.19,4.19,0,0,1,3,1,3.37,3.37,0,0,1,1.09,2.56A4.36,4.36,0,0,1,192,285a6.67,6.67,0,0,1-1,1.65,16.51,16.51,0,0,1-1.62,1.65c-.78.71-1.27,1.19-1.48,1.42a3.33,3.33,0,0,0-.5.69Z"></path> <path d="M265.45,298l2.39-.29a2.25,2.25,0,0,0,.62,1.4,1.74,1.74,0,0,0,2.5-.1,2.26,2.26,0,0,0,.52-1.56A2.14,2.14,0,0,0,271,296a1.61,1.61,0,0,0-1.22-.54,4.43,4.43,0,0,0-1.14.18l.27-2a2.14,2.14,0,0,0,1.53-.44A1.5,1.5,0,0,0,271,292a1.41,1.41,0,0,0-.39-1,1.36,1.36,0,0,0-1-.38,1.46,1.46,0,0,0-1.08.43,2.14,2.14,0,0,0-.55,1.29l-2.28-.39a5.14,5.14,0,0,1,.72-1.87,3.27,3.27,0,0,1,1.34-1.1,4.58,4.58,0,0,1,1.92-.4,3.83,3.83,0,0,1,2.91,1.16,2.94,2.94,0,0,1-.94,4.86,3,3,0,0,1,1.77,1.06,3.11,3.11,0,0,1,.66,2,3.86,3.86,0,0,1-1.24,2.89,4.29,4.29,0,0,1-3.08,1.19,4.23,4.23,0,0,1-2.9-1A4,4,0,0,1,265.45,298Z"></path> <path d="M106.84,353.44v-2.59h-5.27v-2.16l5.59-8.19h2.07v8.18h1.6v2.17h-1.6v2.59Zm0-4.76v-4.4l-3,4.4Z"></path> <path d="M184,341.36l2.46-.26a2.11,2.11,0,0,0,.63,1.32,1.68,1.68,0,0,0,2.5-.14,2.84,2.84,0,0,0,.54-1.89,2.61,2.61,0,0,0-.53-1.78,1.77,1.77,0,0,0-1.39-.59,2.49,2.49,0,0,0-1.9.94l-2-.29,1.27-6.71h6.53v2.31h-4.66l-.39,2.19a3.8,3.8,0,0,1,4.48.78,4.32,4.32,0,0,1,1.14,3.11,4.65,4.65,0,0,1-.92,2.83,4.09,4.09,0,0,1-3.49,1.71,4.33,4.33,0,0,1-2.91-1A4,4,0,0,1,184,341.36Z"></path> <path d="M273.9,343.71l-2.39.27a1.7,1.7,0,0,0-.45-1.09,1.32,1.32,0,0,0-1-.35,1.61,1.61,0,0,0-1.32.7,5.87,5.87,0,0,0-.68,2.92,2.89,2.89,0,0,1,2.29-1.08,3.52,3.52,0,0,1,2.65,1.17,4.3,4.3,0,0,1,1.1,3,4.35,4.35,0,0,1-1.16,3.18,4.24,4.24,0,0,1-6.19-.32q-1.25-1.51-1.25-5c0-2.37.43-4.07,1.31-5.11a4.23,4.23,0,0,1,3.4-1.57,3.6,3.6,0,0,1,2.43.83A3.8,3.8,0,0,1,273.9,343.71Zm-5.59,5.39a2.81,2.81,0,0,0,.55,1.86,1.61,1.61,0,0,0,1.27.65,1.44,1.44,0,0,0,1.14-.53,2.75,2.75,0,0,0,.46-1.76,2.81,2.81,0,0,0-.5-1.84,1.57,1.57,0,0,0-2.43,0A2.41,2.41,0,0,0,268.31,349.1Z"></path> <path d="M103,395v-2.3h8.44v1.8a13.42,13.42,0,0,0-2.12,3,17.35,17.35,0,0,0-1.65,4.09,15,15,0,0,0-.56,3.87h-2.38a16.64,16.64,0,0,1,1.1-5.45,18,18,0,0,1,2.78-5Z"></path> <path d="M186.11,389.72a2.9,2.9,0,0,1-1.4-1.11,2.93,2.93,0,0,1-.43-1.56,3.12,3.12,0,0,1,1-2.38,4.82,4.82,0,0,1,5.72,0,3.09,3.09,0,0,1,1,2.38,2.83,2.83,0,0,1-.46,1.6,3,3,0,0,1-1.31,1.07,3.41,3.41,0,0,1,1.63,1.25,3.35,3.35,0,0,1,.56,1.91,3.87,3.87,0,0,1-1.14,2.9,4.12,4.12,0,0,1-3,1.12,4.62,4.62,0,0,1-2.93-.92,3.62,3.62,0,0,1-1.38-3,3.74,3.74,0,0,1,.52-1.92A3.28,3.28,0,0,1,186.11,389.72Zm.28,3a2.26,2.26,0,0,0,.52,1.59,1.7,1.7,0,0,0,1.31.57,1.61,1.61,0,0,0,1.26-.55,2.22,2.22,0,0,0,.5-1.58,2.06,2.06,0,0,0-.51-1.46,1.67,1.67,0,0,0-1.29-.55,1.55,1.55,0,0,0-1.35.63A2.29,2.29,0,0,0,186.39,392.75Zm.23-5.52a1.57,1.57,0,0,0,.41,1.15,1.5,1.5,0,0,0,1.12.41,1.52,1.52,0,0,0,1.12-.41,1.57,1.57,0,0,0,.42-1.16,1.5,1.5,0,0,0-.42-1.11,1.46,1.46,0,0,0-1.1-.42,1.45,1.45,0,0,0-1.55,1.54Z"></path> <path d="M265.59,402.46l2.39-.26a1.69,1.69,0,0,0,.46,1.08,1.36,1.36,0,0,0,1,.35,1.57,1.57,0,0,0,1.3-.7,6,6,0,0,0,.69-2.92,3,3,0,0,1-2.33,1.08,3.48,3.48,0,0,1-2.62-1.17,4.26,4.26,0,0,1-1.11-3.06,4.34,4.34,0,0,1,1.17-3.16,3.94,3.94,0,0,1,3-1.2,4,4,0,0,1,3.21,1.52q1.26,1.51,1.26,5t-1.31,5.1a4.24,4.24,0,0,1-3.41,1.56,3.62,3.62,0,0,1-2.44-.8A3.88,3.88,0,0,1,265.59,402.46Zm5.59-5.39a2.81,2.81,0,0,0-.55-1.86,1.63,1.63,0,0,0-1.27-.66,1.42,1.42,0,0,0-1.14.54,2.77,2.77,0,0,0-.45,1.77,2.81,2.81,0,0,0,.49,1.84,1.54,1.54,0,0,0,1.23.58,1.53,1.53,0,0,0,1.2-.56A2.44,2.44,0,0,0,271.18,397.07Z"></path> <path d="M105.52,446.84v-2.28H108v2.28Zm0,10.6v-9.33H108v9.33Z"></path> <path d="M188.16,435.73a3.53,3.53,0,0,1,2.93,1.34q1.26,1.57,1.26,5.24t-1.27,5.26a3.52,3.52,0,0,1-2.92,1.32,3.68,3.68,0,0,1-3-1.45Q184,446,184,442.29c0-2.43.42-4.17,1.27-5.24A3.5,3.5,0,0,1,188.16,435.73Zm0,2a1.2,1.2,0,0,0-.8.29,2,2,0,0,0-.54,1,20.65,20.65,0,0,0,0,6.34,2.18,2.18,0,0,0,.58,1.13,1.19,1.19,0,0,0,.79.28,1.22,1.22,0,0,0,.8-.28,1.92,1.92,0,0,0,.55-1,14,14,0,0,0,.25-3.22,13.45,13.45,0,0,0-.23-3.11,2.18,2.18,0,0,0-.57-1.13A1.18,1.18,0,0,0,188.16,437.78Z"></path> <path d="M266.13,454.23h-1.2V452.3h1.58l.53-2.59h-2.11v-1.94h2.51l.69-3.43h2l-.7,3.43h2l.67-3.43h2l-.7,3.43h1.21v1.94H273l-.52,2.59h2.13v1.93H272l-.69,3.43h-2l.67-3.43h-1.95l-.69,3.43h-2Zm2.89-4.52-.52,2.59h1.95l.51-2.59Z"></path> <path class="cls-16" d="M459.85,461.2H335.58a14,14,0,0,1-13.95-12.88l-5.8-72.69a500.4,500.4,0,0,1,0-79.53l5.8-72.69a14,14,0,0,1,13.95-12.89H459.85a14,14,0,0,1,13.95,12.89l5.8,72.69a500.4,500.4,0,0,1,0,79.53l-5.8,72.69A14,14,0,0,1,459.85,461.2Z"></path> <path class="cls-26" d="M464.49,307.7h0a405.93,405.93,0,0,1,0,64.86l-4.72,59.28a11.43,11.43,0,0,1-11.39,10.51H347.05a11.43,11.43,0,0,1-11.39-10.51l-4.73-59.28a408.28,408.28,0,0,1,0-64.86h0a10.54,10.54,0,0,1,10.51-9.7H454A10.52,10.52,0,0,1,464.49,307.7Z"></path> <path class="cls-27" d="M325.21,411.15l-2.71-33.93q-.66-8.27-1-16.55"></path> <path class="cls-27" d="M327.89,442.35a12.58,12.58,0,0,1-.36-2.14l-1.15-14.35"></path> <rect class="cls-28" x="385.65" y="325.74" width="24.13" height="16.96" rx="4.15"></rect> <path class="cls-28" d="M390.77,325v-5.13a6.95,6.95,0,1,1,13.89,0V325"></path> <line class="cls-28" x1="397.71" y1="331.1" x2="397.71" y2="337.75"></line> <rect class="cls-28" x="385.65" y="407.1" width="24.13" height="16.96" rx="4.15"></rect> <path class="cls-28" d="M404.87,407.1V402a6.95,6.95,0,1,1,13.9,0v5.13"></path> <line class="cls-28" x1="397.71" y1="413.08" x2="397.71" y2="419.73"></line> <circle class="cls-29" cx="397.71" cy="372.43" r="8.48"></circle> <path class="cls-30" d="M1092.5,541h-2.43c-87.15,0-156-74-149.6-160.94L949,263a142.63,142.63,0,0,1,142.25-132.23h0A142.63,142.63,0,0,1,1233.54,263l8.56,117C1248.45,466.94,1179.65,541,1092.5,541Z"></path> <circle class="cls-31" cx="1091.28" cy="273.3" r="110.67"></circle> <path class="cls-6" d="M1206.05,460.36a25.91,25.91,0,0,1-5.73,16.3,138.05,138.05,0,0,1-107.92,51.72h-2.24a138,138,0,0,1-107.91-51.72,26,26,0,0,1-5.74-16.29V354.64a26,26,0,0,1,16.86-24.34,278.77,278.77,0,0,1,195.82,0,26,26,0,0,1,16.86,24.34Z"></path> <path class="cls-9" d="M1150.06,303.78q-9.75-2.11-19.77-3.52V249.63a4,4,0,0,1,5.83-3.56h0A21.91,21.91,0,0,1,1148,264.39Z"></path> <path class="cls-9" d="M1073.26,298.12a278.09,278.09,0,0,0-38.57,5.19V253.73c0-18.37,5.09-36.31,13.63-37.16s-2.79,27.34,5.66,27.34h.25a18.92,18.92,0,0,1,19,18.89Z"></path> <path class="cls-9" d="M1037.68,331.27A192.16,192.16,0,0,1,1069,326a4,4,0,0,1,4.3,4v7.78s-20,1.4-38.57,11.47V335.14A4,4,0,0,1,1037.68,331.27Z"></path> <path class="cls-9" d="M1133.56,326.16a68.74,68.74,0,0,1,14.42,2.93,3,3,0,0,1,2.08,2.87v9a51.5,51.5,0,0,0-19.77-7.52v-4.33A3,3,0,0,1,1133.56,326.16Z"></path> <path class="cls-2" d="M1558.31,491.76l-29.42,5.39a99.75,99.75,0,0,1-35.52.1L1463.93,492a10,10,0,0,1-8.25-9.82l-.79-291.73a10,10,0,0,1,8.19-9.86l36.52-6.69a60.07,60.07,0,0,1,21.31-.06l36.55,6.5a10,10,0,0,1,8.25,9.81l.79,291.73A10,10,0,0,1,1558.31,491.76Z"></path> <path class="cls-32" d="M1474.85,493.94l-11.35-2.05a10,10,0,0,1-8.22-9.84V190.32a10,10,0,0,1,8.22-9.84l10.19-1.84Z"></path> <path class="cls-33" d="M1546,494l11.88-2.15a10,10,0,0,0,8.23-9.84V190.32a10,10,0,0,0-8.23-9.84l-11.34-2Z"></path> <circle class="cls-22" cx="1537.91" cy="418.52" r="6.93"></circle> <path class="cls-34" d="M1508.09,248.8a11.12,11.12,0,0,1,0-21.62"></path> <path class="cls-34" d="M1512.94,227.14a11.12,11.12,0,0,1,.37,21.7"></path> <line class="cls-34" x1="1508.27" y1="234.12" x2="1508.27" y2="241.87"></line> <line class="cls-34" x1="1513.12" y1="234.12" x2="1513.12" y2="241.87"></line> <path class="cls-9" d="M953.14,39.56V170.33a1,1,0,0,1-2,.07c-2.69-41.87-7.16-113.09-7.16-125,0-9.16,2.63-11,5.07-10.68A4.84,4.84,0,0,1,953.14,39.56Z"></path> </g> </svg> 