<?xml version="1.0" encoding="UTF-8"?> <svg xmlns="http://www.w3.org/2000/svg" xmlns:xlink="http://www.w3.org/1999/xlink" viewBox="0 0 1578.73 731.25"> <defs> <style>.cls-1,.cls-11,.cls-19,.cls-21,.cls-23,.cls-29,.cls-30,.cls-33,.cls-34,.cls-35,.cls-40,.cls-7{fill:none;}.cls-2{fill:#eaeaea;}.cls-3{fill:url(#linear-gradient);}.cls-4{fill:url(#linear-gradient-2);}.cls-5{fill:#1c1c1c;}.cls-6{fill:url(#linear-gradient-3);}.cls-33,.cls-34,.cls-7{stroke:#fff;}.cls-11,.cls-19,.cls-21,.cls-27,.cls-28,.cls-29,.cls-30,.cls-31,.cls-33,.cls-34,.cls-35,.cls-40,.cls-7{stroke-linecap:round;stroke-linejoin:round;}.cls-11,.cls-27,.cls-29,.cls-30,.cls-31,.cls-33,.cls-34,.cls-35,.cls-7{stroke-width:2px;}.cls-7{opacity:0.2;}.cls-8{fill:#e0e0e0;}.cls-12,.cls-8,.cls-9{opacity:0.5;}.cls-9{fill:#ccc;}.cls-10{fill:#262626;}.cls-11{stroke:#262626;}.cls-12,.cls-15{fill:#fff;}.cls-13{clip-path:url(#clip-path);}.cls-14{fill:#efefef;}.cls-16{fill:#009975;}.cls-17{fill:#8e8e8e;}.cls-18{fill:#0f0f0f;}.cls-19,.cls-23{stroke:#bcbcbc;}.cls-20{fill:#bcbcbc;}.cls-21{stroke:#009975;}.cls-22{fill:#0c0c0c;}.cls-23{stroke-miterlimit:10;}.cls-24{fill:url(#linear-gradient-4);}.cls-25{fill:url(#linear-gradient-5);}.cls-26{fill:url(#linear-gradient-6);}.cls-27{fill:#b6c7d3;stroke:#9ba6aa;}.cls-28,.cls-30,.cls-31,.cls-40{stroke:#000;}.cls-29{stroke:#0c0c0c;}.cls-32{fill:url(#linear-gradient-7);}.cls-33{opacity:0.7;}.cls-35{stroke:#ce2200;}.cls-36{fill:#e2e2e2;}.cls-37{fill:url(#radial-gradient);}.cls-38,.cls-39{opacity:0.6;}.cls-38{fill:url(#linear-gradient-8);}.cls-39{fill:url(#linear-gradient-9);}</style> <linearGradient id="linear-gradient" x1="432.6" y1="336.7" x2="506.42" y2="336.7" gradientUnits="userSpaceOnUse"> <stop offset="0" stop-opacity="0.2"></stop> <stop offset="1" stop-color="#eaeaea" stop-opacity="0"></stop> </linearGradient> <linearGradient id="linear-gradient-2" x1="1038.65" y1="336.42" x2="1107.88" y2="336.42" gradientUnits="userSpaceOnUse"> <stop offset="0" stop-color="#eaeaea" stop-opacity="0"></stop> <stop offset="1" stop-opacity="0.2"></stop> </linearGradient> <linearGradient id="linear-gradient-3" x1="397.71" y1="631.3" x2="533.86" y2="631.3" gradientUnits="userSpaceOnUse"> <stop offset="0" stop-opacity="0"></stop> <stop offset="1" stop-opacity="0.5"></stop> </linearGradient> <clipPath id="clip-path"> <rect class="cls-1" x="1171.18" y="78.9" width="370.7" height="579.62"></rect> </clipPath> <linearGradient id="linear-gradient-4" x1="279.49" y1="625.7" x2="329" y2="625.7" gradientUnits="userSpaceOnUse"> <stop offset="0" stop-opacity="0"></stop> <stop offset="1" stop-opacity="0.7"></stop> </linearGradient> <linearGradient id="linear-gradient-5" x1="279.25" y1="378.42" x2="329" y2="378.42" xlink:href="#linear-gradient-2"></linearGradient> <linearGradient id="linear-gradient-6" x1="12.25" y1="378.43" x2="62" y2="378.43" xlink:href="#linear-gradient"></linearGradient> <linearGradient id="linear-gradient-7" x1="12.25" y1="625.7" x2="62" y2="625.7" gradientUnits="userSpaceOnUse"> <stop offset="0" stop-opacity="0.7"></stop> <stop offset="1" stop-color="#1c1c1c" stop-opacity="0"></stop> </linearGradient> <radialGradient id="radial-gradient" cx="1091.28" cy="454.51" r="110.67" gradientUnits="userSpaceOnUse"> <stop offset="0" stop-color="#fff"></stop> <stop offset="1" stop-color="#fff" stop-opacity="0"></stop> </radialGradient> <linearGradient id="linear-gradient-8" x1="1454.28" y1="557.11" x2="1473.85" y2="557.11" xlink:href="#linear-gradient"></linearGradient> <linearGradient id="linear-gradient-9" x1="1545" y1="557.05" x2="1565.11" y2="557.05" xlink:href="#linear-gradient-2"></linearGradient> </defs> <title>6Artboard 38</title> <g id="Layer_1" data-name="Layer 1"> <path class="cls-2" d="M973.77,14.36l16.86,10.36a29.87,29.87,0,0,0,10,3.9l92.59,17.76a18,18,0,0,1,14.61,17.68V612.57a18,18,0,0,1-15.83,17.87L1001,641.51a30,30,0,0,0-10.72,3.43l-17.1,9.31a35,35,0,0,1-16.74,4.26H584a34.91,34.91,0,0,1-16.73-4.26l-17.11-9.31a30,30,0,0,0-10.71-3.43l-91.07-11.07a18,18,0,0,1-15.82-17.87V64.06a18,18,0,0,1,14.61-17.68l92.58-17.76a29.87,29.87,0,0,0,10.05-3.9L566.7,14.36A35,35,0,0,1,585,9.18H955.45A35,35,0,0,1,973.77,14.36Z"></path> <path class="cls-3" d="M506.42,637.49l-58-7a18,18,0,0,1-15.82-17.87V64.06a18,18,0,0,1,14.61-17.68L501.83,35.9Z"></path> <path class="cls-4" d="M1038.65,636.93l53.4-6.49a18,18,0,0,0,15.83-17.87V64.06a18,18,0,0,0-14.61-17.68L1038.65,35.9Z"></path> <path class="cls-5" d="M527.92,722.33H403.66a14,14,0,0,1-14-12.89l-5.8-72.69a500.4,500.4,0,0,1,0-79.53l5.8-72.69a14,14,0,0,1,14-12.88H527.92a14,14,0,0,1,14,12.88l5.8,72.69a500.4,500.4,0,0,1,0,79.53l-5.8,72.69A14,14,0,0,1,527.92,722.33Z"></path> <path class="cls-6" d="M532.57,568.82h0a408.28,408.28,0,0,1,0,64.86L527.84,693a11.42,11.42,0,0,1-11.38,10.51H415.12A11.41,11.41,0,0,1,403.74,693L399,633.68a405.93,405.93,0,0,1,0-64.86h0a10.53,10.53,0,0,1,10.5-9.7H522.06A10.54,10.54,0,0,1,532.57,568.82Z"></path> <path class="cls-7" d="M393.28,672.27l-2.71-33.93q-.66-8.26-1-16.55"></path> <path class="cls-7" d="M396,703.47a12.42,12.42,0,0,1-.36-2.14L394.45,687"></path> <path class="cls-8" d="M549.84,24.72V644.94l16.81,8.9a6,6,0,0,0,8.81-5.3V19.71a6,6,0,0,0-9.14-5.11Z"></path> <path class="cls-9" d="M990.28,24.72V644.94l-16.8,8.9a6,6,0,0,1-8.81-5.3V19.71a6,6,0,0,1,9.14-5.11Z"></path> <path class="cls-10" d="M684.9,332.45a4.13,4.13,0,0,0-4.08-2.64c-2.48,0-3.76,1.48-3.76,3.2,0,.8.28,2.2,2.88,3.24l2.68,1.08c4.92,2,6.28,4.8,6.28,7.84a8.22,8.22,0,0,1-8.6,8.56,7.81,7.81,0,0,1-6.28-2.68,8.64,8.64,0,0,1-2.24-5.2l4-.88a5.76,5.76,0,0,0,1.12,3.4,4.21,4.21,0,0,0,3.48,1.6,4.29,4.29,0,0,0,4.4-4.48c0-2.72-2.08-3.84-3.84-4.56l-2.56-1.08c-2.2-.92-5.44-2.76-5.44-6.76,0-3.6,2.8-7,7.8-7a7.87,7.87,0,0,1,5.36,1.8,9.09,9.09,0,0,1,2,2.68Z"></path> <path class="cls-10" d="M697.22,336.37V346a4.85,4.85,0,0,0,.72,3,3.4,3.4,0,0,0,5.12,0,4.85,4.85,0,0,0,.72-3v-9.64h3.92v9.76c0,2.16-.24,4-1.8,5.52a7.68,7.68,0,0,1-5.48,2.08,7.4,7.4,0,0,1-5.32-2.08c-1.56-1.56-1.8-3.36-1.8-5.52v-9.76Z"></path> <path class="cls-10" d="M716.58,362.37h-3.92v-26h3.92v1.84a6.33,6.33,0,0,1,5-2.28c4.44,0,8.2,3.4,8.2,8.76,0,5.68-4.16,9-8.16,9a6.69,6.69,0,0,1-5-2.48Zm-.24-17.48c0,3.52,2.28,5.32,4.76,5.32,2.84,0,4.68-2.44,4.68-5.36s-1.84-5.4-4.68-5.4C718.62,339.45,716.34,341.21,716.34,344.89Z"></path> <path class="cls-10" d="M748.94,349.37a8.83,8.83,0,0,1-2.84,3.08,9.26,9.26,0,0,1-5,1.28,7.47,7.47,0,0,1-5.68-2.16,9,9,0,0,1-2.48-6.44,9.87,9.87,0,0,1,2.68-6.92,7.67,7.67,0,0,1,5.64-2.28,7.25,7.25,0,0,1,5.4,2.2c2.16,2.24,2.36,5.36,2.36,7.12v.48H737a5.57,5.57,0,0,0,1.44,3.4,4,4,0,0,0,3,1.08,4.13,4.13,0,0,0,2.68-.84,6.08,6.08,0,0,0,1.56-1.84Zm-3.88-6.84a4.07,4.07,0,0,0-1.2-2.28,4.09,4.09,0,0,0-5.4.12,4.41,4.41,0,0,0-1.2,2.16Z"></path> <path class="cls-10" d="M753.14,336.37h3.92v1.52a6.78,6.78,0,0,1,1.64-1.4,4.53,4.53,0,0,1,2.4-.56,5.82,5.82,0,0,1,3.08.8l-1.6,3.56a3.55,3.55,0,0,0-2-.6,3.05,3.05,0,0,0-2.44.92,5.43,5.43,0,0,0-1.08,3.88v8.72h-3.92Z"></path> <path class="cls-10" d="M788,332.45a4.13,4.13,0,0,0-4.08-2.64c-2.48,0-3.76,1.48-3.76,3.2,0,.8.28,2.2,2.88,3.24l2.68,1.08c4.92,2,6.28,4.8,6.28,7.84a8.22,8.22,0,0,1-8.6,8.56,7.81,7.81,0,0,1-6.28-2.68,8.64,8.64,0,0,1-2.24-5.2l4-.88a5.76,5.76,0,0,0,1.12,3.4,4.21,4.21,0,0,0,3.48,1.6,4.29,4.29,0,0,0,4.4-4.48c0-2.72-2.08-3.84-3.84-4.56l-2.56-1.08c-2.2-.92-5.44-2.76-5.44-6.76,0-3.6,2.8-7,7.8-7a7.87,7.87,0,0,1,5.36,1.8,9.09,9.09,0,0,1,2,2.68Z"></path> <path class="cls-10" d="M808.7,336.37h3.91v16.84H808.7v-1.76a6.47,6.47,0,0,1-5,2.28c-5.2,0-8.16-4.32-8.16-9,0-5.48,3.76-8.84,8.2-8.84a6.14,6.14,0,0,1,5,2.4Zm-9.2,8.48c0,2.92,1.84,5.36,4.68,5.36,2.48,0,4.76-1.8,4.76-5.32,0-3.68-2.28-5.44-4.76-5.44C801.34,339.45,799.5,341.85,799.5,344.85Z"></path> <path class="cls-10" d="M821.9,340v13.24H818V340H816.3v-3.6H818v-5.84c0-2.6.68-4.24,1.64-5.28a5.28,5.28,0,0,1,4-1.64,6.27,6.27,0,0,1,2.52.48V328a3.38,3.38,0,0,0-1.88-.6,2.28,2.28,0,0,0-1.72.64,2.78,2.78,0,0,0-.64,2v6.36h4.24V340Z"></path> <path class="cls-10" d="M843.45,349.37a8.83,8.83,0,0,1-2.84,3.08,9.25,9.25,0,0,1-5,1.28,7.47,7.47,0,0,1-5.68-2.16,9,9,0,0,1-2.48-6.44,9.87,9.87,0,0,1,2.68-6.92,7.66,7.66,0,0,1,5.63-2.28,7.25,7.25,0,0,1,5.4,2.2c2.16,2.24,2.36,5.36,2.36,7.12v.48H831.5a5.57,5.57,0,0,0,1.44,3.4,4,4,0,0,0,3,1.08,4.1,4.1,0,0,0,2.67-.84,6.08,6.08,0,0,0,1.56-1.84Zm-3.88-6.84a4,4,0,0,0-1.2-2.28,4.07,4.07,0,0,0-5.39.12,4.41,4.41,0,0,0-1.2,2.16Z"></path> <path class="cls-10" d="M847.66,336.37h3.92v1.52a6.78,6.78,0,0,1,1.64-1.4,4.53,4.53,0,0,1,2.4-.56,5.78,5.78,0,0,1,3.07.8l-1.59,3.56a3.55,3.55,0,0,0-2-.6,3.05,3.05,0,0,0-2.44.92,5.43,5.43,0,0,0-1.08,3.88v8.72h-3.92Z"></path> <path class="cls-11" d="M741.7,325.93a29.25,29.25,0,0,1,57.07-1"></path> <ellipse class="cls-12" cx="952.14" cy="204.19" rx="2.86" ry="5.6"></ellipse> </g> <g id="Layer_5" data-name="Layer 5"> <g class="cls-13"> <path class="cls-14" d="M1443.72,79.44H1267.26a47,47,0,0,0-47,47V600.85a47,47,0,0,0,47,47h176.46a47,47,0,0,0,47-47V126.47A47,47,0,0,0,1443.72,79.44Z"></path> <path class="cls-15" d="M1483.79,126.66H1228.21V165h255.58Z"></path> <path class="cls-15" d="M1483.79,593.91H1228.21v54h255.58Z"></path> <path d="M1320.76,146.54l-3.94-6.83h2.09l2.77,4.81,2.77-4.81h2.09l-3.94,6.83v5.18h-1.84Z"></path> <path d="M1334.46,147.89a4.11,4.11,0,0,1-.65,2.27,4.06,4.06,0,0,1-6.24.67,4.09,4.09,0,0,1-1.12-2.08,4.08,4.08,0,0,1,6.84-3.72,3.88,3.88,0,0,1,.88,1.31A4,4,0,0,1,1334.46,147.89Zm-1.8,0a2.24,2.24,0,0,0-.45-1.21,2.19,2.19,0,0,0-1-.76,2.22,2.22,0,0,0-1.3-.07,2.25,2.25,0,0,0-1.11.65,2.33,2.33,0,0,0-.58,1.16,2.28,2.28,0,0,0,.16,1.29,2.22,2.22,0,0,0,.83,1,2.19,2.19,0,0,0,1.24.36,2.19,2.19,0,0,0,2.13-1.44,2.16,2.16,0,0,0,.12-.91Z"></path> <path d="M1338.06,144.14v4.34a2.3,2.3,0,0,0,.32,1.42,1.74,1.74,0,0,0,.52.38,1.57,1.57,0,0,0,.64.14,1.57,1.57,0,0,0,1.15-.52,2.15,2.15,0,0,0,.32-1.37v-4.39h1.77v4.39A3.12,3.12,0,0,1,1342,151a3.5,3.5,0,0,1-2.47.94,3.55,3.55,0,0,1-1.29-.23,3.65,3.65,0,0,1-1.1-.71,3.32,3.32,0,0,1-.68-1.16,3.16,3.16,0,0,1-.14-1.33v-4.39Z"></path> <path d="M1345,144.13h1.76v.69a3,3,0,0,1,.74-.63,2.16,2.16,0,0,1,1.08-.26,2.8,2.8,0,0,1,1.39.36l-.72,1.6a1.59,1.59,0,0,0-.9-.27,1.33,1.33,0,0,0-.59.09,1.52,1.52,0,0,0-.51.32,2.45,2.45,0,0,0-.49,1.75v3.92H1345Z"></path> <path d="M1355.18,138.6h1.76v6.19a2.65,2.65,0,0,1,.92-.63,2.52,2.52,0,0,1,1.08-.22,2.67,2.67,0,0,1,1.25.21,2.63,2.63,0,0,1,1,.79,3.62,3.62,0,0,1,.48,2.11v4.64h-1.76v-4.45a1.83,1.83,0,0,0-.34-1.32,1.19,1.19,0,0,0-.46-.3,1.23,1.23,0,0,0-.54-.09,1.48,1.48,0,0,0-.72.15,1.5,1.5,0,0,0-.58.48,3.49,3.49,0,0,0-.36,1.91v3.65h-1.72Z"></path> <path d="M1371.43,147.89a4.11,4.11,0,0,1-.65,2.27,4.06,4.06,0,0,1-6.24.67,4.09,4.09,0,0,1-1.12-2.08,4.08,4.08,0,0,1,6.84-3.72,3.88,3.88,0,0,1,.88,1.31,4,4,0,0,1,.29,1.55Zm-1.8,0a2.24,2.24,0,0,0-.45-1.21,2.19,2.19,0,0,0-1-.76,2.22,2.22,0,0,0-1.3-.07,2.25,2.25,0,0,0-1.11.65,2.33,2.33,0,0,0-.58,1.16,2.28,2.28,0,0,0,.16,1.29,2.22,2.22,0,0,0,.83,1,2.19,2.19,0,0,0,1.24.36,2.19,2.19,0,0,0,2.13-1.44,2.16,2.16,0,0,0,.12-.91Z"></path> <path d="M1373.27,144.14H1375v.7a2.33,2.33,0,0,1,1.87-.9,2.32,2.32,0,0,1,1.16.28,2.26,2.26,0,0,1,.84.84,2.67,2.67,0,0,1,1-.86,2.74,2.74,0,0,1,1.25-.3,2.42,2.42,0,0,1,1.24.3,2.46,2.46,0,0,1,.92.89,3.71,3.71,0,0,1,.39,1.91v4.68h-1.76v-4.14a3.41,3.41,0,0,0-.16-1.35,1,1,0,0,0-.39-.5,1,1,0,0,0-.61-.16,1.23,1.23,0,0,0-.59.15,1.39,1.39,0,0,0-.46.41,3.19,3.19,0,0,0-.34,1.72v3.91h-1.76v-4.18a3.25,3.25,0,0,0-.17-1.35,1,1,0,0,0-.39-.5,1,1,0,0,0-.61-.16,1.23,1.23,0,0,0-.59.15,1.39,1.39,0,0,0-.46.41,3.19,3.19,0,0,0-.34,1.72v3.91h-1.76Z"></path> <path d="M1392.69,150a3.87,3.87,0,0,1-1.28,1.39,4.13,4.13,0,0,1-2.23.58,3.43,3.43,0,0,1-1.38-.23,3.54,3.54,0,0,1-1.18-.77,4.08,4.08,0,0,1-1.11-2.9,4.42,4.42,0,0,1,1.2-3.11,3.66,3.66,0,0,1,1.17-.77,3.38,3.38,0,0,1,1.37-.23,3.29,3.29,0,0,1,1.32.24,3.14,3.14,0,0,1,1.11.76,4.56,4.56,0,0,1,1.06,3.21v.21h-5.43a2.48,2.48,0,0,0,.65,1.54,2.12,2.12,0,0,0,.63.38,2,2,0,0,0,.72.1,1.89,1.89,0,0,0,1.2-.38,2.73,2.73,0,0,0,.7-.82Zm-1.75-3.09a1.68,1.68,0,0,0-.54-1,1.6,1.6,0,0,0-1.18-.43,1.69,1.69,0,0,0-.67.11,1.79,1.79,0,0,0-.58.37,2.08,2.08,0,0,0-.54,1Z"></path> <path class="cls-16" d="M1462.26,143.32H1460a5.82,5.82,0,0,0-.64-1.11l1.08-1.94a.27.27,0,0,0,0-.19.23.23,0,0,0-.11-.16l-1.9-1.46a.24.24,0,0,0-.18-.07.26.26,0,0,0-.18.07l-1.6,1.54a5.83,5.83,0,0,0-1.24-.34l-.61-2.13a.28.28,0,0,0-.11-.15.26.26,0,0,0-.19,0l-2.37.3a.32.32,0,0,0-.17.09.36.36,0,0,0-.07.18l0,2.21a6.2,6.2,0,0,0-1.11.65l-1.94-1.08a.3.3,0,0,0-.19,0,.36.36,0,0,0-.16.11l-1.46,1.89a.29.29,0,0,0-.07.18.31.31,0,0,0,.07.18l1.53,1.61a6.57,6.57,0,0,0-.33,1.23l-2.14.61a.33.33,0,0,0-.15.11.31.31,0,0,0,0,.19l.3,2.38a.34.34,0,0,0,.1.16.3.3,0,0,0,.17.08h2.24a6.66,6.66,0,0,0,.63,1.1l-1.09,2a.31.31,0,0,0,0,.19.32.32,0,0,0,.1.17l1.89,1.46a.3.3,0,0,0,.18.06.28.28,0,0,0,.18-.06l1.62-1.56a6.58,6.58,0,0,0,1.21.33l.62,2.16a.31.31,0,0,0,.3.2l2.38-.31a.27.27,0,0,0,.17-.1.26.26,0,0,0,.07-.17v-2.24a6.19,6.19,0,0,0,1.09-.63l2,1.09a.34.34,0,0,0,.2,0,.27.27,0,0,0,.16-.1l1.46-1.9a.31.31,0,0,0,.07-.18.29.29,0,0,0-.07-.18l-1.53-1.68a6.68,6.68,0,0,0,.33-1.22l2.15-.62a.28.28,0,0,0,.16-.12.28.28,0,0,0,0-.18l-.31-2.37a.24.24,0,0,0-.09-.18A.25.25,0,0,0,1462.26,143.32Z"></path> <path class="cls-15" d="M1454.3,148.65a2.83,2.83,0,1,0-2.83-2.83A2.82,2.82,0,0,0,1454.3,148.65Z"></path> <path class="cls-17" d="M1262.24,196.44v8H1265v1.35h-4.17v-9.35Z"></path> <path class="cls-17" d="M1266.76,196.57a.91.91,0,0,1,.49.14.92.92,0,0,1,.33.4.88.88,0,0,1-.19,1,1,1,0,0,1-.46.24.86.86,0,0,1-.5-.05.92.92,0,0,1-.4-.33.83.83,0,0,1-.15-.48.93.93,0,0,1,.06-.34,1,1,0,0,1,.19-.29,1,1,0,0,1,.29-.19.68.68,0,0,1,.34-.06Zm.69,3.32v5.9h-1.38V199.9Z"></path> <path class="cls-17" d="M1269.94,199.9l1.51,3.36,1.51-3.36h1.54l-3,6.32-3-6.32Z"></path> <path class="cls-17" d="M1276.18,196.57a.91.91,0,0,1,.49.14.92.92,0,0,1,.33.4.88.88,0,0,1-.64,1.2.88.88,0,0,1-.51-.05.92.92,0,0,1-.4-.33.91.91,0,0,1-.15-.48.77.77,0,0,1,.07-.34.7.7,0,0,1,.19-.29.87.87,0,0,1,.28-.19.68.68,0,0,1,.34-.06Zm.69,3.32v5.9h-1.38V199.9Z"></path> <path class="cls-17" d="M1278.55,199.9h1.37v.55a2.1,2.1,0,0,1,.72-.54,2.67,2.67,0,0,1,1.85,0,2,2,0,0,1,.76.62,2.61,2.61,0,0,1,.37,1.64v3.62h-1.37v-3.28c0-1.5-.56-1.54-1.08-1.54s-1.25.08-1.25,2v2.83h-1.37Z"></path> <path class="cls-17" d="M1289.67,199.9H1291v5.42c0,1.39-.16,2.38-1,3.07a3.06,3.06,0,0,1-2,.63,2.64,2.64,0,0,1-1-.17,2.68,2.68,0,0,1-.89-.56,3.37,3.37,0,0,1-.87-1.83h1.33a2.16,2.16,0,0,0,.43.92,1.51,1.51,0,0,0,.5.31,1.4,1.4,0,0,0,.57.1,1.6,1.6,0,0,0,.58-.09,1.51,1.51,0,0,0,.5-.31,1.78,1.78,0,0,0,.38-.7,1.87,1.87,0,0,0,.07-.78v-.77a2.24,2.24,0,0,1-.79.64,2.34,2.34,0,0,1-1,.2,2.56,2.56,0,0,1-1.09-.18,2.68,2.68,0,0,1-.91-.62,3.38,3.38,0,0,1-.88-2.34,3.22,3.22,0,0,1,.21-1.23,3.11,3.11,0,0,1,.66-1.05,2.65,2.65,0,0,1,2-.81,2.27,2.27,0,0,1,1,.19,2.13,2.13,0,0,1,.79.6Zm-2.62,1.47a2,2,0,0,0-.61,1.5,2.21,2.21,0,0,0,.14.8,2.37,2.37,0,0,0,.45.68,1.63,1.63,0,0,0,1,.4,1.68,1.68,0,0,0,.63-.12,1.47,1.47,0,0,0,.52-.36,2.09,2.09,0,0,0,0-2.87,1.32,1.32,0,0,0-.51-.33,1.35,1.35,0,0,0-.6-.09,1.36,1.36,0,0,0-1,.38Z"></path> <path class="cls-17" d="M1296,199.9h1.38v.53a2.21,2.21,0,0,1,.57-.49,1.55,1.55,0,0,1,.84-.19,1.94,1.94,0,0,1,1.08.28l-.56,1.24a1.23,1.23,0,0,0-.7-.21,1,1,0,0,0-.46.06,1.07,1.07,0,0,0-.4.26,1.94,1.94,0,0,0-.37,1.36v3.06H1296Z"></path> <path class="cls-17" d="M1306.4,202.9a3.1,3.1,0,0,1-1,2.11,3,3,0,1,1,0-4.23A3.1,3.1,0,0,1,1306.4,202.9Zm-1.4,0a1.73,1.73,0,0,0-.35-1,1.76,1.76,0,0,0-.81-.59,1.66,1.66,0,0,0-1-.05,1.78,1.78,0,0,0-.87.5,1.83,1.83,0,0,0-.45.9,1.89,1.89,0,0,0,.12,1,1.77,1.77,0,0,0,.65.78,1.93,1.93,0,0,0,1,.29,2,2,0,0,0,.72-.13,2,2,0,0,0,.59-.41,1.67,1.67,0,0,0,.37-.63,1.56,1.56,0,0,0,.08-.71Z"></path> <path class="cls-17" d="M1313.82,202.9a3.1,3.1,0,0,1-1,2.11,3,3,0,1,1,0-4.23,3.1,3.1,0,0,1,1,2.12Zm-1.4,0a1.73,1.73,0,0,0-.35-1,1.76,1.76,0,0,0-.81-.59,1.66,1.66,0,0,0-1-.05,1.78,1.78,0,0,0-.87.5,1.83,1.83,0,0,0-.45.9,1.8,1.8,0,0,0,.12,1,1.77,1.77,0,0,0,.65.78,1.93,1.93,0,0,0,1,.29,2,2,0,0,0,.72-.13,2,2,0,0,0,.59-.41,1.67,1.67,0,0,0,.37-.63,1.56,1.56,0,0,0,.08-.71Z"></path> <path class="cls-17" d="M1315.24,199.9h1.37v.55a1.92,1.92,0,0,1,.65-.52,1.78,1.78,0,0,1,2.34.68,2.07,2.07,0,0,1,1.75-.86,1.93,1.93,0,0,1,1,.23,1.88,1.88,0,0,1,.71.69,2.84,2.84,0,0,1,.31,1.49v3.64H1322v-3.25a2.81,2.81,0,0,0-.12-1,.76.76,0,0,0-.31-.4.8.8,0,0,0-.48-.12,1,1,0,0,0-.45.11,1.11,1.11,0,0,0-.36.32,2.5,2.5,0,0,0-.26,1.35v3h-1.38v-3.25a2.81,2.81,0,0,0-.12-1,.76.76,0,0,0-.31-.4.8.8,0,0,0-.48-.12,1,1,0,0,0-.45.11,1.11,1.11,0,0,0-.36.32,2.42,2.42,0,0,0-.27,1.35v3h-1.37Z"></path> <path class="cls-17" d="M1262.24,334.56l3.61-3.73h1.88l-4.22,4.23,4.25,5.11h-1.91l-3.33-4.14-.28.28v3.86h-1.43v-9.34h1.43Z"></path> <path class="cls-17" d="M1269.45,331a.91.91,0,0,1,.49.14.92.92,0,0,1,.33.4,1,1,0,0,1,0,.51.94.94,0,0,1-.24.45.9.9,0,0,1-.45.24.88.88,0,0,1-.51-.05,1,1,0,0,1-.4-.32.88.88,0,0,1-.15-.49.93.93,0,0,1,.06-.34.84.84,0,0,1,.2-.29.87.87,0,0,1,.28-.19A.68.68,0,0,1,1269.45,331Zm.68,3.32v5.89h-1.37v-5.89Z"></path> <path class="cls-17" d="M1273.28,335.54v4.63h-1.37v-4.63h-.57v-1.26h.57v-2.16h1.37v2.16h1.06v1.26Z"></path> <path class="cls-17" d="M1279.82,336.08a2.18,2.18,0,0,0-.75-.53,2.39,2.39,0,0,0-.91-.19,1.67,1.67,0,0,0-.7.12,1.87,1.87,0,0,0-.61.39,1.94,1.94,0,0,0-.5,1.36,2.07,2.07,0,0,0,.53,1.42,1.8,1.8,0,0,0,1.25.47,2.29,2.29,0,0,0,.93-.2,2.32,2.32,0,0,0,.76-.55v1.53a3.13,3.13,0,0,1-1.79.47,2.93,2.93,0,0,1-1.21-.19,2.85,2.85,0,0,1-1-.68,3.2,3.2,0,0,1-.64-1,3.24,3.24,0,0,1-.2-1.19,3.17,3.17,0,0,1,.9-2.29,3.16,3.16,0,0,1,2.36-.87,3.12,3.12,0,0,1,1.61.42Z"></path> <path class="cls-17" d="M1281.18,330h1.37v4.82a2.08,2.08,0,0,1,.72-.5,2.15,2.15,0,0,1,.86-.16,1.94,1.94,0,0,1,1,.17,2,2,0,0,1,.76.63,2.83,2.83,0,0,1,.38,1.64v3.61h-1.37v-3.48a1.37,1.37,0,0,0-.27-1,1,1,0,0,0-.35-.23,1,1,0,0,0-.42-.07,1.11,1.11,0,0,0-.56.12,1.2,1.2,0,0,0-.44.37,2.7,2.7,0,0,0-.28,1.48v2.84h-1.38Z"></path> <path class="cls-17" d="M1293.07,338.83a3.13,3.13,0,0,1-1,1.08,3.18,3.18,0,0,1-1.73.45,2.69,2.69,0,0,1-1.08-.17,2.64,2.64,0,0,1-.92-.59,3.2,3.2,0,0,1-.87-2.25,3.47,3.47,0,0,1,.94-2.43,2.69,2.69,0,0,1,.92-.61,2.65,2.65,0,0,1,1.08-.19,2.45,2.45,0,0,1,1,.19,2.51,2.51,0,0,1,.86.58,3.5,3.5,0,0,1,.83,2.5v.17h-4.25a2,2,0,0,0,.5,1.19,1.43,1.43,0,0,0,1,.37,1.5,1.5,0,0,0,.94-.29,2.23,2.23,0,0,0,.55-.64Zm-1.36-2.4a1.36,1.36,0,0,0-.42-.79,1.3,1.3,0,0,0-.92-.34,1.45,1.45,0,0,0-.54.08,1.41,1.41,0,0,0-.46.3,1.51,1.51,0,0,0-.42.75Z"></path> <path class="cls-17" d="M1294.52,334.28h1.37v.54a2,2,0,0,1,.73-.53,2,2,0,0,1,.87-.17,2,2,0,0,1,1,.18,1.9,1.9,0,0,1,.76.62,2.62,2.62,0,0,1,.36,1.64v3.61h-1.41V336.9c0-1.5-.56-1.54-1.08-1.54s-1.25.08-1.25,2v2.82h-1.37Z"></path> <path class="cls-17" d="M1262.18,465.75a3.39,3.39,0,0,1,2.58.73,2.35,2.35,0,0,1,.58.84,2.31,2.31,0,0,1,.16,1,2,2,0,0,1-.28,1.1,1.57,1.57,0,0,1-.7.65,2.27,2.27,0,0,1,1.82,2.42,2.14,2.14,0,0,1-.13.9,2.26,2.26,0,0,1-.48.78,3.56,3.56,0,0,1-1.22.71,3.69,3.69,0,0,1-1.4.2h-2.3v-9.34Zm0,4h.43a1.7,1.7,0,0,0,1.17-.36,1.49,1.49,0,0,0,.29-.5,1.4,1.4,0,0,0,.07-.57,1,1,0,0,0-.07-.49,1,1,0,0,0-.27-.41,1.49,1.49,0,0,0-1.13-.35h-.49Zm0,4h.87a2.49,2.49,0,0,0,1.41-.37,1.31,1.31,0,0,0,.46-1,1.37,1.37,0,0,0-.37-1,2,2,0,0,0-1.47-.42h-.9Z"></path> <path class="cls-17" d="M1272.24,469.19h1.37v5.89h-1.37v-.61a2.22,2.22,0,0,1-.79.6,2.35,2.35,0,0,1-1,.19,3.08,3.08,0,0,1-2-1,3.14,3.14,0,0,1,2-5.22,2.23,2.23,0,0,1,1,.22,2.12,2.12,0,0,1,.77.62Zm-3.23,3a1.77,1.77,0,0,0,.08.69,1.68,1.68,0,0,0,1.56,1.19,1.89,1.89,0,0,0,1.19-3.14,2,2,0,0,0-1.19-.63,1.7,1.7,0,0,0-.66.17,1.72,1.72,0,0,0-.55.41,1.76,1.76,0,0,0-.43,1.27Z"></path> <path class="cls-17" d="M1276.76,470.46v4.63h-1.38v-4.63h-.57V469.2h.57V467h1.38v2.16h1v1.26Z"></path> <path class="cls-17" d="M1278.61,464.9H1280v4.82a2.13,2.13,0,0,1,1.59-.66,2,2,0,0,1,1.73.8,2.85,2.85,0,0,1,.38,1.64v3.61h-1.37V471.6a1.37,1.37,0,0,0-.27-1,.79.79,0,0,0-.35-.24,1,1,0,0,0-.42-.07,1.3,1.3,0,0,0-.55.12,1.24,1.24,0,0,0-.45.37,2.73,2.73,0,0,0-.28,1.49v2.84h-1.37Z"></path> <path class="cls-17" d="M1285.41,469.2h1.38v.53a2.21,2.21,0,0,1,.57-.49,1.47,1.47,0,0,1,.84-.2,2,2,0,0,1,1.08.28l-.56,1.25a1.16,1.16,0,0,0-.7-.21.92.92,0,0,0-.46.06,1.07,1.07,0,0,0-.4.26,1.94,1.94,0,0,0-.37,1.36v3h-1.38Z"></path> <path class="cls-17" d="M1295.78,472.15a3.12,3.12,0,0,1-.51,1.77,3.22,3.22,0,0,1-1.4,1.18,3.15,3.15,0,0,1-4.34-2.28,3.1,3.1,0,0,1,.17-1.83,3.18,3.18,0,0,1,1.17-1.42,3.08,3.08,0,0,1,1.76-.53,2.92,2.92,0,0,1,1.21.21,3.1,3.1,0,0,1,1.72,1.69,3.09,3.09,0,0,1,.22,1.21Zm-1.4,0a1.7,1.7,0,0,0-.35-.95,1.76,1.76,0,0,0-.81-.59,1.66,1.66,0,0,0-1-.05,1.76,1.76,0,0,0-.87.51,1.72,1.72,0,0,0-.32,1.9,1.68,1.68,0,0,0,.65.77,1.72,1.72,0,0,0,1,.29,1.76,1.76,0,0,0,1.3-.55,1.59,1.59,0,0,0,.37-.61,1.56,1.56,0,0,0,.08-.71Z"></path> <path class="cls-17" d="M1303.18,472.15a3.13,3.13,0,0,1-.5,1.76,3.26,3.26,0,0,1-1.41,1.19,3.16,3.16,0,0,1-4.17-4.1,3.13,3.13,0,0,1,2.92-2,3,3,0,0,1,1.22.21,3.16,3.16,0,0,1,1,.67,3.09,3.09,0,0,1,.91,2.23Zm-1.4,0a1.73,1.73,0,0,0-.35-.95,1.76,1.76,0,0,0-.81-.59,1.66,1.66,0,0,0-1-.05,1.78,1.78,0,0,0-.87.5,1.83,1.83,0,0,0-.45.9,1.8,1.8,0,0,0,.12,1,1.77,1.77,0,0,0,.65.78,1.93,1.93,0,0,0,1,.29,1.62,1.62,0,0,0,.72-.13,1.75,1.75,0,0,0,.6-.4,1.73,1.73,0,0,0,.38-.62,1.62,1.62,0,0,0,.08-.72Z"></path> <path class="cls-17" d="M1304.62,469.19H1306v.54a2,2,0,0,1,.65-.52,1.88,1.88,0,0,1,.81-.18,1.84,1.84,0,0,1,.89.23,1.71,1.71,0,0,1,.64.64,2.2,2.2,0,0,1,.77-.65,2.23,2.23,0,0,1,1-.22,2,2,0,0,1,1,.24,2,2,0,0,1,.71.69,2.83,2.83,0,0,1,.31,1.48v3.64h-1.38v-3.25a2.68,2.68,0,0,0-.12-1.05.76.76,0,0,0-.31-.38.82.82,0,0,0-.48-.14,1.1,1.1,0,0,0-.46.13,1,1,0,0,0-.35.31,2.5,2.5,0,0,0-.26,1.34v3H1308v-3.25a2.7,2.7,0,0,0-.12-1.05.76.76,0,0,0-.31-.38.82.82,0,0,0-.48-.14,1.1,1.1,0,0,0-.46.13,1,1,0,0,0-.35.31A2.42,2.42,0,0,0,1306,472v3h-1.37Z"></path> <path class="cls-18" d="M1419.38,215.3a3.16,3.16,0,0,1,.91-2.08,3.26,3.26,0,0,1,2.34-.81,3,3,0,0,1,1.25.19,3,3,0,0,1,1,.69,2.72,2.72,0,0,1,.77,2,2.53,2.53,0,0,1-.37,1.41,2.56,2.56,0,0,1-1,.9,2.1,2.1,0,0,1,1.06.84,2.91,2.91,0,0,1,.45,1.65,3.12,3.12,0,0,1-.22,1.28,3.17,3.17,0,0,1-.7,1.11,3.52,3.52,0,0,1-1.2.73,3.69,3.69,0,0,1-1.4.2,3.14,3.14,0,0,1-1.29-.19,3.2,3.2,0,0,1-1.1-.71,3.93,3.93,0,0,1-.91-2.18h1.57a2.2,2.2,0,0,0,.57,1.15,1.89,1.89,0,0,0,1.3.48,2,2,0,0,0,1.25-.44,2.13,2.13,0,0,0,.44-.7,2,2,0,0,0,.12-.81,1.57,1.57,0,0,0-.11-.68,1.6,1.6,0,0,0-.37-.58,1.73,1.73,0,0,0-.64-.38,1.87,1.87,0,0,0-.74-.1h-.23V216.9h.23a1.91,1.91,0,0,0,1.36-.46,1.61,1.61,0,0,0,.41-1.14,1.41,1.41,0,0,0-.09-.58,1.43,1.43,0,0,0-.32-.49,1.58,1.58,0,0,0-1.14-.4,1.36,1.36,0,0,0-.63.09,1.49,1.49,0,0,0-.55.34,2,2,0,0,0-.45,1Z"></path> <path class="cls-18" d="M1434.36,223.26h-7.18l3.69-4.48c.37-.45.93-1.15,1.29-1.67a2.6,2.6,0,0,0,.55-1.53,1.79,1.79,0,0,0-.11-.69,1.84,1.84,0,0,0-.38-.57,1.59,1.59,0,0,0-.59-.37,1.61,1.61,0,0,0-.69-.1,1.91,1.91,0,0,0-1.35.57,1.94,1.94,0,0,0-.4.62,1.91,1.91,0,0,0-.14.74h-1.57a3.81,3.81,0,0,1,.9-2.33,3.51,3.51,0,0,1,1.72-1,3.41,3.41,0,0,1,2,.13,3.44,3.44,0,0,1,2.27,3,4,4,0,0,1-.77,2.25c-.39.57-.88,1.16-1.52,1.92l-1.67,2h4Z"></path> <path class="cls-18" d="M1441.41,215a2.51,2.51,0,0,1-.4,1.45,2.59,2.59,0,0,1-1.14,1,2.49,2.49,0,0,1-1.5.17,2.58,2.58,0,0,1-1.34-.69,2.54,2.54,0,0,1-.72-1.32,2.49,2.49,0,0,1,.14-1.5,2.53,2.53,0,0,1,1-1.17,2.56,2.56,0,0,1,1.44-.43,2.51,2.51,0,0,1,1.8.72,2.56,2.56,0,0,1,.77,1.79Zm-1.25,0a1.31,1.31,0,0,0-.24-.74,1.32,1.32,0,0,0-.6-.47,1.26,1.26,0,0,0-.77-.06,1.28,1.28,0,0,0-.67.37,1.31,1.31,0,0,0-.35.68,1.31,1.31,0,0,0,.58,1.36,1.33,1.33,0,0,0,.73.22,1.5,1.5,0,0,0,.52-.1,1.23,1.23,0,0,0,.44-.3,1.25,1.25,0,0,0,.29-.44,1.19,1.19,0,0,0,.09-.52Zm4.73-2.59.75.43-6.1,10.6-.75-.47Zm3.29,8.49a2.51,2.51,0,0,1-.4,1.45,2.56,2.56,0,0,1-2.64,1.15,2.52,2.52,0,0,1-1.33-.69,2.48,2.48,0,0,1-.73-1.32,2.57,2.57,0,0,1,.13-1.5,2.63,2.63,0,0,1,1-1.16,2.57,2.57,0,0,1,4,2.07Zm-1.25,0a1.31,1.31,0,0,0-.24-.74,1.22,1.22,0,0,0-.6-.47,1.32,1.32,0,0,0-.76-.07,1.4,1.4,0,0,0-.68.38,1.31,1.31,0,0,0-.35.68,1.32,1.32,0,0,0,.08.76,1.36,1.36,0,0,0,1.22.82,1.31,1.31,0,0,0,.52-.11,1.28,1.28,0,0,0,.43-.3,1.18,1.18,0,0,0,.28-.44,1.13,1.13,0,0,0,.09-.51Z"></path> <path class="cls-18" d="M1425.46,354.45h1.15V356h-1.15v2h-1.57v-2h-5.28l6.85-9.44Zm-1.57,0V351l-2.43,3.44Z"></path> <path class="cls-18" d="M1429.51,357a7.67,7.67,0,0,1,0-8.72,3.19,3.19,0,0,1,1.08-.85,3.09,3.09,0,0,1,3.75.85,7.67,7.67,0,0,1,0,8.72,3.2,3.2,0,0,1-1.07.86,3.12,3.12,0,0,1-1.34.3,3.09,3.09,0,0,1-1.34-.3,3.24,3.24,0,0,1-1.08-.86Zm1-7.55a7.33,7.33,0,0,0,0,6.38,1.68,1.68,0,0,0,.61.63,1.65,1.65,0,0,0,.83.26,1.68,1.68,0,0,0,1.44-.89,7.25,7.25,0,0,0,0-6.38,1.7,1.7,0,0,0-1.44-.88,1.7,1.7,0,0,0-.85.24,1.81,1.81,0,0,0-.62.64Z"></path> <path class="cls-18" d="M1442.18,349.72a2.49,2.49,0,0,1-.4,1.45,2.59,2.59,0,0,1-2.64,1.16,2.52,2.52,0,0,1-1.33-.69,2.58,2.58,0,0,1-.6-2.82,2.61,2.61,0,0,1,1-1.17,2.57,2.57,0,0,1,1.44-.44,2.54,2.54,0,0,1,2.58,2.51Zm-1.25,0a1.34,1.34,0,0,0-.23-.73,1.32,1.32,0,0,0-.61-.48,1.24,1.24,0,0,0-.76-.06,1.31,1.31,0,0,0-.68.37,1.35,1.35,0,0,0-.35.68,1.32,1.32,0,0,0,.08.76,1.31,1.31,0,0,0,1.22.82,1.45,1.45,0,0,0,.51-.11,1.84,1.84,0,0,0,.43-.3,1.34,1.34,0,0,0,.27-.44,1.13,1.13,0,0,0,.09-.51Zm4.72-2.59.75.43-6.09,10.6-.76-.47Zm3.28,8.45a2.49,2.49,0,0,1-.4,1.45,2.53,2.53,0,0,1-1.14,1,2.57,2.57,0,0,1-1.5.18,2.68,2.68,0,0,1-1.34-.7,2.54,2.54,0,0,1-.72-1.32,2.49,2.49,0,0,1,.14-1.5,2.58,2.58,0,0,1,1-1.17,2.64,2.64,0,0,1,1.44-.43,2.56,2.56,0,0,1,2.54,2.51Zm-1.25,0a1.28,1.28,0,0,0-.06-.55,1.5,1.5,0,0,0-.28-.47,1.39,1.39,0,0,0-.45-.31,1.21,1.21,0,0,0-.53-.12,1.39,1.39,0,0,0-1,.43,1.34,1.34,0,0,0-.28.47,1.46,1.46,0,0,0-.07.55,1.41,1.41,0,0,0,.07.54,1.18,1.18,0,0,0,.28.47,1.16,1.16,0,0,0,.44.32,1.41,1.41,0,0,0,.54.11,1.36,1.36,0,0,0,.53-.11,1.28,1.28,0,0,0,.45-.32,1.31,1.31,0,0,0,.28-.47A1.24,1.24,0,0,0,1447.68,355.58Z"></path> <path class="cls-18" d="M1425.92,483.78h-3.29l-.53,1.78h.5a3.49,3.49,0,0,1,2.46.94,3.53,3.53,0,0,1,.79,1.26,3.67,3.67,0,0,1,.21,1.47,3.76,3.76,0,0,1-.25,1.53,3.87,3.87,0,0,1-.84,1.31,4.65,4.65,0,0,1-2.41,1.05,4.57,4.57,0,0,1-2.59-.45,3.71,3.71,0,0,1-1.26-1.23l1.23-1a2.48,2.48,0,0,0,.82.94,2.61,2.61,0,0,0,1.39.37,2.31,2.31,0,0,0,1.63-.59,2.65,2.65,0,0,0,.53-.84,2.31,2.31,0,0,0,.16-1,2.15,2.15,0,0,0-.13-.94,2.19,2.19,0,0,0-.51-.8,2.44,2.44,0,0,0-1.74-.58,3.17,3.17,0,0,0-1.25.22,4.94,4.94,0,0,0-.95.47l1.59-5.38h4.41Z"></path> <path class="cls-18" d="M1434.53,492.94h-7.17l3.7-4.48c.37-.45.93-1.15,1.28-1.66a2.61,2.61,0,0,0,.56-1.54,1.77,1.77,0,0,0-.11-.68,1.68,1.68,0,0,0-1-.95,1.78,1.78,0,0,0-.69-.1,1.87,1.87,0,0,0-1.35.58,1.88,1.88,0,0,0-.4.63,2,2,0,0,0-.13.73h-1.57a3.94,3.94,0,0,1,.89-2.34,3.43,3.43,0,0,1,1.14-.77,3.36,3.36,0,0,1,1.36-.23,3.41,3.41,0,0,1,1.31.17,3.35,3.35,0,0,1,1.13.68,3.23,3.23,0,0,1,.75,1.08,3.19,3.19,0,0,1,.25,1.29,3.77,3.77,0,0,1-.77,2.24,17.55,17.55,0,0,1-1.52,1.92l-1.66,2h4Z"></path> <path class="cls-18" d="M1441.59,484.7a2.54,2.54,0,0,1-1.55,2.42,2.47,2.47,0,0,1-1.49.17,2.59,2.59,0,0,1-1.93-3.51,2.63,2.63,0,0,1,1-1.16,2.57,2.57,0,0,1,1.44-.44,2.56,2.56,0,0,1,2.58,2.52Zm-1.25,0a1.27,1.27,0,0,0-.24-.73,1.3,1.3,0,0,0-1.36-.54,1.33,1.33,0,0,0-1,1.81,1.36,1.36,0,0,0,1.22.82,1.31,1.31,0,0,0,.52-.11,1.42,1.42,0,0,0,.43-.29,1.2,1.2,0,0,0,.29-.45A1.13,1.13,0,0,0,1440.34,484.7Zm4.72-2.6.75.43-6.09,10.6-.76-.46Zm3.28,8.45a2.49,2.49,0,0,1-.4,1.45,2.59,2.59,0,0,1-1.14,1,2.49,2.49,0,0,1-1.5.17,2.58,2.58,0,0,1-1.34-.69,2.54,2.54,0,0,1-.72-1.32,2.49,2.49,0,0,1,.14-1.5,2.53,2.53,0,0,1,.95-1.17,2.57,2.57,0,0,1,4,2.08Zm-1.25,0a1.25,1.25,0,0,0-.24-.73,1.33,1.33,0,0,0-2-.17,1.31,1.31,0,0,0-.35.68,1.35,1.35,0,0,0,.08.77,1.31,1.31,0,0,0,.5.59,1.33,1.33,0,0,0,.73.22,1.31,1.31,0,0,0,.52-.11,1.42,1.42,0,0,0,.43-.29,1.31,1.31,0,0,0,.28-.45,1.13,1.13,0,0,0,.09-.51Z"></path> <path class="cls-18" d="M1351.53,217.16h2.72v-2.72h1.51v2.72h2.72v1.44h-2.72v2.72h-1.51V218.6h-2.72Z"></path> <path class="cls-18" d="M1366.72,223.26h-7.17l3.69-4.48c.37-.45.93-1.15,1.28-1.67a2.54,2.54,0,0,0,.56-1.53,1.79,1.79,0,0,0-.11-.69,1.84,1.84,0,0,0-.38-.57,1.59,1.59,0,0,0-.59-.37,1.61,1.61,0,0,0-.69-.1,1.91,1.91,0,0,0-1.35.57,1.94,1.94,0,0,0-.4.62,1.91,1.91,0,0,0-.14.74h-1.57a3.81,3.81,0,0,1,.9-2.33,3.51,3.51,0,0,1,1.72-1,3.41,3.41,0,0,1,2,.13,3.44,3.44,0,0,1,2.27,3,4,4,0,0,1-.77,2.25c-.39.57-.88,1.16-1.52,1.92l-1.67,2h4Z"></path> <path class="cls-18" d="M1370.18,222.28a7.67,7.67,0,0,1,0-8.72,3.19,3.19,0,0,1,1.08-.85,3.09,3.09,0,0,1,3.75.85,7.67,7.67,0,0,1,0,8.72,3.06,3.06,0,0,1-1.07.85,3.13,3.13,0,0,1-1.34.31,3.15,3.15,0,0,1-2.42-1.16Zm1-7.55a7.25,7.25,0,0,0,0,6.38,1.59,1.59,0,0,0,2.28.63,1.81,1.81,0,0,0,.6-.63,7.33,7.33,0,0,0,0-6.38,1.7,1.7,0,0,0-1.44-.88,1.63,1.63,0,0,0-.83.24,1.78,1.78,0,0,0-.61.64Z"></path> <path class="cls-18" d="M1384.91,212.58a2.32,2.32,0,0,1,2.26,2.78,2.48,2.48,0,0,1-.64,1.19,2.36,2.36,0,0,1-2.53.49,2.35,2.35,0,0,1-1-.86,2.32,2.32,0,0,1-.39-1.28,2.52,2.52,0,0,1,.17-.9,2.42,2.42,0,0,1,.51-.76,2.23,2.23,0,0,1,.76-.5A2.35,2.35,0,0,1,1384.91,212.58Zm0,3.72a1.44,1.44,0,0,0,.79-.21,1.41,1.41,0,0,0,.54-.62,1.4,1.4,0,0,0-.27-1.54,1.4,1.4,0,0,0-.71-.4,1.43,1.43,0,0,0-.82.07,1.39,1.39,0,0,0-.64.51,1.49,1.49,0,0,0-.24.79,1.6,1.6,0,0,0,.09.53,1.34,1.34,0,0,0,.29.45,1.25,1.25,0,0,0,.45.31,1.31,1.31,0,0,0,.52.11Z"></path> <path class="cls-18" d="M1398.09,215.08a4.12,4.12,0,0,0-2.91-1.18,4,4,0,0,0-4,4,4,4,0,0,0,4,4,4.23,4.23,0,0,0,2.88-1.23v1.94a5.91,5.91,0,0,1-2.93.8,5.34,5.34,0,0,1-3.77-1.48,5.21,5.21,0,0,1-1.29-1.82,5.12,5.12,0,0,1-.43-2.18,5.73,5.73,0,0,1,.42-2.28,5.55,5.55,0,0,1,1.3-1.9,5.32,5.32,0,0,1,1.79-1.09,5.16,5.16,0,0,1,2.06-.3,4.94,4.94,0,0,1,2.85.77Z"></path> <path class="cls-18" d="M1351.53,351.89h2.72v-2.72h1.51v2.72h2.72v1.44h-2.72v2.72h-1.51v-2.72h-2.72Z"></path> <path class="cls-18" d="M1366.72,358h-7.17l3.69-4.48c.37-.45.93-1.15,1.28-1.67a2.54,2.54,0,0,0,.56-1.53,1.79,1.79,0,0,0-.11-.69,1.84,1.84,0,0,0-.38-.57,1.59,1.59,0,0,0-.59-.37,1.47,1.47,0,0,0-.69-.1,1.85,1.85,0,0,0-1.35.56,2,2,0,0,0-.4.63,1.87,1.87,0,0,0-.14.74h-1.57a3.81,3.81,0,0,1,.9-2.33,3.47,3.47,0,0,1,5.94,2.17,4,4,0,0,1-.77,2.25c-.39.57-.88,1.16-1.52,1.92l-1.67,2h4Z"></path> <path class="cls-18" d="M1375.36,348.81h-3.3l-.53,1.77h.5a3.38,3.38,0,0,1,3.25,2.26,5,5,0,0,1,0,3,3.72,3.72,0,0,1-.84,1.31,4,4,0,0,1-1.5,1,4,4,0,0,1-4.77-1.61l1.23-1a2.53,2.53,0,0,0,.82.93,2.61,2.61,0,0,0,1.39.37,2.2,2.2,0,0,0,.88-.14,2.14,2.14,0,0,0,.75-.46,2.55,2.55,0,0,0,.53-.84,2.31,2.31,0,0,0,.16-1,2.26,2.26,0,0,0-.13-.93,2.07,2.07,0,0,0-.51-.79,2.45,2.45,0,0,0-1.74-.6,3.18,3.18,0,0,0-1.25.23,4.84,4.84,0,0,0-1,.48l1.59-5.4h4.42Z"></path> <path class="cls-18" d="M1384.54,347.3a2.41,2.41,0,0,1,1.3.39,2.35,2.35,0,0,1,.85,1.05,2.4,2.4,0,0,1,.13,1.35,2.3,2.3,0,0,1-.65,1.19,2.2,2.2,0,0,1-1.19.63,2.4,2.4,0,0,1-1.35-.13,2.36,2.36,0,0,1-1.43-2.16,2.3,2.3,0,0,1,.18-.9,2.39,2.39,0,0,1,.5-.76,2.49,2.49,0,0,1,.77-.5A2.26,2.26,0,0,1,1384.54,347.3Zm0,3.72a1.44,1.44,0,0,0,.79-.21,1.41,1.41,0,0,0,.54-.62,1.4,1.4,0,0,0-1.8-1.87,1.39,1.39,0,0,0-.64.51,1.47,1.47,0,0,0-.24.79,1.6,1.6,0,0,0,.09.53,1.34,1.34,0,0,0,.29.45,1.39,1.39,0,0,0,.45.31A1.31,1.31,0,0,0,1384.54,351Z"></path> <path class="cls-18" d="M1397.72,349.8a4.11,4.11,0,0,0-2.89-1.18,4,4,0,0,0-4,4,4,4,0,0,0,4,4,4.23,4.23,0,0,0,2.88-1.23v1.94a5.85,5.85,0,0,1-2.92.8,5.49,5.49,0,0,1-5.07-3.29,5.26,5.26,0,0,1-.42-2.18,5.65,5.65,0,0,1,1.71-4.18,5.32,5.32,0,0,1,1.79-1.09,5.23,5.23,0,0,1,2.07-.3,5.07,5.07,0,0,1,2.84.77Z"></path> <path class="cls-18" d="M1351.53,486.89h2.72v-2.72h1.51v2.72h2.72v1.44h-2.72v2.72h-1.51v-2.76h-2.72Z"></path> <path class="cls-18" d="M1366.72,492.94h-7.17l3.69-4.48c.37-.45.93-1.15,1.28-1.66a2.53,2.53,0,0,0,.56-1.54,1.77,1.77,0,0,0-.11-.68,1.7,1.7,0,0,0-.39-.57,1.48,1.48,0,0,0-.58-.37,1.79,1.79,0,0,0-.69-.11,2,2,0,0,0-.73.15,1.87,1.87,0,0,0-.62.43,1.76,1.76,0,0,0-.41.63,2,2,0,0,0-.13.73h-1.57a3.89,3.89,0,0,1,.9-2.34,3.57,3.57,0,0,1,1.72-.95,3.45,3.45,0,0,1,2,.13,3.38,3.38,0,0,1,1.57,1.17,3.33,3.33,0,0,1,.69,1.83,3.93,3.93,0,0,1-.77,2.24,20,20,0,0,1-1.52,1.92l-1.67,2h4Z"></path> <path class="cls-18" d="M1375.8,493h-7.17l3.7-4.48c.37-.45.93-1.15,1.28-1.66a2.55,2.55,0,0,0,.56-1.54,1.74,1.74,0,0,0-.11-.68,1.65,1.65,0,0,0-.39-.58,1.65,1.65,0,0,0-1.27-.47,1.91,1.91,0,0,0-1.35.57,1.76,1.76,0,0,0-.41.63,2.06,2.06,0,0,0-.13.74h-1.57a3.87,3.87,0,0,1,.9-2.34,3.47,3.47,0,0,1,1.72-1,3.37,3.37,0,0,1,2,.13,3.43,3.43,0,0,1,1.57,1.17,3.39,3.39,0,0,1,.68,1.84,3.79,3.79,0,0,1-.77,2.24,18.56,18.56,0,0,1-1.52,1.92l-1.66,2h4Z"></path> <path class="cls-18" d="M1384.91,482.28a2.29,2.29,0,0,1,1.29.4,2.26,2.26,0,0,1,.84,1,2.28,2.28,0,0,1,.13,1.34,2.4,2.4,0,0,1-.64,1.18,2.23,2.23,0,0,1-1.19.63,2.36,2.36,0,0,1-1.34-.13,2.42,2.42,0,0,1-1-.86,2.35,2.35,0,0,1-.39-1.28,2.48,2.48,0,0,1,.17-.9,2.31,2.31,0,0,1,.51-.76,2.23,2.23,0,0,1,.76-.5A2.35,2.35,0,0,1,1384.91,482.28Zm0,3.71a1.47,1.47,0,0,0,.79-.22,1.49,1.49,0,0,0,.53-.61,1.41,1.41,0,0,0-.28-1.53,1.32,1.32,0,0,0-.71-.39,1.4,1.4,0,0,0-.81.07,1.37,1.37,0,0,0-.63.51,1.43,1.43,0,0,0-.24.78,1.6,1.6,0,0,0,.09.53,1.51,1.51,0,0,0,.29.45,1.37,1.37,0,0,0,.45.3,1.31,1.31,0,0,0,.52.11Z"></path> <path class="cls-18" d="M1398.09,484.78a4.1,4.1,0,0,0-2.89-1.19,3.69,3.69,0,0,0-1.54.28,4,4,0,0,0-1.3.89,3.81,3.81,0,0,0-.83,1.34,3.94,3.94,0,0,0-.22,1.56,3.89,3.89,0,0,0,1.09,2.83,3.87,3.87,0,0,0,1.29.87,4,4,0,0,0,1.52.3,4.27,4.27,0,0,0,2.88-1.23v1.93a5.91,5.91,0,0,1-2.93.8,5.49,5.49,0,0,1-5.06-3.29,5.27,5.27,0,0,1-.43-2.18,5.73,5.73,0,0,1,.42-2.28,5.55,5.55,0,0,1,1.3-1.9,5.32,5.32,0,0,1,1.79-1.09,5.16,5.16,0,0,1,2.06-.3,4.93,4.93,0,0,1,2.85.76Z"></path> <path class="cls-17" d="M1353.39,199.52v5.14h-.92v-5.14h-1.38v-.86h3.67v.86Z"></path> <path class="cls-17" d="M1358.45,203.8a2.11,2.11,0,0,1-.64.69,2.06,2.06,0,0,1-1.12.29,1.82,1.82,0,0,1-.69-.11,1.93,1.93,0,0,1-.59-.38,2,2,0,0,1-.42-.67,2.11,2.11,0,0,1-.14-.78,2.3,2.3,0,0,1,.61-1.56,1.79,1.79,0,0,1,.59-.39,1.58,1.58,0,0,1,.68-.12,1.49,1.49,0,0,1,.66.12,1.4,1.4,0,0,1,.55.38,2.21,2.21,0,0,1,.53,1.6V203h-2.72a1.28,1.28,0,0,0,.33.76,1,1,0,0,0,.31.19,1.13,1.13,0,0,0,.36.06,1.08,1.08,0,0,0,.61-.19,1.27,1.27,0,0,0,.35-.42Zm-.88-1.54a.83.83,0,0,0-.86-.73.76.76,0,0,0-.33.05.7.7,0,0,0-.29.19,1.07,1.07,0,0,0-.27.49Z"></path> <path class="cls-17" d="M1359.39,200.9h.88v.35a1.24,1.24,0,0,1,.42-.34,1,1,0,0,1,.52-.11,1.1,1.1,0,0,1,1,.56,1.37,1.37,0,0,1,1.13-.56,1.21,1.21,0,0,1,.62.15,1.24,1.24,0,0,1,.46.45,1.82,1.82,0,0,1,.19,1v2.34h-.88v-2.09a1.51,1.51,0,0,0-.08-.67.46.46,0,0,0-.19-.26.48.48,0,0,0-.31-.08.73.73,0,0,0-.29.07.61.61,0,0,0-.24.21,1.62,1.62,0,0,0-.17.87v2h-.88V202.7a1.51,1.51,0,0,0-.08-.67.46.46,0,0,0-.19-.26.48.48,0,0,0-.31-.08.73.73,0,0,0-.29.07.61.61,0,0,0-.24.21,1.62,1.62,0,0,0-.17.87v2h-.88Z"></path> <path class="cls-17" d="M1366.59,206.72h-.88V200.9h.88v.41a1.27,1.27,0,0,1,.51-.38,1.29,1.29,0,0,1,.61-.13,1.93,1.93,0,0,1,.75.15,2.07,2.07,0,0,1,.61.44,1.91,1.91,0,0,1,.4.65,1.94,1.94,0,0,1,.09.76,1.88,1.88,0,0,1-.11.74,2.12,2.12,0,0,1-.39.64,2.07,2.07,0,0,1-.61.44,1.83,1.83,0,0,1-.73.18,1.5,1.5,0,0,1-.62-.16,1.54,1.54,0,0,1-.51-.4Zm0-3.93a1.09,1.09,0,0,0,.05.44.94.94,0,0,0,.22.39,1,1,0,0,0,.36.27,1.13,1.13,0,0,0,.44.1,1.29,1.29,0,0,0,.75-.42,1.22,1.22,0,0,0-.75-2,1.07,1.07,0,0,0-.46.08,1.1,1.1,0,0,0-.38.27,1.14,1.14,0,0,0-.24.41,1.23,1.23,0,0,0,0,.47Z"></path> <path class="cls-17" d="M1373.87,203.8a2,2,0,0,1-.64.69,2.05,2.05,0,0,1-1.11.29,1.82,1.82,0,0,1-.69-.11,1.93,1.93,0,0,1-.59-.38,2,2,0,0,1-.42-.67,2.11,2.11,0,0,1-.14-.78,2.29,2.29,0,0,1,.6-1.56,1.79,1.79,0,0,1,.59-.39,1.58,1.58,0,0,1,.68-.12,1.53,1.53,0,0,1,.67.12,1.4,1.4,0,0,1,.55.38,2.21,2.21,0,0,1,.53,1.6V203h-2.72a1.36,1.36,0,0,0,.32.76.94.94,0,0,0,.32.19,1.09,1.09,0,0,0,.36.06,1,1,0,0,0,.6-.19,1.27,1.27,0,0,0,.35-.42Zm-.87-1.54a.94.94,0,0,0-.27-.52.82.82,0,0,0-.6-.21.76.76,0,0,0-.33.05.91.91,0,0,0-.29.19,1.07,1.07,0,0,0-.27.49Z"></path> <path class="cls-17" d="M1374.82,200.9h.88v.34a1.56,1.56,0,0,1,.37-.31.94.94,0,0,1,.54-.13,1.27,1.27,0,0,1,.69.18l-.36.8a.79.79,0,0,0-.45-.13.7.7,0,0,0-.29,0,.65.65,0,0,0-.26.17,1.3,1.3,0,0,0-.24.88v2h-.88Z"></path> <path class="cls-17" d="M1380.39,200.9h.88v3.79h-.88v-.4a1.48,1.48,0,0,1-.51.38,1.52,1.52,0,0,1-.63.14,1.86,1.86,0,0,1-.73-.17,1.76,1.76,0,0,1-.61-.44,2,2,0,0,1-.39-.65,2.07,2.07,0,0,1-.1-.74,1.73,1.73,0,0,1,.1-.75,1.6,1.6,0,0,1,.39-.65,1.75,1.75,0,0,1,1.35-.6,1.35,1.35,0,0,1,.63.13,1.43,1.43,0,0,1,.5.41Zm-2.07,1.91a1.09,1.09,0,0,0,0,.44,1,1,0,0,0,.22.39,1.14,1.14,0,0,0,.35.27,1.09,1.09,0,0,0,.43.11,1.22,1.22,0,0,0,1.11-1.22,1.21,1.21,0,0,0-.32-.82,1.22,1.22,0,0,0-.79-.39,1,1,0,0,0-.42.1,1.22,1.22,0,0,0-.36.27,1.2,1.2,0,0,0-.27.82Z"></path> <path class="cls-17" d="M1383.29,201.68v3h-.88v-3H1382v-.78h.37v-1.39h.88v1.39h.68v.81Z"></path> <path class="cls-17" d="M1385.45,200.9v2.17a1,1,0,0,0,.16.68.63.63,0,0,0,.26.2.64.64,0,0,0,.31.07.75.75,0,0,0,.33-.07.55.55,0,0,0,.25-.2,1,1,0,0,0,.16-.68V200.9h.88v2.2a1.48,1.48,0,0,1-.06.66,1.7,1.7,0,0,1-.34.58,1.82,1.82,0,0,1-1.87.35,1.71,1.71,0,0,1-.56-.35,1.59,1.59,0,0,1-.33-.58,1.49,1.49,0,0,1-.08-.66v-2.2Z"></path> <path class="cls-17" d="M1388.92,200.9h.88v.34a1.52,1.52,0,0,1,.38-.34.94.94,0,0,1,.54-.13,1.19,1.19,0,0,1,.69.18l-.36.8a.79.79,0,0,0-.45-.13.7.7,0,0,0-.29,0,.65.65,0,0,0-.26.17,1.3,1.3,0,0,0-.24.88v2h-.88Z"></path> <path class="cls-17" d="M1395,203.8a2,2,0,0,1-.64.69,2.05,2.05,0,0,1-1.11.29,1.82,1.82,0,0,1-.69-.11,1.93,1.93,0,0,1-.59-.38,2,2,0,0,1-.42-.67,2.11,2.11,0,0,1-.14-.78,2.29,2.29,0,0,1,.6-1.56,1.79,1.79,0,0,1,.59-.39,1.58,1.58,0,0,1,.68-.12,1.53,1.53,0,0,1,.67.12,1.4,1.4,0,0,1,.55.38,2.21,2.21,0,0,1,.53,1.6V203h-2.72a1.27,1.27,0,0,0,.32.76.94.94,0,0,0,.32.19,1.09,1.09,0,0,0,.36.06,1,1,0,0,0,.6-.19,1.27,1.27,0,0,0,.35-.42Zm-.87-1.54a.94.94,0,0,0-.27-.52.82.82,0,0,0-.6-.21.76.76,0,0,0-.33.05.91.91,0,0,0-.29.19,1.07,1.07,0,0,0-.27.49Z"></path> <path class="cls-17" d="M1419.93,201h2.57v-2.37h.92v6h-.92V201.9h-2.57v2.76H1419v-6h.92Z"></path> <path class="cls-17" d="M1425.58,200.9v2.17a1.16,1.16,0,0,0,.16.68.86.86,0,0,0,.26.2.77.77,0,0,0,.64,0,.55.55,0,0,0,.25-.2,1,1,0,0,0,.17-.68V200.9h.88v2.2a1.59,1.59,0,0,1-.41,1.24,1.74,1.74,0,0,1-1.23.47,1.7,1.7,0,0,1-1.2-.47,1.68,1.68,0,0,1-.33-.58,1.64,1.64,0,0,1-.07-.66v-2.2Z"></path> <path class="cls-17" d="M1429.05,200.9h.89v.35a1.07,1.07,0,0,1,.42-.34,1,1,0,0,1,.51-.11,1,1,0,0,1,.58.14,1,1,0,0,1,.42.42,1.36,1.36,0,0,1,.5-.42,1.26,1.26,0,0,1,.63-.14,1.15,1.15,0,0,1,.63.15,1.21,1.21,0,0,1,.45.45,1.8,1.8,0,0,1,.2,1v2.34h-.88v-2.09a1.52,1.52,0,0,0-.09-.67.46.46,0,0,0-.19-.26.48.48,0,0,0-.31-.08.59.59,0,0,0-.29.07.66.66,0,0,0-.23.21,1.72,1.72,0,0,0-.17.87v2h-.94V202.7a1.55,1.55,0,0,0,0-.8.46.46,0,0,0-.19-.26.48.48,0,0,0-.31-.08.59.59,0,0,0-.29.07.66.66,0,0,0-.23.21,1.53,1.53,0,0,0-.17.87v2h-.89Z"></path> <path class="cls-17" d="M1435.81,198.74a.57.57,0,0,1,.32.09.59.59,0,0,1,.22.25.65.65,0,0,1,0,.34.54.54,0,0,1-.15.29.59.59,0,0,1-.3.16.54.54,0,0,1-.33,0,.57.57,0,0,1-.25-.21.55.55,0,0,1-.1-.32.78.78,0,0,1,0-.22.57.57,0,0,1,.12-.18.55.55,0,0,1,.19-.12.52.52,0,0,1,.21,0Zm.44,2.13v3.79h-.88V200.9Z"></path> <path class="cls-17" d="M1440.18,198.1h.88v6.56h-.88v-.4a1.45,1.45,0,0,1-.5.38,1.52,1.52,0,0,1-.63.14,1.86,1.86,0,0,1-.73-.17,1.76,1.76,0,0,1-.61-.44,1.74,1.74,0,0,1-.39-.65,1.88,1.88,0,0,1-.11-.74,2,2,0,0,1,.1-.76,2,2,0,0,1,.39-.65,2.26,2.26,0,0,1,.62-.44,1.92,1.92,0,0,1,.74-.15,1.31,1.31,0,0,1,1.12.54Zm-2.07,4.68a1.3,1.3,0,0,0,.05.44,1.16,1.16,0,0,0,.22.39,1.22,1.22,0,0,0,.36.27,1.3,1.3,0,0,0,.43.11,1.19,1.19,0,0,0,.79-.4,1.17,1.17,0,0,0,.32-.82,1.19,1.19,0,0,0-.32-.82,1.14,1.14,0,0,0-.79-.39,1.2,1.2,0,0,0-.45.09,1.41,1.41,0,0,0-.37.27,1.23,1.23,0,0,0-.23.4,1.41,1.41,0,0,0,0,.46Z"></path> <path class="cls-17" d="M1442.58,198.74a.48.48,0,0,1,.24,0,.53.53,0,0,1,.21.11.59.59,0,0,1,.15.2.59.59,0,0,1,0,.23.69.69,0,0,1,0,.24.55.55,0,0,1-.15.19.45.45,0,0,1-.21.12.63.63,0,0,1-.24,0,.65.65,0,0,1-.24,0,.5.5,0,0,1-.21-.12.52.52,0,0,1-.14-.19.69.69,0,0,1,0-.24.59.59,0,0,1,0-.23.56.56,0,0,1,.14-.2.61.61,0,0,1,.21-.11A.49.49,0,0,1,1442.58,198.74Zm.44,2.13v3.79h-.84V200.9Z"></path> <path class="cls-17" d="M1445.05,201.68v3h-.87v-3h-.37v-.78h.37v-1.39h.88v1.39h.67v.81Z"></path> <path class="cls-17" d="M1447.61,204.07l-1.62-3.2h1.06l1.08,2.21,1.1-2.21h1l-3,5.85h-1Z"></path> <path class="cls-17" d="M1353.39,333.9V339h-.92V333.9h-1.38V333h3.67v.87Z"></path> <path class="cls-17" d="M1358.45,338.18a1.78,1.78,0,0,1-.73.76,1.85,1.85,0,0,1-1,.24,1.82,1.82,0,0,1-.69-.11,1.93,1.93,0,0,1-.59-.38,2,2,0,0,1-.42-.67,2.11,2.11,0,0,1-.14-.78,2.25,2.25,0,0,1,.61-1.56,1.79,1.79,0,0,1,.59-.39,1.58,1.58,0,0,1,.68-.12,1.63,1.63,0,0,1,1.21.49,2.25,2.25,0,0,1,.53,1.61v.1h-2.72a1.31,1.31,0,0,0,.33.77,1,1,0,0,0,.31.19.9.9,0,0,0,.36.05.94.94,0,0,0,.61-.19,1.15,1.15,0,0,0,.35-.41Zm-.88-1.54a.83.83,0,0,0-.27-.51,1,1,0,0,0-.27-.17.85.85,0,0,0-.32,0,.76.76,0,0,0-.33.05.81.81,0,0,0-.29.19,1,1,0,0,0-.27.48Z"></path> <path class="cls-17" d="M1359.39,335.26h.88v.35a1.24,1.24,0,0,1,.42-.34,1,1,0,0,1,.52-.11,1.1,1.1,0,0,1,1,.56,1.3,1.3,0,0,1,1.13-.56,1.2,1.2,0,0,1,.62.14,1.24,1.24,0,0,1,.46.45,1.91,1.91,0,0,1,.19,1v2.34h-.88V337a1.74,1.74,0,0,0-.08-.68.44.44,0,0,0-.19-.25.48.48,0,0,0-.31-.08.59.59,0,0,0-.29.07.61.61,0,0,0-.24.21,1.68,1.68,0,0,0-.17.86v2h-.88V337a1.74,1.74,0,0,0-.08-.68.44.44,0,0,0-.19-.25.48.48,0,0,0-.31-.08.59.59,0,0,0-.29.07.61.61,0,0,0-.24.21,1.68,1.68,0,0,0-.17.86v2h-.88Z"></path> <path class="cls-17" d="M1366.59,341.11h-.88v-5.85h.88v.41a1.45,1.45,0,0,1,.5-.39,1.35,1.35,0,0,1,.62-.12,1.77,1.77,0,0,1,.75.15,1.9,1.9,0,0,1,.62.44,2,2,0,0,1,.39.65,1.94,1.94,0,0,1,.09.76,1.88,1.88,0,0,1-.11.74,2.12,2.12,0,0,1-.39.64,2.07,2.07,0,0,1-.61.44,1.83,1.83,0,0,1-.73.18,1.57,1.57,0,0,1-1.13-.56Zm0-3.93a1.09,1.09,0,0,0,.05.44.94.94,0,0,0,.22.39,1.14,1.14,0,0,0,.36.26,1,1,0,0,0,.44.1,1.22,1.22,0,0,0,.76-.41,1.2,1.2,0,0,0,0-1.61,1.16,1.16,0,0,0-.76-.4,1.07,1.07,0,0,0-.46.08,1.1,1.1,0,0,0-.38.27,1.14,1.14,0,0,0-.24.41,1.23,1.23,0,0,0,0,.47Z"></path> <path class="cls-17" d="M1373.87,338.18a2,2,0,0,1-.64.7,2.24,2.24,0,0,1-1.11.29,1.82,1.82,0,0,1-.69-.11,1.93,1.93,0,0,1-.59-.38,2,2,0,0,1-.42-.67,2.11,2.11,0,0,1-.14-.78,2.29,2.29,0,0,1,.6-1.56,1.79,1.79,0,0,1,.59-.39,1.58,1.58,0,0,1,.68-.12,1.64,1.64,0,0,1,.66.11,1.79,1.79,0,0,1,.56.38,2.25,2.25,0,0,1,.53,1.61v.1h-2.72a1.39,1.39,0,0,0,.32.77,1.07,1.07,0,0,0,.64.21,1,1,0,0,0,.64-.21,1.15,1.15,0,0,0,.35-.41Zm-.87-1.54a.87.87,0,0,0-.88-.74.93.93,0,0,0-.61.23,1.09,1.09,0,0,0-.27.48Z"></path> <path class="cls-17" d="M1374.82,335.26h.88v.34a1.4,1.4,0,0,1,.37-.32,1,1,0,0,1,.54-.12,1.17,1.17,0,0,1,.69.18l-.36.8a.73.73,0,0,0-.45-.14.57.57,0,0,0-.29,0,.65.65,0,0,0-.26.17,1.25,1.25,0,0,0-.24.88v2h-.88Z"></path> <path class="cls-17" d="M1380.39,335.26h.88v3.79h-.88v-.4a1.48,1.48,0,0,1-.51.38,1.52,1.52,0,0,1-.63.14,2,2,0,0,1-.73-.17,2.07,2.07,0,0,1-.61-.44,1.86,1.86,0,0,1-.38-.65,1.88,1.88,0,0,1-.11-.74,1.73,1.73,0,0,1,.1-.75,1.7,1.7,0,0,1,.39-.66,2.07,2.07,0,0,1,.61-.44,1.92,1.92,0,0,1,.74-.15,1.35,1.35,0,0,1,.63.13,1.33,1.33,0,0,1,.5.41Zm-2.07,1.91a1.3,1.3,0,0,0,0,.44,1.11,1.11,0,0,0,.22.38,1.14,1.14,0,0,0,.35.27,1.3,1.3,0,0,0,.43.11,1.12,1.12,0,0,0,.44-.09,1.07,1.07,0,0,0,.59-.66.93.93,0,0,0,0-.44,1.18,1.18,0,0,0,0-.46,1.13,1.13,0,0,0-.59-.67,1,1,0,0,0-.45-.1.92.92,0,0,0-.43.11,1,1,0,0,0-.36.27,1,1,0,0,0-.21.39A1.16,1.16,0,0,0,1378.32,337.17Z"></path> <path class="cls-17" d="M1383.29,336.07v3h-.88v-3H1382v-.81h.37V333.9h.88v1.39h.68v.81Z"></path> <path class="cls-17" d="M1385.45,335.26v2.17a1,1,0,0,0,.16.68.7.7,0,0,0,.26.19.67.67,0,0,0,.31.07.71.71,0,0,0,.32-.07.7.7,0,0,0,.26-.19,1.11,1.11,0,0,0,.16-.68v-2.17h.88v2.19a1.48,1.48,0,0,1-.06.66,1.66,1.66,0,0,1-.34.59,1.82,1.82,0,0,1-1.87.35,1.52,1.52,0,0,1-1-1.6v-2.19Z"></path> <path class="cls-17" d="M1388.92,335.26h.88v.34a1.4,1.4,0,0,1,.37-.32,1,1,0,0,1,.54-.12,1.17,1.17,0,0,1,.69.18l-.36.8a.73.73,0,0,0-.45-.14.63.63,0,0,0-.3,0,.7.7,0,0,0-.25.17,1.25,1.25,0,0,0-.24.88v2h-.88Z"></path> <path class="cls-17" d="M1395,338.18a2,2,0,0,1-.64.7,2.24,2.24,0,0,1-1.11.29,1.82,1.82,0,0,1-.69-.11,1.93,1.93,0,0,1-.59-.38,2,2,0,0,1-.42-.67,2.11,2.11,0,0,1-.14-.78,2.29,2.29,0,0,1,.6-1.56,1.79,1.79,0,0,1,.59-.39,1.58,1.58,0,0,1,.68-.12,1.64,1.64,0,0,1,.66.11,1.79,1.79,0,0,1,.56.38,2.25,2.25,0,0,1,.53,1.61v.1h-2.72a1.32,1.32,0,0,0,.32.77,1.07,1.07,0,0,0,.64.21,1,1,0,0,0,.64-.21,1.15,1.15,0,0,0,.35-.41Zm-.87-1.54a.87.87,0,0,0-.88-.74.93.93,0,0,0-.61.23,1.09,1.09,0,0,0-.27.48Z"></path> <path class="cls-17" d="M1419.93,335.42h2.57V333h.92v6h-.92v-2.77h-2.57V339H1419v-6h.92Z"></path> <path class="cls-17" d="M1425.58,335.26v2.17a1.18,1.18,0,0,0,.16.68.7.7,0,0,0,.26.19.77.77,0,0,0,.64,0,.67.67,0,0,0,.25-.19,1,1,0,0,0,.17-.68v-2.17h.88v2.19a1.54,1.54,0,0,1-.07.67,1.56,1.56,0,0,1-.34.58,1.81,1.81,0,0,1-2.43,0,1.67,1.67,0,0,1-.4-1.25v-2.19Z"></path> <path class="cls-17" d="M1429.05,335.26h.89v.35a1.07,1.07,0,0,1,.42-.34,1,1,0,0,1,.51-.11,1,1,0,0,1,.58.14,1,1,0,0,1,.42.42,1.37,1.37,0,0,1,1.13-.56,1.2,1.2,0,0,1,.62.14,1.24,1.24,0,0,1,.46.45,1.82,1.82,0,0,1,.2,1v2.34h-.88V337a1.56,1.56,0,0,0-.09-.68.44.44,0,0,0-.19-.25.48.48,0,0,0-.31-.08.59.59,0,0,0-.29.07.66.66,0,0,0-.23.21,1.68,1.68,0,0,0-.17.86v2h-.94V337a1.74,1.74,0,0,0-.08-.68.44.44,0,0,0-.19-.25.48.48,0,0,0-.31-.08.59.59,0,0,0-.29.07.66.66,0,0,0-.23.21,1.5,1.5,0,0,0-.17.86v2H1429Z"></path> <path class="cls-17" d="M1435.81,333.12a.41.41,0,0,1,.22,0,.51.51,0,0,1,.31.31.54.54,0,0,1,0,.22.56.56,0,0,1-.09.31.6.6,0,0,1-.59.25.6.6,0,0,1-.45-.45.6.6,0,0,1,.25-.59A.56.56,0,0,1,1435.81,333.12Zm.44,2.14v3.79h-.88v-3.79Z"></path> <path class="cls-17" d="M1440.18,332.48h.88v6.57h-.88v-.4a1.45,1.45,0,0,1-.5.38,1.52,1.52,0,0,1-.63.14,2,2,0,0,1-.73-.17,1.76,1.76,0,0,1-.61-.44,1.74,1.74,0,0,1-.39-.65,1.88,1.88,0,0,1-.11-.74,1.94,1.94,0,0,1,.1-.76,1.85,1.85,0,0,1,1-1.09,1.92,1.92,0,0,1,.74-.15,1.31,1.31,0,0,1,1.12.54Zm-2.07,4.69a1.14,1.14,0,0,0,.06.44,1,1,0,0,0,.22.38,1.1,1.1,0,0,0,.78.38,1.13,1.13,0,0,0,.44-.1,1,1,0,0,0,.36-.26,1.18,1.18,0,0,0,.23-.39,1.08,1.08,0,0,0,0-.44,1.18,1.18,0,0,0,0-.46,1.07,1.07,0,0,0-.23-.4,1,1,0,0,0-.36-.27,1,1,0,0,0-.45-.1,1.2,1.2,0,0,0-.45.09,1.41,1.41,0,0,0-.37.27,1.23,1.23,0,0,0-.23.4,1.41,1.41,0,0,0,0,.46Z"></path> <path class="cls-17" d="M1442.58,333.12a.41.41,0,0,1,.22,0,.51.51,0,0,1,.31.31.54.54,0,0,1,0,.22.56.56,0,0,1,0,.22.59.59,0,0,1-.13.19.52.52,0,0,1-.19.12.54.54,0,0,1-.22,0,.85.85,0,0,1-.22,0,.7.7,0,0,1-.31-.31.85.85,0,0,1,0-.22.78.78,0,0,1,0-.22.5.5,0,0,1,.13-.19.57.57,0,0,1,.18-.12.43.43,0,0,1,.22,0Zm.44,2.14v3.79h-.84v-3.79Z"></path> <path class="cls-17" d="M1445.05,336.07v3h-.87v-3h-.37v-.81h.37V333.9h.88v1.39h.67v.81Z"></path> <path class="cls-17" d="M1447.61,338.45l-1.62-3.19h1.06l1.08,2.21,1.1-2.21h1l-3,5.85h-1Z"></path> <path class="cls-17" d="M1353.39,468.82V474h-.92v-5.14h-1.38V468h3.67v.86Z"></path> <path class="cls-17" d="M1358.45,473.1a1.92,1.92,0,0,1-.64.69,2.06,2.06,0,0,1-1.12.29,1.64,1.64,0,0,1-.69-.11,1.73,1.73,0,0,1-.59-.37,2,2,0,0,1-.42-.67,2.11,2.11,0,0,1-.14-.78,2.21,2.21,0,0,1,.61-1.56,1.79,1.79,0,0,1,.59-.39,1.58,1.58,0,0,1,.68-.12,1.63,1.63,0,0,1,1.21.49,2.22,2.22,0,0,1,.53,1.6v.11h-2.72a1.31,1.31,0,0,0,.33.77,1,1,0,0,0,.67.24.94.94,0,0,0,.61-.19,1.53,1.53,0,0,0,.35-.41Zm-.88-1.54a.78.78,0,0,0-.27-.51.77.77,0,0,0-.27-.17.7.7,0,0,0-.32-.05.63.63,0,0,0-.33.06.81.81,0,0,0-.29.19.89.89,0,0,0-.27.48Z"></path> <path class="cls-17" d="M1359.39,470.17h.88v.36a1.37,1.37,0,0,1,.42-.34,1.31,1.31,0,0,1,.52-.11,1.17,1.17,0,0,1,.58.13,1.06,1.06,0,0,1,.42.42,1.36,1.36,0,0,1,.5-.42,1.37,1.37,0,0,1,.63-.13,1.12,1.12,0,0,1,.62.15,1.14,1.14,0,0,1,.46.44,1.91,1.91,0,0,1,.19,1V474h-.88V471.9a1.57,1.57,0,0,0-.08-.68.47.47,0,0,0-.19-.25.48.48,0,0,0-.31-.08.61.61,0,0,0-.53.28,1.68,1.68,0,0,0-.17.86v2h-.88V471.9a1.57,1.57,0,0,0-.08-.68.47.47,0,0,0-.19-.25.48.48,0,0,0-.31-.08.61.61,0,0,0-.53.28,1.68,1.68,0,0,0-.17.86v2h-.88Z"></path> <path class="cls-17" d="M1366.59,476h-.88v-5.86h.88v.42a1.45,1.45,0,0,1,.5-.39,1.49,1.49,0,0,1,.62-.12,1.93,1.93,0,0,1,.75.15,1.9,1.9,0,0,1,.62.44,2,2,0,0,1,.39.65,2,2,0,0,1,.09.76,1.88,1.88,0,0,1-.11.74,2,2,0,0,1-.39.64,1.9,1.9,0,0,1-.61.44,1.83,1.83,0,0,1-.73.18,1.5,1.5,0,0,1-.62-.16,1.42,1.42,0,0,1-.51-.4Zm0-3.94a1.16,1.16,0,0,0,.05.45,1.09,1.09,0,0,0,.22.39,1.14,1.14,0,0,0,.36.26,1.13,1.13,0,0,0,.44.1,1.17,1.17,0,0,0,.76-.41,1.21,1.21,0,0,0-.76-2,1.07,1.07,0,0,0-.46.08,1.1,1.1,0,0,0-.38.27,1,1,0,0,0-.24.4,1.23,1.23,0,0,0,0,.47Z"></path> <path class="cls-17" d="M1373.87,473.1a1.84,1.84,0,0,1-.64.69,2.05,2.05,0,0,1-1.11.29,1.64,1.64,0,0,1-.69-.11,1.73,1.73,0,0,1-.59-.37,2,2,0,0,1-.42-.67,2.11,2.11,0,0,1-.14-.78,2.24,2.24,0,0,1,.6-1.56,1.79,1.79,0,0,1,.59-.39,1.58,1.58,0,0,1,.68-.12,1.49,1.49,0,0,1,.66.12,1.61,1.61,0,0,1,.56.37,2.28,2.28,0,0,1,.53,1.6v.11h-2.72a1.39,1.39,0,0,0,.32.77,1.29,1.29,0,0,0,.32.19,1.12,1.12,0,0,0,.36.05.92.92,0,0,0,.6-.19,1.15,1.15,0,0,0,.35-.41Zm-.87-1.54a.83.83,0,0,0-.27-.51.9.9,0,0,0-.61-.24.94.94,0,0,0-.61.24,1.09,1.09,0,0,0-.27.48Z"></path> <path class="cls-17" d="M1374.82,470.17h.88v.35a1.4,1.4,0,0,1,.37-.32,1,1,0,0,1,.54-.12,1.17,1.17,0,0,1,.69.18l-.36.8a.67.67,0,0,0-.45-.14.57.57,0,0,0-.29,0,.56.56,0,0,0-.26.17,1.27,1.27,0,0,0-.24.87v2h-.88Z"></path> <path class="cls-17" d="M1380.39,470.17h.88V474h-.88v-.39a1.48,1.48,0,0,1-.51.38,1.51,1.51,0,0,1-.63.13,1.86,1.86,0,0,1-.73-.17,1.76,1.76,0,0,1-.61-.44,2,2,0,0,1-.39-.65,2.07,2.07,0,0,1-.1-.74,2,2,0,0,1,.09-.76,2,2,0,0,1,.39-.65,1.9,1.9,0,0,1,.62-.44,1.88,1.88,0,0,1,.74-.15,1.35,1.35,0,0,1,.63.13,1.33,1.33,0,0,1,.5.41Zm-2.07,1.91a1.09,1.09,0,0,0,0,.44,1,1,0,0,0,.22.39,1.1,1.1,0,0,0,.78.38,1.17,1.17,0,0,0,.76-.41,1.21,1.21,0,0,0-.76-2,1,1,0,0,0-.43.11,1,1,0,0,0-.35.27,1,1,0,0,0-.22.38,1.16,1.16,0,0,0,0,.45Z"></path> <path class="cls-17" d="M1383.29,471v3h-.88v-3H1382v-.81h.37v-1.38h.88v1.38h.68V471Z"></path> <path class="cls-17" d="M1385.45,470.17v2.17a1.12,1.12,0,0,0,.16.69.79.79,0,0,0,.57.26.71.71,0,0,0,.32-.07.7.7,0,0,0,.26-.19,1.06,1.06,0,0,0,.16-.69v-2.17h.88v2.2a1.48,1.48,0,0,1-.06.66,1.56,1.56,0,0,1-.34.58,1.74,1.74,0,0,1-.56.36,1.92,1.92,0,0,1-.67.11,1.73,1.73,0,0,1-.64-.12,1.71,1.71,0,0,1-.56-.35,1.77,1.77,0,0,1-.34-.58,1.64,1.64,0,0,1-.07-.66v-2.2Z"></path> <path class="cls-17" d="M1388.92,470.17h.88v.35a1.4,1.4,0,0,1,.37-.32,1,1,0,0,1,.54-.12,1.17,1.17,0,0,1,.69.18l-.36.8a.67.67,0,0,0-.45-.14.63.63,0,0,0-.3,0,.59.59,0,0,0-.25.17,1.27,1.27,0,0,0-.24.87v2h-.88Z"></path> <path class="cls-17" d="M1395,473.1a1.84,1.84,0,0,1-.64.69,2.05,2.05,0,0,1-1.11.29,1.64,1.64,0,0,1-.69-.11,1.73,1.73,0,0,1-.59-.37,2,2,0,0,1-.42-.67,2.11,2.11,0,0,1-.14-.78,2.24,2.24,0,0,1,.6-1.56,1.79,1.79,0,0,1,.59-.39,1.58,1.58,0,0,1,.68-.12,1.49,1.49,0,0,1,.66.12,1.61,1.61,0,0,1,.56.37,2.28,2.28,0,0,1,.53,1.6v.11h-2.72a1.32,1.32,0,0,0,.32.77,1.29,1.29,0,0,0,.32.19,1.12,1.12,0,0,0,.36.05.92.92,0,0,0,.6-.19,1.15,1.15,0,0,0,.35-.41Zm-.87-1.54a.83.83,0,0,0-.27-.51.9.9,0,0,0-.61-.24.94.94,0,0,0-.61.24,1.09,1.09,0,0,0-.27.48Z"></path> <path class="cls-17" d="M1419.93,470.34h2.57V468h.92v6h-.92V471.2h-2.57V474H1419v-6h.92Z"></path> <path class="cls-17" d="M1425.58,470.17v2.17a1.2,1.2,0,0,0,.16.69.7.7,0,0,0,.26.19.77.77,0,0,0,.64,0,.67.67,0,0,0,.25-.19,1,1,0,0,0,.17-.69v-2.17h.88v2.2a1.59,1.59,0,0,1-.41,1.24,1.8,1.8,0,0,1-1.21.47,1.84,1.84,0,0,1-1.22-.47,1.68,1.68,0,0,1-.33-.58,1.64,1.64,0,0,1-.07-.66v-2.2Z"></path> <path class="cls-17" d="M1429.05,470.17h.89v.36a1.17,1.17,0,0,1,.42-.34,1.26,1.26,0,0,1,.51-.11,1.17,1.17,0,0,1,.58.13,1.06,1.06,0,0,1,.42.42,1.36,1.36,0,0,1,.5-.42,1.37,1.37,0,0,1,.63-.13,1.12,1.12,0,0,1,.62.15,1.14,1.14,0,0,1,.46.44,1.82,1.82,0,0,1,.2,1V474h-.88V471.9a1.58,1.58,0,0,0-.09-.68.47.47,0,0,0-.19-.25.48.48,0,0,0-.31-.08.59.59,0,0,0-.29.07.66.66,0,0,0-.23.21,1.68,1.68,0,0,0-.17.86v2h-.94V471.9a1.57,1.57,0,0,0-.08-.68.47.47,0,0,0-.19-.25.48.48,0,0,0-.31-.08.59.59,0,0,0-.29.07.66.66,0,0,0-.23.21,1.5,1.5,0,0,0-.17.86v2H1429Z"></path> <path class="cls-17" d="M1435.81,468a.54.54,0,0,1,.22,0,.41.41,0,0,1,.19.12.5.5,0,0,1,.13.19.53.53,0,0,1,0,.22.49.49,0,0,1,0,.24.53.53,0,0,1-.11.21.56.56,0,0,1-.2.14.46.46,0,0,1-.23.05.56.56,0,0,1-.43-.19.72.72,0,0,1-.12-.21.65.65,0,0,1,0-.24.54.54,0,0,1,0-.22.76.76,0,0,1,.12-.19.62.62,0,0,1,.19-.12A.49.49,0,0,1,1435.81,468Zm.44,2.13V474h-.88v-3.79Z"></path> <path class="cls-17" d="M1440.18,467.4h.88V474h-.88v-.39a1.45,1.45,0,0,1-.5.38,1.51,1.51,0,0,1-.63.13,1.86,1.86,0,0,1-.73-.17,1.8,1.8,0,0,1-.62-.44,1.9,1.9,0,0,1-.39-.64,2.12,2.12,0,0,1-.1-.75,2,2,0,0,1,.1-.76,1.88,1.88,0,0,1,.39-.65,1.71,1.71,0,0,1,.62-.44,1.88,1.88,0,0,1,.74-.15,1.37,1.37,0,0,1,.63.13,1.49,1.49,0,0,1,.49.41Zm-2.07,4.68a1.3,1.3,0,0,0,.05.44,1.16,1.16,0,0,0,.22.39,1.22,1.22,0,0,0,.36.27,1.3,1.3,0,0,0,.43.11,1.17,1.17,0,0,0,.76-.41,1.21,1.21,0,0,0-.76-2,1.12,1.12,0,0,0-.44.09,1.26,1.26,0,0,0-.37.27,1,1,0,0,0-.23.39,1.19,1.19,0,0,0-.06.46Z"></path> <path class="cls-17" d="M1442.58,468a.54.54,0,0,1,.22,0,.41.41,0,0,1,.19.12.5.5,0,0,1,.13.19.53.53,0,0,1,0,.22.54.54,0,0,1-.16.4.5.5,0,0,1-.19.13.54.54,0,0,1-.22,0,.57.57,0,0,1-.22,0,.7.7,0,0,1-.31-.31.85.85,0,0,1,0-.22.78.78,0,0,1,0-.22.59.59,0,0,1,.13-.19.54.54,0,0,1,.4-.16Zm.44,2.13V474h-.84v-3.79Z"></path> <path class="cls-17" d="M1445.05,471v3h-.87v-3h-.37v-.81h.37v-1.38h.88v1.38h.67V471Z"></path> <path class="cls-17" d="M1447.61,473.37l-1.62-3.2h1.06l1.08,2.22,1.1-2.22h1l-3,5.86h-1Z"></path> <path class="cls-19" d="M1301.7,612h15.62"></path> <path class="cls-16" d="M1255.59,629h2.59v-2.38h.92v6h-.92V629.9h-2.59v2.77h-.92v-6h.92Z"></path> <path class="cls-16" d="M1264.18,630.78a2,2,0,1,1-.59-1.43,2,2,0,0,1,.59,1.43Zm-.9,0a1.07,1.07,0,0,0,0-.47,1.1,1.1,0,0,0-.24-.4,1,1,0,0,0-.37-.27,1.11,1.11,0,0,0-.92,0,1.1,1.1,0,0,0-.38.27,1.23,1.23,0,0,0-.23.4,1.24,1.24,0,0,0-.06.47,1.22,1.22,0,0,0,.06.46,1.13,1.13,0,0,0,.23.4,1.29,1.29,0,0,0,.38.28,1.22,1.22,0,0,0,.92,0,1.13,1.13,0,0,0,.37-.28,1,1,0,0,0,.24-.4A1,1,0,0,0,1263.28,630.78Z"></path> <path class="cls-16" d="M1265.18,628.9h.89v.35a1.12,1.12,0,0,1,.41-.34,1.06,1.06,0,0,1,.52-.11,1,1,0,0,1,.58.14,1,1,0,0,1,.42.42,1.36,1.36,0,0,1,.5-.42,1.26,1.26,0,0,1,.63-.14,1.12,1.12,0,0,1,.62.15,1.14,1.14,0,0,1,.46.44,1.82,1.82,0,0,1,.2,1v2.34h-.88v-2.09a1.56,1.56,0,0,0-.09-.68.47.47,0,0,0-.19-.25.48.48,0,0,0-.31-.08.59.59,0,0,0-.29.07.66.66,0,0,0-.23.21,1.5,1.5,0,0,0-.17.86v2h-.89v-2.09a1.75,1.75,0,0,0-.18-.78.47.47,0,0,0-.19-.25.48.48,0,0,0-.31-.08.63.63,0,0,0-.29.1.77.77,0,0,0-.21.23,1.5,1.5,0,0,0-.17.86v2h-.83Z"></path> <path class="cls-16" d="M1274.84,631.8a1.92,1.92,0,0,1-.63.7,2.08,2.08,0,0,1-1.12.29,1.82,1.82,0,0,1-.69-.11,1.93,1.93,0,0,1-.59-.38,2,2,0,0,1-.42-.67,2.11,2.11,0,0,1-.14-.78,2.25,2.25,0,0,1,.61-1.56,1.79,1.79,0,0,1,.59-.39,1.58,1.58,0,0,1,.68-.12,1.63,1.63,0,0,1,1.21.49,2.25,2.25,0,0,1,.53,1.61v.1h-2.69a1.33,1.33,0,0,0,.33.77,1,1,0,0,0,.31.19.9.9,0,0,0,.36,0,.94.94,0,0,0,.61-.19,1.15,1.15,0,0,0,.35-.41Zm-.87-1.54a.83.83,0,0,0-.27-.51.8.8,0,0,0-.59-.21.74.74,0,0,0-.33.05.81.81,0,0,0-.29.19,1,1,0,0,0-.27.48Z"></path> <path class="cls-20" d="M1298.18,626.66a3.39,3.39,0,0,1,2.23.59,2.92,2.92,0,0,1,.87,1.07,3,3,0,0,1,.29,1.35,2.82,2.82,0,0,1-.3,1.36,2.9,2.9,0,0,1-.91,1.06,3.48,3.48,0,0,1-2.2.58h-1.24v-6Zm-.34,5.14h.34a2.64,2.64,0,0,0,1.6-.42,2.39,2.39,0,0,0,.62-.76,2.21,2.21,0,0,0-.61-2.68,2.61,2.61,0,0,0-1.61-.41h-.39Z"></path> <path class="cls-20" d="M1305.92,631.79a1.87,1.87,0,0,1-.73.77,1.84,1.84,0,0,1-1,.23,1.63,1.63,0,0,1-.69-.1,1.79,1.79,0,0,1-.59-.39,2.18,2.18,0,0,1-.42-.66,2.12,2.12,0,0,1-.13-.79,2.28,2.28,0,0,1,.6-1.56,1.93,1.93,0,0,1,.59-.38,1.75,1.75,0,0,1,.68-.13,1.84,1.84,0,0,1,.66.12,1.62,1.62,0,0,1,.55.37,2.27,2.27,0,0,1,.54,1.61v.1h-2.72a1.27,1.27,0,0,0,.32.77,1.08,1.08,0,0,0,.64.22,1.05,1.05,0,0,0,.64-.22,1.15,1.15,0,0,0,.35-.41Zm-.88-1.54a.88.88,0,0,0-.27-.51.92.92,0,0,0-.27-.16.86.86,0,0,0-.32-.05,1,1,0,0,0-.33.06.79.79,0,0,0-.29.18,1.15,1.15,0,0,0-.27.48Z"></path> <path class="cls-20" d="M1307.25,628.89l1,2.16,1-2.16h1l-2.07,4-2-4Z"></path> <path class="cls-20" d="M1311.24,626.74a.54.54,0,0,1,.22,0,.57.57,0,0,1,.18.12.44.44,0,0,1,.12.19.54.54,0,0,1,0,.22.49.49,0,0,1,0,.24.53.53,0,0,1-.11.21.56.56,0,0,1-.2.14.46.46,0,0,1-.23.05.56.56,0,0,1-.43-.19.72.72,0,0,1-.12-.21.65.65,0,0,1,0-.24.78.78,0,0,1,0-.22.5.5,0,0,1,.13-.19.54.54,0,0,1,.4-.16Zm.44,2.14v3.79h-.88V628.9Z"></path> <path class="cls-20" d="M1315.73,630a1.5,1.5,0,0,0-.48-.34,1.74,1.74,0,0,0-.59-.13,1.38,1.38,0,0,0-.45.08,1.14,1.14,0,0,0-.39.25,1.41,1.41,0,0,0-.33.9,1.38,1.38,0,0,0,.33.89,1.1,1.1,0,0,0,.8.3,1.53,1.53,0,0,0,.6-.12,1.25,1.25,0,0,0,.49-.36v1a2,2,0,0,1-1.15.3,1.75,1.75,0,0,1-.78-.12,1.86,1.86,0,0,1-.67-.44,2,2,0,0,1-.54-1.43,2.07,2.07,0,0,1,.14-.78,2,2,0,0,1,.44-.68,2.25,2.25,0,0,1,.71-.43,2.06,2.06,0,0,1,.81-.13,2.17,2.17,0,0,1,1,.27Z"></path> <path class="cls-20" d="M1320,631.8a2.24,2.24,0,0,1-.64.7,2.06,2.06,0,0,1-1.12.29,1.82,1.82,0,0,1-.69-.11,1.93,1.93,0,0,1-.59-.38,2.23,2.23,0,0,1-.42-.67,2.1,2.1,0,0,1-.13-.78,2.24,2.24,0,0,1,.6-1.56,1.79,1.79,0,0,1,.59-.39,1.58,1.58,0,0,1,.68-.12,1.63,1.63,0,0,1,1.21.49,2.25,2.25,0,0,1,.53,1.61v.1h-2.71a1.3,1.3,0,0,0,.32.77,1,1,0,0,0,.31.19.9.9,0,0,0,.36,0,.94.94,0,0,0,.61-.19,1.15,1.15,0,0,0,.35-.41Zm-.88-1.54a.83.83,0,0,0-.27-.51.77.77,0,0,0-.27-.17.85.85,0,0,0-.32,0,.76.76,0,0,0-.33.05.81.81,0,0,0-.29.19,1,1,0,0,0-.27.48Z"></path> <path class="cls-20" d="M1322.57,629.9a.64.64,0,0,0-.22-.24.62.62,0,0,0-.32-.09.35.35,0,0,0-.27.1l-.06.09a.36.36,0,0,0,0,.11.24.24,0,0,0,0,.12.43.43,0,0,0,.09.1l.3.15.45.22a1.47,1.47,0,0,1,.53.36.87.87,0,0,1,.22.32.82.82,0,0,1,.06.38,1.25,1.25,0,0,1-.33.86,1.37,1.37,0,0,1-1.07.43,1.35,1.35,0,0,1-.82-.25,1.52,1.52,0,0,1-.48-.69l.72-.34a1,1,0,0,0,.21.36.59.59,0,0,0,.38.14.58.58,0,0,0,.36-.12.43.43,0,0,0,.13-.3.4.4,0,0,0-.12-.29.78.78,0,0,0-.38-.23l-.32-.16a2.14,2.14,0,0,1-.52-.32.72.72,0,0,1-.2-.29.84.84,0,0,1-.07-.35,1.2,1.2,0,0,1,.31-.81,1.23,1.23,0,0,1,.93-.36,1.15,1.15,0,0,1,.7.2,1,1,0,0,1,.43.47Z"></path> <path class="cls-20" d="M1349.48,628a.94.94,0,0,0-.27-.38.86.86,0,0,0-.65-.22c-.56,0-.85.33-.85.72,0,.18.06.5.65.73l.6.24c1.11.45,1.42,1.08,1.42,1.77a1.94,1.94,0,0,1-.12.75,2,2,0,0,1-.42.64,1.89,1.89,0,0,1-.64.41,1.79,1.79,0,0,1-.76.13,1.75,1.75,0,0,1-1.41-.61,2,2,0,0,1-.51-1.17l.91-.2a1.36,1.36,0,0,0,.25.77,1,1,0,0,0,.51.33,1,1,0,0,0,.62,0,1,1,0,0,0,.48-.38.92.92,0,0,0,.17-.58,1.07,1.07,0,0,0-.87-1l-.57-.24a1.7,1.7,0,0,1-.85-.57,1.73,1.73,0,0,1-.38-1,1.76,1.76,0,0,1,.15-.64,1.49,1.49,0,0,1,.39-.53,1.66,1.66,0,0,1,.57-.34,1.59,1.59,0,0,1,.65-.07,1.73,1.73,0,0,1,1.2.4,1.69,1.69,0,0,1,.46.6Z"></path> <path class="cls-20" d="M1354.18,628.9h.88v3.79h-.88v-.4a1.48,1.48,0,0,1-.51.38,1.52,1.52,0,0,1-.63.14,2,2,0,0,1-.73-.17,2.07,2.07,0,0,1-.61-.44,1.86,1.86,0,0,1-.38-.65,2.69,2.69,0,0,1,0-1.49,1.66,1.66,0,0,1,.39-.65,1.75,1.75,0,0,1,1.35-.6,1.35,1.35,0,0,1,.63.13,1.43,1.43,0,0,1,.5.41Zm-2.07,1.91a1.3,1.3,0,0,0,.05.44,1.11,1.11,0,0,0,.22.38,1,1,0,0,0,.35.27,1.09,1.09,0,0,0,.43.11,1.05,1.05,0,0,0,.43-.11,1,1,0,0,0,.35-.27,1.06,1.06,0,0,0,.21-.39,1.08,1.08,0,0,0,0-.44,1.19,1.19,0,0,0,0-.46,1.16,1.16,0,0,0-.23-.4,1.07,1.07,0,0,0-.36-.27,1,1,0,0,0-.45-.1,1.09,1.09,0,0,0-.43.11,1.31,1.31,0,0,0-.35.27,1.06,1.06,0,0,0-.21.39,1.16,1.16,0,0,0,0,.45Z"></path> <path class="cls-20" d="M1357,629.69v3h-.86v-3h-.3v-.79h.3v-1.26a1.75,1.75,0,0,1,.24-1,1.6,1.6,0,0,1,.58-.46,1.52,1.52,0,0,1,.73-.12,1.33,1.33,0,0,1,.74.11,1.28,1.28,0,0,1,.58.47,1.67,1.67,0,0,1,.23,1v.26h-.88v-.16a1,1,0,0,0-.11-.59.53.53,0,0,0-.24-.23.58.58,0,0,0-.32-.06.58.58,0,0,0-.56.29,1.29,1.29,0,0,0-.1.59v1.16h1v.81Z"></path> <path class="cls-20" d="M1363.27,629.69v3h-.88v-3H1362v-.79h.37v-1.39h.88v1.39h.68v.81Z"></path> <path class="cls-20" d="M1365.84,632.07l-1.66-3.17h1.06l1.08,2.21,1.1-2.21h1l-3,5.85h-1Z"></path> <path class="cls-20" d="M1389.66,628.07a2.31,2.31,0,0,0-1.63-.67,2.27,2.27,0,0,0-2.27,2.27,2.29,2.29,0,0,0,2.27,2.27,2.39,2.39,0,0,0,1.62-.69v1.09a3.3,3.3,0,0,1-1.65.45,3.18,3.18,0,0,1-2.87-1.86,2.93,2.93,0,0,1-.25-1.24,3.28,3.28,0,0,1,.25-1.28,3.1,3.1,0,0,1,.75-1.07,3,3,0,0,1,1-.61,3.06,3.06,0,0,1,1.16-.17,2.65,2.65,0,0,1,1.6.43Z"></path> <path class="cls-20" d="M1393.4,628.9h.88v3.79h-.88v-.4a1.47,1.47,0,0,1-.5.39,1.51,1.51,0,0,1-.63.13,1.86,1.86,0,0,1-.73-.17,1.9,1.9,0,0,1-1-1.08,1.93,1.93,0,0,1-.11-.75,1.89,1.89,0,0,1,.1-.75,2,2,0,0,1,.39-.66,2.26,2.26,0,0,1,.62-.44,1.92,1.92,0,0,1,.74-.15,1.37,1.37,0,0,1,.63.13,1.49,1.49,0,0,1,.49.41Zm-2.07,1.91a1.11,1.11,0,0,0,.26.8,1.08,1.08,0,0,0,.74.4,1,1,0,0,0,.44-.09,1,1,0,0,0,.37-.27,1,1,0,0,0,.27-.83,1,1,0,0,0,0-.46,1,1,0,0,0-.22-.4,1.11,1.11,0,0,0-.37-.27,1,1,0,0,0-.45-.1,1.1,1.1,0,0,0-.74.39,1.15,1.15,0,0,0-.26.81Z"></path> <path class="cls-20" d="M1395.4,628.9h.88v.35a1.24,1.24,0,0,1,.42-.34,1,1,0,0,1,.52-.11,1.1,1.1,0,0,1,1,.56,1.31,1.31,0,0,1,.49-.42,1.29,1.29,0,0,1,.63-.14,1.12,1.12,0,0,1,.62.15,1.14,1.14,0,0,1,.46.44,1.8,1.8,0,0,1,.2,1v2.34h-.88v-2.09a1.74,1.74,0,0,0-.08-.68.39.39,0,0,0-.2-.25.48.48,0,0,0-.31-.08.6.6,0,0,0-.29.08.55.55,0,0,0-.23.2,1.62,1.62,0,0,0-.17.87v2h-.88v-2.09a1.74,1.74,0,0,0-.08-.68.45.45,0,0,0-.2-.25.48.48,0,0,0-.31-.08.6.6,0,0,0-.29.08.55.55,0,0,0-.23.2,1.62,1.62,0,0,0-.17.87v2h-.88Z"></path> <path class="cls-20" d="M1405.11,631.8a2,2,0,0,1-.64.7,2.05,2.05,0,0,1-1.11.29,1.82,1.82,0,0,1-.69-.11,1.93,1.93,0,0,1-.59-.38,2,2,0,0,1-.42-.67,2.11,2.11,0,0,1-.14-.78,2.29,2.29,0,0,1,.6-1.56,1.79,1.79,0,0,1,.59-.39,1.74,1.74,0,0,1,.68-.12,1.49,1.49,0,0,1,.66.12,1.61,1.61,0,0,1,.56.37,2.27,2.27,0,0,1,.57,1.63v.1h-2.72a1.32,1.32,0,0,0,.32.77,1.07,1.07,0,0,0,.64.21,1,1,0,0,0,.64-.21,1.15,1.15,0,0,0,.35-.41Zm-.87-1.53a.94.94,0,0,0-.27-.52.91.91,0,0,0-.61-.23.93.93,0,0,0-.61.23,1.07,1.07,0,0,0-.27.49Z"></path> <path class="cls-20" d="M1361.77,631.92a2,2,0,0,1-.64.7,2.05,2.05,0,0,1-1.11.29,1.82,1.82,0,0,1-.69-.11,1.62,1.62,0,0,1-.59-.38,2,2,0,0,1-.42-.67,2.11,2.11,0,0,1-.14-.78,2.29,2.29,0,0,1,.6-1.56,1.72,1.72,0,0,1,1.27-.51,1.53,1.53,0,0,1,.67.12,1.49,1.49,0,0,1,.55.37,2.27,2.27,0,0,1,.57,1.63v.1h-2.72a1.3,1.3,0,0,0,.32.77,1.07,1.07,0,0,0,.64.21,1,1,0,0,0,.64-.21,1.15,1.15,0,0,0,.35-.41Zm-.87-1.53a.94.94,0,0,0-.27-.52.91.91,0,0,0-.61-.23.93.93,0,0,0-.61.23,1.13,1.13,0,0,0-.27.49Z"></path> <path class="cls-20" d="M1406.06,628.9h.88v.34a1.36,1.36,0,0,1,.37-.31.94.94,0,0,1,.54-.13,1.27,1.27,0,0,1,.69.18l-.36.8a.79.79,0,0,0-.45-.13.7.7,0,0,0-.29,0,.65.65,0,0,0-.26.17,1.25,1.25,0,0,0-.24.88v2h-.88Z"></path> <path class="cls-20" d="M1411.63,628.9h.88v3.79h-.88v-.4a1.48,1.48,0,0,1-.51.38,1.52,1.52,0,0,1-.63.14,2,2,0,0,1-.73-.17,2.07,2.07,0,0,1-.61-.44,1.86,1.86,0,0,1-.38-.65,1.88,1.88,0,0,1-.11-.74,1.73,1.73,0,0,1,.1-.75,1.66,1.66,0,0,1,.39-.65,1.75,1.75,0,0,1,1.35-.6,1.35,1.35,0,0,1,.63.13,1.43,1.43,0,0,1,.5.41Zm-2.07,1.91a1.3,1.3,0,0,0,0,.44,1.11,1.11,0,0,0,.22.38,1,1,0,0,0,.35.27,1.09,1.09,0,0,0,.43.11,1.12,1.12,0,0,0,.44-.09,1.07,1.07,0,0,0,.59-.66.93.93,0,0,0,0-.44,1.19,1.19,0,0,0,0-.46,1.16,1.16,0,0,0-.23-.4,1.07,1.07,0,0,0-.36-.27,1,1,0,0,0-.45-.1,1,1,0,0,0-.43.11,1.1,1.1,0,0,0-.35.26,1.26,1.26,0,0,0-.22.39,1.3,1.3,0,0,0,0,.44Z"></path> <path class="cls-20" d="M1415.28,629.9a.64.64,0,0,0-.22-.24.62.62,0,0,0-.32-.09.39.39,0,0,0-.27.1.4.4,0,0,0-.08.2.22.22,0,0,0,0,.13.26.26,0,0,0,.09.09l.29.15.45.22a1.47,1.47,0,0,1,.53.36.87.87,0,0,1,.22.32.82.82,0,0,1,.06.38,1.21,1.21,0,0,1-.33.86,1.33,1.33,0,0,1-.48.33,1.42,1.42,0,0,1-.58.1,1.35,1.35,0,0,1-.82-.25,1.47,1.47,0,0,1-.49-.69l.72-.34a1.31,1.31,0,0,0,.21.36.62.62,0,0,0,.39.14.58.58,0,0,0,.36-.12.44.44,0,0,0,.12-.3.36.36,0,0,0-.11-.29,1.14,1.14,0,0,0-.38-.23l-.33-.16a2.14,2.14,0,0,1-.52-.32.72.72,0,0,1-.2-.29.84.84,0,0,1-.07-.35,1.21,1.21,0,0,1,.32-.81,1.23,1.23,0,0,1,.43-.28,1.15,1.15,0,0,1,.49-.08,1.18,1.18,0,0,1,.71.2,1.29,1.29,0,0,1,.43.47Z"></path> <path class="cls-20" d="M1436,632.67l1.27-6.46,2.08,4.67,2.11-4.67,1.13,6.46h-.93l-.61-3.62-1.75,3.9-1.73-3.91-.63,3.63Z"></path> <path class="cls-20" d="M1447.56,630.78a2,2,0,0,1-1.23,1.84,1.93,1.93,0,0,1-1.16.12,2,2,0,0,1-1.57-1.57,1.93,1.93,0,0,1,.12-1.16,2,2,0,0,1,1.84-1.23,2,2,0,0,1,2,2Zm-.9,0a1.1,1.1,0,0,0-.22-.61,1.12,1.12,0,0,0-.52-.39,1.2,1.2,0,0,0-.65,0,1.08,1.08,0,0,0-.56.33,1.14,1.14,0,0,0-.29.58,1.09,1.09,0,0,0,.08.64,1.18,1.18,0,0,0,.42.49,1.16,1.16,0,0,0,.62.19,1.13,1.13,0,0,0,.45-.09.84.84,0,0,0,.38-.26,1,1,0,0,0,.29-.84Z"></path> <path class="cls-20" d="M1448.48,628.9h.88v.34a1.36,1.36,0,0,1,.37-.31.94.94,0,0,1,.54-.13,1.19,1.19,0,0,1,.69.18l-.36.8a.79.79,0,0,0-.45-.13.57.57,0,0,0-.29,0,.67.67,0,0,0-.25.16,1.25,1.25,0,0,0-.25.88v2h-.88Z"></path> <path class="cls-20" d="M1454.58,631.8a2,2,0,0,1-.64.7,2.05,2.05,0,0,1-1.11.29,1.82,1.82,0,0,1-.69-.11,1.93,1.93,0,0,1-.59-.38,2,2,0,0,1-.42-.67,2.11,2.11,0,0,1-.14-.78,2.29,2.29,0,0,1,.6-1.56,1.79,1.79,0,0,1,.59-.39,1.74,1.74,0,0,1,.68-.12,1.49,1.49,0,0,1,.66.12,1.61,1.61,0,0,1,.56.37,2.25,2.25,0,0,1,.53,1.61V631h-2.72a1.28,1.28,0,0,0,.33.76,1,1,0,0,0,.31.19.9.9,0,0,0,.36,0,.92.92,0,0,0,.6-.19,1.15,1.15,0,0,0,.35-.41Zm-.87-1.53a.88.88,0,0,0-.27-.52,1,1,0,0,0-.93-.16,1,1,0,0,0-.29.19,1.07,1.07,0,0,0-.27.49Z"></path> <path class="cls-16" d="M1260.21,151.72h-12.66v-9.09l6.33-4.22,6.33,4.22Z"></path> <path class="cls-21" d="M1270.21,617.8h-12.66v-9.1l6.33-4.21,6.33,4.21Z"></path> <path class="cls-5" d="M1455.18,78.9h-198.9a41.62,41.62,0,0,0-41.64,41.63V616.9a41.65,41.65,0,0,0,41.64,41.62h198.9a41.62,41.62,0,0,0,41.66-41.62V120.53a41.63,41.63,0,0,0-41.66-41.63Zm28.58,534.41A31.65,31.65,0,0,1,1452.18,645H1259.86a31.67,31.67,0,0,1-31.68-31.65v-489a31.63,31.63,0,0,1,31.68-31.62h25.41a6.47,6.47,0,0,1,4.6,1.9,6.52,6.52,0,0,1,1.9,4.61h0A16.83,16.83,0,0,0,1308.59,116h94.3a16.82,16.82,0,0,0,16.82-16.82h0a6.44,6.44,0,0,1,.5-2.49,6.53,6.53,0,0,1,1.4-2.12,6.47,6.47,0,0,1,4.6-1.9h26a31.65,31.65,0,0,1,31.65,31.65Z"></path> <path class="cls-22" d="M1366.43,92.69h-27.89a3.32,3.32,0,1,0,0,6.64h27.89a3.32,3.32,0,0,0,0-6.64Z"></path> <path class="cls-22" d="M1383,101.48a5.47,5.47,0,1,0-5.47-5.47A5.47,5.47,0,0,0,1383,101.48Z"></path> <path class="cls-23" d="M1453.75,184.85H1256.64a9.09,9.09,0,0,0-9.09,9.09V294a9.09,9.09,0,0,0,9.09,9.09h197.11a9.09,9.09,0,0,0,9.09-9.09V193.94A9.09,9.09,0,0,0,1453.75,184.85Z"></path> <path class="cls-23" d="M1453.75,320H1256.64a9.09,9.09,0,0,0-9.09,9.09V429.11a9.09,9.09,0,0,0,9.09,9.09h197.11a9.09,9.09,0,0,0,9.09-9.09V329A9.09,9.09,0,0,0,1453.75,320Z"></path> <path class="cls-23" d="M1453.75,455H1256.64a9.09,9.09,0,0,0-9.09,9.09V564.2a9.09,9.09,0,0,0,9.09,9.09h197.11a9.09,9.09,0,0,0,9.09-9.09V464.13A9.09,9.09,0,0,0,1453.75,455Z"></path> <path class="cls-19" d="M1360,608.58h-8a3.2,3.2,0,0,0-3.2,3.2v3.71a3.21,3.21,0,0,0,3.2,3.2h8a3.2,3.2,0,0,0,3.2-3.2v-3.71A3.2,3.2,0,0,0,1360,608.58Z"></path> <path class="cls-19" d="M1351.86,608.12v-1.06a4.14,4.14,0,0,1,2.51-4,4.22,4.22,0,0,1,1.64-.34,4.14,4.14,0,0,1,1.63.34,4,4,0,0,1,1.37,1,4.11,4.11,0,0,1,1.14,3.07v1.06"></path> <path class="cls-19" d="M1356,611.77v4"></path> <path class="cls-19" d="M1317.32,606.25H1301.7V617.8h15.62Z"></path> <path class="cls-19" d="M1405.38,606.25h-11.55V617.8h11.55Z"></path> <path class="cls-19" d="M1409.7,615.79l-4.32-1.76v-4l4.32-1.77Z"></path> <path class="cls-23" d="M1270,552.07h-5.68a4.15,4.15,0,0,0-4.15,4.15v1.52a4.15,4.15,0,0,0,4.15,4.15H1270a4.15,4.15,0,0,0,4.15-4.15v-1.52A4.15,4.15,0,0,0,1270,552.07Z"></path> <path class="cls-23" d="M1263.18,552.62v-3a4,4,0,1,1,8,0v3"></path> <path class="cls-23" d="M1270,416.08h-5.68a4.15,4.15,0,0,0-4.15,4.15v1.52a4.15,4.15,0,0,0,4.15,4.15H1270a4.15,4.15,0,0,0,4.15-4.15v-1.52A4.15,4.15,0,0,0,1270,416.08Z"></path> <path class="cls-23" d="M1263.18,416.64v-3a4,4,0,1,1,8,0v3"></path> <path class="cls-23" d="M1267.2,419.07v3.85"></path> <path class="cls-23" d="M1270,281.63h-5.68a4.15,4.15,0,0,0-4.15,4.15v1.52a4.15,4.15,0,0,0,4.15,4.15H1270a4.15,4.15,0,0,0,4.15-4.15v-1.52A4.15,4.15,0,0,0,1270,281.63Z"></path> <path class="cls-23" d="M1263.18,282.19v-3a4,4,0,1,1,8,0v3"></path> <path class="cls-23" d="M1267.2,284.62v3.85"></path> <path class="cls-23" d="M1267.2,555.05v3.85"></path> <path class="cls-19" d="M1437.22,606.3h15.62"></path> <path class="cls-19" d="M1437.22,617.8h15.62"></path> <path class="cls-19" d="M1437.22,612h15.62"></path> </g> </g> <g id="Layer_7" data-name="Layer 7"> <path class="cls-2" d="M329,599.26V176.46a10,10,0,0,0-9.14-9.92c-28.58-2.32-116.24-9.2-149.23-9.2S50,164.22,21.4,166.54a10,10,0,0,0-9.15,9.92v422.8Z"></path> <path class="cls-5" d="M279.49,593.48,329,591.3v58.85a10,10,0,0,1-9.95,10H22.21a10,10,0,0,1-10-10V591.3l150,6.58q8.76.39,17.51,0l99.73-4.4"></path> <path class="cls-24" d="M280,660.11h39a10,10,0,0,0,9.95-10V591.3l-49.51,2.18Z"></path> <path class="cls-25" d="M280,593.46l-.75-430.08c17,1.27,31.68,2.44,40.61,3.16a10,10,0,0,1,9.14,9.92V591.3l-49,2.16"></path> <path class="cls-26" d="M62,593.48,12.25,591.3V176.46a10,10,0,0,1,9.15-9.92c8.93-.72,23.62-1.89,40.6-3.16Z"></path> <circle class="cls-27" cx="89.87" cy="294.64" r="15.73"></circle> <circle class="cls-27" cx="89.87" cy="346.41" r="15.73"></circle> <circle class="cls-27" cx="89.87" cy="398.18" r="15.73"></circle> <circle class="cls-27" cx="89.87" cy="449.94" r="15.73"></circle> <circle class="cls-27" cx="252.14" cy="294.64" r="15.73"></circle> <circle class="cls-27" cx="252.14" cy="346.41" r="15.73"></circle> <circle class="cls-27" cx="252.14" cy="398.18" r="15.73"></circle> <circle class="cls-27" cx="252.14" cy="449.94" r="15.73"></circle> <circle class="cls-27" cx="171.01" cy="286.68" r="15.73"></circle> <circle class="cls-27" cx="171.01" cy="338.44" r="15.73"></circle> <circle class="cls-27" cx="171.01" cy="390.21" r="15.73"></circle> <circle class="cls-27" cx="171.01" cy="441.98" r="15.73"></circle> <circle class="cls-27" cx="132.73" cy="516.45" r="15.73"></circle> <circle class="cls-27" cx="208.53" cy="516.45" r="15.73"></circle> <circle class="cls-28" cx="78.53" cy="513.58" r="4.38"></circle> <circle class="cls-28" cx="263.49" cy="513.58" r="4.38"></circle> <polygon class="cls-29" points="182.15 607.64 171 615.8 159.86 607.64 182.15 607.64"></polygon> <path class="cls-30" d="M159.78,230a11.07,11.07,0,0,1,21.61-.37"></path> <polygon class="cls-30" points="137.26 522.08 128.2 522.08 128.2 513.03 132.73 508.83 137.26 513.03 137.26 522.08"></polygon> <polygon class="cls-31" points="213.06 522.08 204 522.08 204 513.03 208.53 508.83 213.06 513.03 213.06 522.08"></polygon> <path class="cls-32" d="M62,593.48v66.63H22.21a10,10,0,0,1-10-10V591.3L62,593.48"></path> <line class="cls-33" x1="62" y1="173.22" x2="146.21" y2="166.89"></line> <path d="M91.26,301.18H88.8v-9.26a8.46,8.46,0,0,1-3.18,1.86v-2.23a7.21,7.21,0,0,0,2.09-1.19,4.56,4.56,0,0,0,1.55-2.06h2Z"></path> <path d="M174.89,290.17v2.28h-8.62a6.12,6.12,0,0,1,.84-2.45,16.25,16.25,0,0,1,2.77-3.08,16.86,16.86,0,0,0,2-2.1,2.69,2.69,0,0,0,.5-1.5,1.71,1.71,0,0,0-.44-1.27,1.66,1.66,0,0,0-1.22-.44,1.62,1.62,0,0,0-1.22.46,2.38,2.38,0,0,0-.53,1.54l-2.45-.24a4,4,0,0,1,1.38-2.92,4.66,4.66,0,0,1,2.88-.88,4.2,4.2,0,0,1,3,1,3.39,3.39,0,0,1,1.08,2.55,4.36,4.36,0,0,1-.31,1.65,6.75,6.75,0,0,1-1,1.64,17.5,17.5,0,0,1-1.61,1.64c-.78.71-1.27,1.18-1.48,1.41a4.76,4.76,0,0,0-.5.69Z"></path> <path d="M247.68,297.78l2.38-.29a2.23,2.23,0,0,0,.62,1.39,1.66,1.66,0,0,0,1.2.48,1.69,1.69,0,0,0,1.29-.57,2.29,2.29,0,0,0,.52-1.56,2.09,2.09,0,0,0-.5-1.47,1.61,1.61,0,0,0-1.22-.54,4.43,4.43,0,0,0-1.13.18l.27-2a2.19,2.19,0,0,0,1.53-.44,1.52,1.52,0,0,0,.52-1.22,1.42,1.42,0,0,0-.38-1,1.38,1.38,0,0,0-1-.38,1.46,1.46,0,0,0-1.07.43,2.08,2.08,0,0,0-.55,1.28l-2.26-.38a5,5,0,0,1,.71-1.86,3.22,3.22,0,0,1,1.33-1.1,4.56,4.56,0,0,1,1.91-.4,3.83,3.83,0,0,1,2.91,1.16,2.92,2.92,0,0,1-.95,4.83,3,3,0,0,1,1.77,1.06,3.07,3.07,0,0,1,.66,2,3.86,3.86,0,0,1-1.24,2.88,4.61,4.61,0,0,1-6,.19A4,4,0,0,1,247.68,297.78Z"></path> <path d="M89.79,353v-2.58H84.54v-2.15l5.56-8.15h2.07v8.14h1.59v2.16H92.17V353Zm0-4.74v-4.39l-3,4.39Z"></path> <path d="M166.62,340.92l2.45-.26a2.11,2.11,0,0,0,.62,1.32,1.73,1.73,0,0,0,1.19.49,1.66,1.66,0,0,0,1.31-.63,2.87,2.87,0,0,0,.53-1.88,2.58,2.58,0,0,0-.53-1.78,1.77,1.77,0,0,0-1.38-.59,2.51,2.51,0,0,0-1.89.94l-2-.29,1.26-6.68h6.5v2.31H170l-.38,2.17a3.78,3.78,0,0,1,1.68-.41,3.7,3.7,0,0,1,2.77,1.19,4.3,4.3,0,0,1,1.14,3.09,4.65,4.65,0,0,1-.92,2.83,4.07,4.07,0,0,1-3.47,1.7,4.3,4.3,0,0,1-2.9-1A4,4,0,0,1,166.62,340.92Z"></path> <path d="M256.1,343.26l-2.38.27a1.8,1.8,0,0,0-.45-1.09,1.37,1.37,0,0,0-1-.35,1.6,1.6,0,0,0-1.31.7,5.87,5.87,0,0,0-.68,2.92,2.85,2.85,0,0,1,2.28-1.09,3.49,3.49,0,0,1,2.64,1.17,4.26,4.26,0,0,1,1.1,3,4.35,4.35,0,0,1-1.16,3.16,4.21,4.21,0,0,1-6.16-.32q-1.25-1.52-1.25-5t1.31-5.08a4.18,4.18,0,0,1,3.38-1.56,3.57,3.57,0,0,1,2.42.82A3.8,3.8,0,0,1,256.1,343.26Zm-5.57,5.37a2.78,2.78,0,0,0,.55,1.85,1.64,1.64,0,0,0,1.26.65,1.47,1.47,0,0,0,1.14-.53,2.72,2.72,0,0,0,.45-1.75,2.81,2.81,0,0,0-.49-1.84,1.55,1.55,0,0,0-1.22-.58,1.53,1.53,0,0,0-1.2.56A2.38,2.38,0,0,0,250.53,348.63Z"></path> <path d="M86,394.35v-2.29h8.41v1.79a13,13,0,0,0-2.12,2.94,17.18,17.18,0,0,0-1.64,4.07,15.28,15.28,0,0,0-.56,3.86H87.68a16.52,16.52,0,0,1,1.1-5.43,18.17,18.17,0,0,1,2.77-4.94Z"></path> <path d="M168.7,389.06a2.86,2.86,0,0,1-1.39-1.1,2.9,2.9,0,0,1-.43-1.55,3.08,3.08,0,0,1,1-2.37,4.78,4.78,0,0,1,5.69,0,3.09,3.09,0,0,1,1,2.37,2.78,2.78,0,0,1-.47,1.59,2.92,2.92,0,0,1-1.3,1.06,3.51,3.51,0,0,1,1.62,1.25,3.32,3.32,0,0,1,.56,1.9,3.88,3.88,0,0,1-1.13,2.89,4.15,4.15,0,0,1-3,1.11,4.54,4.54,0,0,1-2.91-.92,3.56,3.56,0,0,1-1.38-3,3.7,3.7,0,0,1,.52-1.91A3.36,3.36,0,0,1,168.7,389.06Zm.28,3a2.21,2.21,0,0,0,.52,1.58,1.75,1.75,0,0,0,2.56,0,2.29,2.29,0,0,0,.5-1.58,2,2,0,0,0-.51-1.45,1.67,1.67,0,0,0-1.29-.55,1.54,1.54,0,0,0-1.34.62A2.27,2.27,0,0,0,169,392.08Zm.22-5.49a1.51,1.51,0,0,0,.42,1.14,1.49,1.49,0,0,0,1.11.41,1.52,1.52,0,0,0,1.12-.41,1.55,1.55,0,0,0,.42-1.15,1.5,1.5,0,0,0-.42-1.11,1.47,1.47,0,0,0-1.1-.41,1.53,1.53,0,0,0-1.13.42A1.5,1.5,0,0,0,169.2,386.59Z"></path> <path d="M247.82,401.75l2.38-.26a1.69,1.69,0,0,0,.46,1.07,1.32,1.32,0,0,0,1,.35,1.56,1.56,0,0,0,1.29-.7,5.86,5.86,0,0,0,.69-2.9,2.93,2.93,0,0,1-2.32,1.08,3.45,3.45,0,0,1-2.61-1.17,4.22,4.22,0,0,1-1.1-3,4.31,4.31,0,0,1,1.16-3.15,4.19,4.19,0,0,1,6.15.32c.84,1,1.25,2.66,1.25,5s-.43,4-1.3,5.08a4.2,4.2,0,0,1-3.39,1.55,3.57,3.57,0,0,1-2.44-.8A3.92,3.92,0,0,1,247.82,401.75Zm5.57-5.37a2.8,2.8,0,0,0-.55-1.85,1.58,1.58,0,0,0-1.26-.65,1.44,1.44,0,0,0-1.14.53,2.77,2.77,0,0,0-.45,1.77,2.83,2.83,0,0,0,.49,1.82,1.54,1.54,0,0,0,1.23.58,1.49,1.49,0,0,0,1.19-.56A2.4,2.4,0,0,0,253.39,396.38Z"></path> <path d="M88.48,445.93v-2.27h2.45v2.27Zm0,10.55v-9.29h2.45v9.29Z"></path> <path d="M170.74,434.87a3.5,3.5,0,0,1,2.92,1.33q1.25,1.57,1.25,5.22c0,2.43-.42,4.17-1.26,5.24a3.51,3.51,0,0,1-2.91,1.31,3.66,3.66,0,0,1-3-1.44q-1.15-1.44-1.15-5.13t1.26-5.22A3.5,3.5,0,0,1,170.74,434.87Zm0,2a1.21,1.21,0,0,0-.79.28,1.88,1.88,0,0,0-.54,1,14,14,0,0,0-.26,3.21,14.12,14.12,0,0,0,.23,3.11,2.18,2.18,0,0,0,.57,1.12,1.27,1.27,0,0,0,1.59,0,2,2,0,0,0,.54-1,13.84,13.84,0,0,0,.26-3.21,14.07,14.07,0,0,0-.23-3.1,2.22,2.22,0,0,0-.57-1.13A1.22,1.22,0,0,0,170.74,436.91Z"></path> <path d="M248.36,453.29h-1.19v-1.93h1.57l.53-2.58h-2.1v-1.93h2.49l.69-3.41h2l-.69,3.41h1.93l.68-3.41h2l-.7,3.41h1.21v1.93h-1.61l-.52,2.58h2.13v1.93h-2.52l-.7,3.41h-2l.68-3.41h-1.95l-.69,3.41h-2Zm2.88-4.51-.52,2.58h1.94l.51-2.58Z"></path> <rect class="cls-34" x="453.72" y="586.86" width="24.13" height="16.96" rx="4.15"></rect> <path class="cls-34" d="M458.84,586.09V581a6.95,6.95,0,1,1,13.9,0v5.13"></path> <line class="cls-34" x1="465.79" y1="592.23" x2="465.79" y2="598.87"></line> <rect class="cls-34" x="453.72" y="668.23" width="24.13" height="16.96" rx="4.15"></rect> <path class="cls-34" d="M472.94,668.23v-5.14a7,7,0,0,1,13.9,0v5.14"></path> <line class="cls-34" x1="465.79" y1="674.21" x2="465.79" y2="680.85"></line> <circle class="cls-35" cx="465.79" cy="633.55" r="8.48"></circle> <path class="cls-36" d="M1092.5,722.17h-2.43c-87.15,0-156-74-149.6-160.94l8.56-117A142.63,142.63,0,0,1,1091.28,312h0a142.63,142.63,0,0,1,142.25,132.23l8.56,117C1248.45,648.15,1179.65,722.17,1092.5,722.17Z"></path> <circle class="cls-37" cx="1091.28" cy="454.51" r="110.67"></circle> <path class="cls-9" d="M1206.05,641.57a25.89,25.89,0,0,1-5.73,16.3,138.05,138.05,0,0,1-107.92,51.72h-2.24a138.07,138.07,0,0,1-107.91-51.71,26,26,0,0,1-5.74-16.3V535.86a26,26,0,0,1,16.86-24.35,278.91,278.91,0,0,1,195.82,0,26,26,0,0,1,16.86,24.35Z"></path> <path class="cls-12" d="M1150.06,485q-9.75-2.1-19.77-3.52V430.84a4,4,0,0,1,5.83-3.56h0A21.92,21.92,0,0,1,1148,445.61Z"></path> <path class="cls-12" d="M1073.26,479.33a276.59,276.59,0,0,0-38.57,5.2V435c0-18.37,5.09-36.31,13.63-37.17s-2.79,27.34,5.66,27.34h.25a18.92,18.92,0,0,1,19,18.89Z"></path> <path class="cls-12" d="M1037.68,512.48a192.44,192.44,0,0,1,31.28-5.29,4,4,0,0,1,4.3,4V519s-20,1.4-38.57,11.48V516.35A4,4,0,0,1,1037.68,512.48Z"></path> <path class="cls-12" d="M1133.56,507.38a67.46,67.46,0,0,1,14.42,2.93,3,3,0,0,1,2.08,2.86v9.05a51.61,51.61,0,0,0-19.77-7.53v-4.32A3,3,0,0,1,1133.56,507.38Z"></path> <path class="cls-2" d="M1557.31,712.58,1527.89,718a100.22,100.22,0,0,1-35.52.1l-29.44-5.24a10,10,0,0,1-8.25-9.81l-.79-291.73a10,10,0,0,1,8.19-9.86l36.52-6.7a59.84,59.84,0,0,1,21.31-.05l36.55,6.49a10,10,0,0,1,8.25,9.82l.79,291.73A10,10,0,0,1,1557.31,712.58Z"></path> <path class="cls-38" d="M1473.85,714.75l-11.35-2a10,10,0,0,1-8.22-9.84V411.14a10,10,0,0,1,8.22-9.84l10.19-1.84Z"></path> <path class="cls-39" d="M1545,714.85l11.88-2.14a10,10,0,0,0,8.23-9.84V411.14a10,10,0,0,0-8.23-9.84l-11.34-2.05Z"></path> <circle class="cls-28" cx="1536.91" cy="639.33" r="6.93"></circle> <path class="cls-40" d="M1507.09,469.62a11.13,11.13,0,0,1,0-21.63"></path> <path class="cls-40" d="M1511.94,448a11.13,11.13,0,0,1,.37,21.71"></path> <line class="cls-40" x1="1507.27" y1="454.93" x2="1507.27" y2="462.68"></line> <line class="cls-40" x1="1512.12" y1="454.93" x2="1512.12" y2="462.68"></line> <path class="cls-12" d="M953.14,48.68V179.46a1,1,0,0,1-2,.06C948.45,137.65,944,66.44,944,54.5c0-9.17,2.63-11,5.07-10.68A4.82,4.82,0,0,1,953.14,48.68Z"></path> </g> </svg> 