<?xml version="1.0" encoding="UTF-8"?> <svg xmlns="http://www.w3.org/2000/svg" width="320" height="78" viewBox="0 0 320 78" fill="none"> <path d="M0 75V5.5H19.5V33L47 5.5H71L37 39.5L72.5 75H49.5L19.5 45V75H0Z" fill="white"></path> <path d="M73 75V5.5H92.5V33L120 5.5H144L110 39.5L145.5 75H122.5L92.5 45V75H73Z" fill="white"></path> <path fill-rule="evenodd" clip-rule="evenodd" d="M170.233 0.335938C169.608 0.577148 169.032 0.943359 168.543 1.41992L133.672 35.4199C131.659 37.3828 131.659 40.6172 133.672 42.5801L168.543 76.5801C168.747 76.7764 168.963 76.9541 169.192 77.1123C169.456 77.2959 169.737 77.4521 170.03 77.5801C170.657 77.8545 171.338 78 172.034 78H320V73C317.792 73 316 71.209 316 69C316 66.791 317.792 65 320 65V61C317.792 61 316 59.209 316 57C316 56.1855 316.245 55.4277 316.663 54.7959C317.01 54.2686 317.481 53.8291 318.034 53.5166C318.616 53.1875 319.286 53 320 53V49C317.792 49 316 47.209 316 45C316 42.791 317.792 41 320 41V37C317.792 37 316 35.209 316 33C316 30.791 317.792 29 320 29V25C317.792 25 316 23.209 316 21C316 18.791 317.792 17 320 17V13C317.792 13 316 11.209 316 9C316 8.0957 316.299 7.26172 316.805 6.5918C317.018 6.30957 317.268 6.05762 317.547 5.84082C317.698 5.72461 317.856 5.61816 318.022 5.52344C318.17 5.4375 318.325 5.36133 318.487 5.2959C318.954 5.10547 319.465 5 320 5V0H172.034C171.413 0 170.803 0.116211 170.233 0.335938ZM174 11L162 23H183V66.5H197.5V23H215V11H174ZM225 66.5V11H241V66.5H225ZM250 11L268.5 39L250 66.5H267.5L278 50.5L288.5 66.5H306L287.5 39L306 11H288.5L278 27.5L267.5 11H250Z" fill="white"></path> </svg> 